M48
;GenerationSoftware,Autodesk,EAGLE,9.5.1*%
;CreationDate,2019-11-18T16:43:53Z*%
FMAT,2
ICI,OFF
METRIC,TZ,000.000
T8C0.350
T7C0.600
T6C0.813
T5C0.965
T4C1.016
T3C1.200
T2C4.000
%
G90
M71
T2
X4436Y40856
X75585Y34603
X4352Y3422
T3
X80422Y55143
X83922Y55143
T4
X87935Y41859
X82855Y41859
X90475Y41859
X76632Y5715
X76632Y8255
X79172Y5715
X79172Y8255
X81712Y5715
X81712Y8255
X84252Y5715
X84252Y8255
X86792Y8255
X85395Y41859
X86792Y5715
X46152Y8255
X46152Y5715
X43612Y8255
X43612Y5715
X41072Y8255
X41072Y5715
X38532Y8255
X38532Y5715
X35992Y8255
X35992Y5715
X80158Y46838
X75078Y46838
T5
X48057Y30607
X83617Y15367
X88697Y30607
X86157Y15367
X88697Y15367
X91237Y30607
X91237Y15367
X55677Y30607
X55677Y15367
X53137Y30607
X50597Y30607
X81077Y15367
X45517Y30607
X42977Y30607
X40437Y30607
X37897Y30607
X35357Y30607
X32817Y30607
X32817Y15367
X35357Y15367
X37897Y15367
X40437Y15367
X78537Y30607
X60757Y15367
X58217Y15367
X58217Y30607
X60757Y30607
X63297Y30607
X65837Y30607
X68377Y30607
X70917Y30607
X73457Y30607
X75997Y30607
X42977Y15367
X81077Y30607
X83617Y30607
X86157Y30607
X63297Y15367
X65837Y15367
X68377Y15367
X70917Y15367
X73457Y15367
X75997Y15367
X78537Y15367
X45517Y15367
X74727Y27432
X77267Y27432
X79807Y27432
X82347Y27432
X84887Y27432
X78537Y17907
X81077Y17907
X83617Y17907
X88697Y17907
X45517Y25527
X45517Y20447
X45517Y22987
X45517Y28067
X53137Y15367
X50597Y15367
X48057Y15367
X45517Y17907
T6
X93650Y7061
X96190Y7061
T7
X70854Y57152
X70854Y39372
X31484Y39372
X31484Y57152
T8
X35025Y51460
X35532Y48292
X35532Y44067
X1521Y26660
X8746Y40518
X10225Y42419
X57418Y11703
X35363Y54164
X40264Y53995
X40138Y51122
X39969Y48292
X40053Y43898
X95654Y35828
X95696Y33716
X95781Y31603
X95781Y29237
X69163Y23280
X70600Y23280
X70642Y21801
X2282Y36082
X65192Y51883
X62361Y48249
X61516Y44785
X65361Y47447
X68023Y51672
X60333Y52517
X1774Y21210
X1394Y15252
X69037Y48630
X5577Y37434
X1394Y6718
X9464Y10774
X8873Y22350
X8873Y28434
X81669Y23829
X83909Y24125
X83909Y21843
X67600Y34054
X61938Y11534
X65445Y11703
X92485Y2408
X96710Y2535
X95738Y22815
X67600Y36462
X70008Y36293
X69839Y33842
X81669Y21843
X89274Y36251
X79050Y33631
X78670Y36377
X78881Y39842
X83064Y39335
X90584Y39039
X96330Y38532
X66586Y44574
X24758Y25603
X58471Y6350
X70358Y6375
X72415Y6375
X66853Y5994
X76759Y2007
X54460Y11703
X20914Y5366
X16985Y5492
X57480Y8306
X8112Y42884
X16139Y26195
X15886Y19266
X25941Y19520
X37222Y22223
X39250Y22223
X39250Y25434
X36800Y25434
X75082Y17450
X96372Y58136
X91767Y58263
X85599Y46010
X98231Y55559
X75332Y42926
X75332Y51629
X65303Y6579
X87020Y54381
X69121Y21885
X49094Y12590
X48971Y4978
X48895Y6858
X50546Y10770
X53645Y6426
X93193Y56845
X61379Y7175
X64059Y6528
M30