G04 EAGLE Gerber RS-274X export*
G75*
%MOMM*%
%FSLAX34Y34*%
%LPD*%
%INBottom Copper*%
%IPPOS*%
%AMOC8*
5,1,8,0,0,1.08239X$1,22.5*%
G01*
%ADD10C,1.879600*%
%ADD11C,1.473200*%
%ADD12R,1.108000X1.108000*%
%ADD13P,1.704548X8X22.500000*%
%ADD14C,1.574800*%
%ADD15R,2.032000X2.032000*%
%ADD16C,2.032000*%
%ADD17C,2.540000*%
%ADD18P,2.749271X8X202.500000*%
%ADD19C,0.304800*%
%ADD20C,0.756400*%
%ADD21C,0.254000*%
%ADD22C,1.016000*%
%ADD23C,2.540000*%
%ADD24C,0.609600*%
%ADD25C,0.406400*%
%ADD26C,0.200000*%
%ADD27C,1.270000*%

G36*
X759038Y10164D02*
X759038Y10164D01*
X759076Y10162D01*
X759284Y10184D01*
X759492Y10201D01*
X759529Y10210D01*
X759567Y10214D01*
X759768Y10269D01*
X759971Y10319D01*
X760006Y10334D01*
X760042Y10345D01*
X760232Y10432D01*
X760424Y10514D01*
X760456Y10534D01*
X760491Y10550D01*
X760665Y10667D01*
X760840Y10779D01*
X760868Y10804D01*
X760900Y10826D01*
X761052Y10969D01*
X761208Y11108D01*
X761232Y11137D01*
X761260Y11164D01*
X761387Y11329D01*
X761518Y11492D01*
X761537Y11525D01*
X761560Y11555D01*
X761659Y11739D01*
X761762Y11920D01*
X761775Y11956D01*
X761793Y11990D01*
X761861Y12187D01*
X761933Y12383D01*
X761941Y12420D01*
X761953Y12456D01*
X761988Y12662D01*
X762028Y12867D01*
X762029Y12905D01*
X762036Y12943D01*
X762037Y13152D01*
X762043Y13360D01*
X762038Y13398D01*
X762039Y13436D01*
X762006Y13642D01*
X761979Y13849D01*
X761968Y13886D01*
X761962Y13923D01*
X761897Y14121D01*
X761837Y14321D01*
X761820Y14356D01*
X761808Y14392D01*
X761711Y14577D01*
X761620Y14765D01*
X761598Y14796D01*
X761580Y14830D01*
X761522Y14903D01*
X761334Y15167D01*
X761213Y15289D01*
X761155Y15363D01*
X760912Y15605D01*
X759713Y18500D01*
X759713Y22648D01*
X760912Y25543D01*
X763127Y27758D01*
X766022Y28957D01*
X883158Y28957D01*
X883234Y28963D01*
X883310Y28961D01*
X883479Y28983D01*
X883650Y28997D01*
X883724Y29015D01*
X883799Y29025D01*
X883963Y29074D01*
X884129Y29115D01*
X884198Y29145D01*
X884272Y29167D01*
X884425Y29243D01*
X884582Y29310D01*
X884646Y29351D01*
X884715Y29384D01*
X884854Y29483D01*
X884998Y29575D01*
X885055Y29626D01*
X885117Y29670D01*
X885238Y29790D01*
X885366Y29904D01*
X885414Y29963D01*
X885468Y30017D01*
X885569Y30155D01*
X885676Y30288D01*
X885713Y30354D01*
X885758Y30415D01*
X885835Y30568D01*
X885920Y30716D01*
X885946Y30788D01*
X885981Y30856D01*
X886032Y31019D01*
X886091Y31179D01*
X886106Y31254D01*
X886129Y31326D01*
X886141Y31431D01*
X886186Y31663D01*
X886193Y31899D01*
X886205Y32004D01*
X886205Y116634D01*
X886196Y116748D01*
X886197Y116862D01*
X886176Y116993D01*
X886165Y117126D01*
X886138Y117236D01*
X886120Y117349D01*
X886079Y117476D01*
X886047Y117604D01*
X886002Y117709D01*
X885966Y117818D01*
X885904Y117936D01*
X885852Y118058D01*
X885791Y118154D01*
X885738Y118255D01*
X885679Y118329D01*
X885587Y118474D01*
X885371Y118716D01*
X885313Y118789D01*
X859413Y144688D01*
X859406Y144694D01*
X859400Y144702D01*
X859218Y144854D01*
X859037Y145008D01*
X859029Y145013D01*
X859022Y145019D01*
X858987Y145038D01*
X858615Y145262D01*
X858493Y145311D01*
X858425Y145349D01*
X856532Y146133D01*
X854031Y148634D01*
X852677Y151901D01*
X852677Y155439D01*
X853969Y158558D01*
X853972Y158567D01*
X853977Y158576D01*
X854049Y158804D01*
X854121Y159027D01*
X854122Y159037D01*
X854125Y159046D01*
X854129Y159086D01*
X854194Y159515D01*
X854192Y159646D01*
X854201Y159724D01*
X854201Y186330D01*
X854897Y188010D01*
X926461Y259574D01*
X926535Y259661D01*
X926616Y259741D01*
X926694Y259848D01*
X926780Y259950D01*
X926839Y260047D01*
X926906Y260140D01*
X926966Y260258D01*
X927035Y260372D01*
X927077Y260478D01*
X927129Y260580D01*
X927169Y260707D01*
X927218Y260830D01*
X927243Y260941D01*
X927277Y261051D01*
X927287Y261144D01*
X927325Y261312D01*
X927343Y261636D01*
X927353Y261728D01*
X927353Y300966D01*
X927351Y300989D01*
X927353Y301012D01*
X927331Y301234D01*
X927313Y301458D01*
X927308Y301480D01*
X927306Y301503D01*
X927249Y301719D01*
X927195Y301937D01*
X927186Y301958D01*
X927180Y301980D01*
X927088Y302184D01*
X927000Y302390D01*
X926988Y302409D01*
X926978Y302430D01*
X926855Y302617D01*
X926735Y302806D01*
X926720Y302823D01*
X926707Y302842D01*
X926555Y303007D01*
X926406Y303174D01*
X926388Y303188D01*
X926373Y303205D01*
X926196Y303344D01*
X926022Y303484D01*
X926003Y303495D01*
X925985Y303509D01*
X925788Y303617D01*
X925594Y303728D01*
X925572Y303736D01*
X925552Y303747D01*
X925342Y303821D01*
X925131Y303900D01*
X925109Y303904D01*
X925087Y303912D01*
X924866Y303951D01*
X924647Y303994D01*
X924624Y303995D01*
X924602Y303999D01*
X924376Y304003D01*
X924154Y304010D01*
X924131Y304007D01*
X924108Y304007D01*
X923886Y303974D01*
X923665Y303945D01*
X923643Y303939D01*
X923620Y303935D01*
X923407Y303867D01*
X923193Y303803D01*
X923172Y303793D01*
X923150Y303786D01*
X922951Y303684D01*
X922749Y303586D01*
X922731Y303573D01*
X922710Y303562D01*
X922529Y303430D01*
X922347Y303300D01*
X922331Y303284D01*
X922312Y303271D01*
X922155Y303111D01*
X921996Y302954D01*
X921983Y302935D01*
X921967Y302919D01*
X921926Y302858D01*
X921706Y302555D01*
X921638Y302421D01*
X921591Y302350D01*
X920841Y300878D01*
X919924Y299616D01*
X918822Y298514D01*
X917560Y297597D01*
X916171Y296889D01*
X915415Y296644D01*
X915415Y306070D01*
X915415Y315496D01*
X916171Y315251D01*
X917560Y314543D01*
X918822Y313626D01*
X919924Y312524D01*
X920841Y311262D01*
X921591Y309790D01*
X921603Y309771D01*
X921612Y309750D01*
X921732Y309561D01*
X921850Y309371D01*
X921865Y309353D01*
X921877Y309334D01*
X922027Y309166D01*
X922173Y308998D01*
X922190Y308983D01*
X922206Y308966D01*
X922380Y308826D01*
X922552Y308682D01*
X922572Y308670D01*
X922590Y308656D01*
X922784Y308546D01*
X922977Y308432D01*
X922998Y308423D01*
X923018Y308412D01*
X923229Y308334D01*
X923437Y308253D01*
X923459Y308248D01*
X923481Y308240D01*
X923700Y308198D01*
X923920Y308151D01*
X923943Y308150D01*
X923965Y308146D01*
X924188Y308139D01*
X924412Y308129D01*
X924435Y308131D01*
X924458Y308130D01*
X924680Y308160D01*
X924902Y308186D01*
X924925Y308192D01*
X924947Y308195D01*
X925161Y308259D01*
X925377Y308321D01*
X925398Y308331D01*
X925420Y308337D01*
X925620Y308436D01*
X925823Y308531D01*
X925842Y308544D01*
X925863Y308554D01*
X926044Y308683D01*
X926230Y308811D01*
X926246Y308827D01*
X926265Y308840D01*
X926424Y308996D01*
X926586Y309152D01*
X926600Y309170D01*
X926616Y309186D01*
X926747Y309367D01*
X926882Y309546D01*
X926893Y309567D01*
X926906Y309585D01*
X927007Y309785D01*
X927111Y309983D01*
X927118Y310005D01*
X927129Y310026D01*
X927196Y310240D01*
X927266Y310452D01*
X927270Y310474D01*
X927277Y310496D01*
X927285Y310569D01*
X927344Y310939D01*
X927344Y311088D01*
X927353Y311174D01*
X927353Y565018D01*
X927352Y565028D01*
X927353Y565038D01*
X927333Y565273D01*
X927313Y565510D01*
X927311Y565519D01*
X927310Y565529D01*
X927299Y565567D01*
X927195Y565989D01*
X927143Y566109D01*
X927121Y566184D01*
X926619Y567396D01*
X926619Y569508D01*
X927427Y571458D01*
X928920Y572951D01*
X930870Y573759D01*
X932982Y573759D01*
X934932Y572951D01*
X936425Y571458D01*
X937233Y569508D01*
X937233Y567396D01*
X936731Y566184D01*
X936728Y566175D01*
X936723Y566166D01*
X936651Y565939D01*
X936579Y565715D01*
X936578Y565705D01*
X936575Y565696D01*
X936571Y565656D01*
X936506Y565227D01*
X936508Y565096D01*
X936499Y565018D01*
X936499Y257662D01*
X935803Y255982D01*
X864239Y184418D01*
X864165Y184331D01*
X864084Y184251D01*
X864006Y184144D01*
X863920Y184042D01*
X863861Y183945D01*
X863794Y183852D01*
X863734Y183734D01*
X863665Y183620D01*
X863623Y183514D01*
X863571Y183412D01*
X863531Y183285D01*
X863482Y183162D01*
X863457Y183051D01*
X863423Y182941D01*
X863413Y182848D01*
X863375Y182680D01*
X863357Y182356D01*
X863347Y182264D01*
X863347Y164593D01*
X863364Y164375D01*
X863378Y164157D01*
X863384Y164129D01*
X863387Y164101D01*
X863439Y163889D01*
X863488Y163676D01*
X863499Y163650D01*
X863505Y163622D01*
X863592Y163421D01*
X863674Y163219D01*
X863689Y163195D01*
X863700Y163169D01*
X863817Y162985D01*
X863931Y162798D01*
X863950Y162776D01*
X863965Y162753D01*
X864110Y162590D01*
X864253Y162424D01*
X864275Y162406D01*
X864294Y162385D01*
X864464Y162247D01*
X864631Y162107D01*
X864651Y162096D01*
X864678Y162075D01*
X865106Y161831D01*
X865182Y161803D01*
X865228Y161777D01*
X866604Y161207D01*
X869105Y158706D01*
X869889Y156813D01*
X869894Y156805D01*
X869897Y156796D01*
X870006Y156585D01*
X870114Y156374D01*
X870120Y156367D01*
X870125Y156358D01*
X870150Y156327D01*
X870407Y155977D01*
X870501Y155886D01*
X870550Y155825D01*
X872875Y153499D01*
X872904Y153475D01*
X872930Y153446D01*
X873092Y153315D01*
X873251Y153180D01*
X873284Y153160D01*
X873314Y153136D01*
X873495Y153033D01*
X873674Y152925D01*
X873709Y152911D01*
X873742Y152892D01*
X873938Y152819D01*
X874132Y152742D01*
X874169Y152734D01*
X874205Y152721D01*
X874410Y152681D01*
X874614Y152635D01*
X874652Y152633D01*
X874689Y152626D01*
X874897Y152619D01*
X875106Y152608D01*
X875144Y152612D01*
X875182Y152611D01*
X875389Y152638D01*
X875597Y152660D01*
X875633Y152670D01*
X875671Y152675D01*
X875871Y152735D01*
X876072Y152791D01*
X876107Y152806D01*
X876144Y152817D01*
X876331Y152909D01*
X876521Y152996D01*
X876552Y153018D01*
X876587Y153034D01*
X876757Y153155D01*
X876930Y153272D01*
X876958Y153298D01*
X876989Y153320D01*
X877137Y153466D01*
X877290Y153609D01*
X877313Y153640D01*
X877340Y153667D01*
X877463Y153835D01*
X877590Y154001D01*
X877608Y154035D01*
X877630Y154065D01*
X877724Y154251D01*
X877823Y154436D01*
X877836Y154472D01*
X877853Y154506D01*
X877915Y154705D01*
X877983Y154902D01*
X877989Y154940D01*
X878001Y154976D01*
X878011Y155069D01*
X878066Y155389D01*
X878066Y155411D01*
X879431Y158706D01*
X881932Y161207D01*
X885199Y162561D01*
X888737Y162561D01*
X892004Y161207D01*
X894505Y158706D01*
X895859Y155439D01*
X895859Y151901D01*
X894505Y148634D01*
X892004Y146133D01*
X888685Y144758D01*
X888668Y144756D01*
X888460Y144739D01*
X888423Y144730D01*
X888385Y144726D01*
X888184Y144671D01*
X887981Y144621D01*
X887946Y144606D01*
X887910Y144595D01*
X887720Y144508D01*
X887528Y144426D01*
X887496Y144406D01*
X887461Y144390D01*
X887288Y144273D01*
X887112Y144161D01*
X887084Y144136D01*
X887052Y144114D01*
X886900Y143971D01*
X886744Y143832D01*
X886720Y143803D01*
X886692Y143777D01*
X886565Y143611D01*
X886434Y143448D01*
X886415Y143415D01*
X886392Y143385D01*
X886293Y143201D01*
X886190Y143020D01*
X886177Y142984D01*
X886159Y142950D01*
X886091Y142753D01*
X886019Y142557D01*
X886011Y142520D01*
X885999Y142484D01*
X885964Y142277D01*
X885924Y142073D01*
X885923Y142035D01*
X885916Y141997D01*
X885915Y141788D01*
X885909Y141580D01*
X885914Y141542D01*
X885913Y141504D01*
X885946Y141297D01*
X885973Y141091D01*
X885984Y141054D01*
X885990Y141017D01*
X886055Y140818D01*
X886115Y140619D01*
X886132Y140584D01*
X886144Y140548D01*
X886241Y140363D01*
X886332Y140175D01*
X886354Y140144D01*
X886372Y140110D01*
X886430Y140038D01*
X886618Y139773D01*
X886739Y139651D01*
X886797Y139577D01*
X898112Y128262D01*
X900756Y125619D01*
X901955Y122724D01*
X901955Y19516D01*
X900756Y16621D01*
X899497Y15363D01*
X899473Y15334D01*
X899444Y15308D01*
X899313Y15146D01*
X899178Y14987D01*
X899158Y14954D01*
X899134Y14924D01*
X899031Y14743D01*
X898923Y14564D01*
X898909Y14529D01*
X898890Y14496D01*
X898817Y14300D01*
X898740Y14106D01*
X898732Y14069D01*
X898719Y14033D01*
X898679Y13829D01*
X898633Y13625D01*
X898631Y13586D01*
X898624Y13549D01*
X898617Y13341D01*
X898606Y13132D01*
X898610Y13094D01*
X898609Y13056D01*
X898636Y12849D01*
X898658Y12641D01*
X898668Y12605D01*
X898673Y12567D01*
X898733Y12366D01*
X898789Y12166D01*
X898804Y12131D01*
X898815Y12094D01*
X898907Y11907D01*
X898994Y11717D01*
X899016Y11686D01*
X899032Y11651D01*
X899153Y11481D01*
X899270Y11308D01*
X899296Y11280D01*
X899318Y11249D01*
X899465Y11101D01*
X899607Y10948D01*
X899638Y10925D01*
X899665Y10898D01*
X899833Y10775D01*
X899999Y10648D01*
X900033Y10630D01*
X900063Y10608D01*
X900250Y10514D01*
X900434Y10415D01*
X900470Y10403D01*
X900504Y10385D01*
X900703Y10322D01*
X900900Y10255D01*
X900938Y10249D01*
X900974Y10237D01*
X901067Y10227D01*
X901387Y10172D01*
X901559Y10171D01*
X901652Y10161D01*
X986792Y10161D01*
X986868Y10167D01*
X986944Y10165D01*
X987113Y10187D01*
X987284Y10201D01*
X987358Y10219D01*
X987433Y10229D01*
X987597Y10278D01*
X987763Y10319D01*
X987832Y10349D01*
X987906Y10371D01*
X988059Y10447D01*
X988216Y10514D01*
X988280Y10555D01*
X988349Y10588D01*
X988488Y10687D01*
X988632Y10779D01*
X988689Y10830D01*
X988751Y10874D01*
X988872Y10994D01*
X989000Y11108D01*
X989048Y11167D01*
X989102Y11221D01*
X989203Y11359D01*
X989310Y11492D01*
X989347Y11558D01*
X989392Y11619D01*
X989469Y11772D01*
X989554Y11920D01*
X989580Y11992D01*
X989615Y12060D01*
X989666Y12223D01*
X989725Y12383D01*
X989740Y12458D01*
X989763Y12530D01*
X989775Y12635D01*
X989820Y12867D01*
X989827Y13103D01*
X989839Y13208D01*
X989839Y586792D01*
X989833Y586868D01*
X989835Y586944D01*
X989813Y587113D01*
X989799Y587284D01*
X989781Y587358D01*
X989771Y587433D01*
X989722Y587597D01*
X989681Y587763D01*
X989651Y587832D01*
X989629Y587906D01*
X989553Y588059D01*
X989486Y588216D01*
X989445Y588280D01*
X989412Y588349D01*
X989313Y588488D01*
X989221Y588632D01*
X989170Y588689D01*
X989126Y588751D01*
X989006Y588872D01*
X988892Y589000D01*
X988833Y589048D01*
X988779Y589102D01*
X988641Y589203D01*
X988508Y589310D01*
X988442Y589347D01*
X988381Y589392D01*
X988228Y589469D01*
X988080Y589554D01*
X988008Y589580D01*
X987940Y589615D01*
X987777Y589666D01*
X987617Y589725D01*
X987542Y589740D01*
X987470Y589763D01*
X987365Y589775D01*
X987133Y589820D01*
X986897Y589827D01*
X986792Y589839D01*
X328815Y589839D01*
X328673Y589828D01*
X328530Y589826D01*
X328427Y589808D01*
X328323Y589799D01*
X328185Y589765D01*
X328044Y589740D01*
X327945Y589706D01*
X327844Y589681D01*
X327713Y589624D01*
X327579Y589577D01*
X327487Y589527D01*
X327391Y589486D01*
X327270Y589410D01*
X327145Y589341D01*
X327063Y589277D01*
X326975Y589221D01*
X326868Y589126D01*
X326756Y589039D01*
X326685Y588962D01*
X326607Y588892D01*
X326517Y588781D01*
X326420Y588677D01*
X326362Y588590D01*
X326297Y588508D01*
X326227Y588385D01*
X326147Y588266D01*
X326104Y588170D01*
X326053Y588080D01*
X326003Y587946D01*
X325945Y587816D01*
X325918Y587715D01*
X325881Y587617D01*
X325854Y587477D01*
X325817Y587340D01*
X325807Y587235D01*
X325787Y587133D01*
X325782Y586991D01*
X325768Y586849D01*
X325774Y586744D01*
X325771Y586640D01*
X325790Y586499D01*
X325799Y586356D01*
X325822Y586254D01*
X325836Y586151D01*
X325877Y586014D01*
X325909Y585875D01*
X325948Y585779D01*
X325978Y585679D01*
X326041Y585551D01*
X326095Y585418D01*
X326149Y585329D01*
X326195Y585235D01*
X326277Y585119D01*
X326352Y584998D01*
X326420Y584918D01*
X326480Y584833D01*
X326581Y584732D01*
X326674Y584624D01*
X326754Y584556D01*
X326827Y584482D01*
X326942Y584398D01*
X327052Y584307D01*
X327120Y584269D01*
X327226Y584192D01*
X327614Y583996D01*
X327649Y583977D01*
X328313Y583702D01*
X332314Y579700D01*
X334480Y574472D01*
X334480Y568813D01*
X332314Y563585D01*
X328187Y559457D01*
X322959Y557292D01*
X315653Y557292D01*
X315539Y557283D01*
X315425Y557283D01*
X315293Y557263D01*
X315161Y557252D01*
X315050Y557224D01*
X314937Y557207D01*
X314811Y557165D01*
X314682Y557133D01*
X314577Y557088D01*
X314469Y557052D01*
X314351Y556991D01*
X314229Y556939D01*
X314133Y556877D01*
X314031Y556825D01*
X313958Y556766D01*
X313813Y556674D01*
X313571Y556457D01*
X313498Y556399D01*
X56011Y298912D01*
X55937Y298826D01*
X55856Y298745D01*
X55778Y298638D01*
X55692Y298537D01*
X55633Y298439D01*
X55566Y298346D01*
X55506Y298228D01*
X55437Y298114D01*
X55395Y298008D01*
X55343Y297906D01*
X55303Y297779D01*
X55254Y297656D01*
X55229Y297545D01*
X55195Y297435D01*
X55185Y297342D01*
X55147Y297174D01*
X55129Y296850D01*
X55119Y296758D01*
X55119Y112564D01*
X55128Y112451D01*
X55127Y112336D01*
X55148Y112205D01*
X55159Y112073D01*
X55186Y111962D01*
X55204Y111849D01*
X55245Y111723D01*
X55277Y111594D01*
X55322Y111489D01*
X55358Y111380D01*
X55420Y111262D01*
X55472Y111140D01*
X55533Y111044D01*
X55586Y110943D01*
X55645Y110869D01*
X55737Y110724D01*
X55953Y110482D01*
X56011Y110410D01*
X128341Y38080D01*
X128427Y38006D01*
X128508Y37925D01*
X128615Y37847D01*
X128716Y37761D01*
X128814Y37702D01*
X128907Y37635D01*
X129025Y37575D01*
X129139Y37506D01*
X129245Y37464D01*
X129347Y37412D01*
X129474Y37372D01*
X129597Y37323D01*
X129708Y37298D01*
X129818Y37264D01*
X129911Y37254D01*
X130079Y37216D01*
X130403Y37198D01*
X130495Y37188D01*
X263946Y37188D01*
X264060Y37197D01*
X264174Y37196D01*
X264306Y37217D01*
X264438Y37228D01*
X264549Y37255D01*
X264662Y37273D01*
X264788Y37314D01*
X264917Y37346D01*
X265022Y37391D01*
X265130Y37427D01*
X265248Y37489D01*
X265370Y37541D01*
X265466Y37602D01*
X265568Y37655D01*
X265641Y37714D01*
X265786Y37806D01*
X266028Y38022D01*
X266101Y38080D01*
X333297Y105277D01*
X334978Y105973D01*
X378202Y105973D01*
X379883Y105277D01*
X389195Y95965D01*
X389912Y94232D01*
X389922Y94079D01*
X389928Y94051D01*
X389931Y94023D01*
X389983Y93812D01*
X390032Y93598D01*
X390043Y93572D01*
X390049Y93544D01*
X390135Y93344D01*
X390218Y93141D01*
X390233Y93117D01*
X390244Y93091D01*
X390361Y92907D01*
X390475Y92720D01*
X390494Y92699D01*
X390509Y92675D01*
X390654Y92512D01*
X390797Y92346D01*
X390819Y92328D01*
X390838Y92307D01*
X391007Y92170D01*
X391175Y92029D01*
X391196Y92018D01*
X391222Y91997D01*
X391446Y91869D01*
X394578Y88737D01*
X394691Y88464D01*
X394766Y88317D01*
X394834Y88166D01*
X394879Y88098D01*
X394916Y88025D01*
X395014Y87892D01*
X395105Y87754D01*
X395161Y87694D01*
X395209Y87628D01*
X395327Y87513D01*
X395439Y87391D01*
X395504Y87341D01*
X395562Y87284D01*
X395698Y87189D01*
X395828Y87087D01*
X395899Y87047D01*
X395966Y87001D01*
X396116Y86929D01*
X396260Y86849D01*
X396337Y86822D01*
X396411Y86787D01*
X396569Y86740D01*
X396725Y86685D01*
X396806Y86670D01*
X396884Y86647D01*
X397048Y86626D01*
X397211Y86597D01*
X397292Y86596D01*
X397374Y86586D01*
X397539Y86592D01*
X397704Y86589D01*
X397785Y86601D01*
X397867Y86604D01*
X398029Y86637D01*
X398192Y86661D01*
X398270Y86686D01*
X398350Y86702D01*
X398504Y86760D01*
X398662Y86811D01*
X398735Y86848D01*
X398812Y86876D01*
X398955Y86959D01*
X399102Y87034D01*
X399168Y87082D01*
X399239Y87123D01*
X399366Y87228D01*
X399500Y87326D01*
X399557Y87384D01*
X399621Y87436D01*
X399730Y87559D01*
X399846Y87678D01*
X399881Y87731D01*
X399947Y87806D01*
X400209Y88223D01*
X400215Y88237D01*
X400221Y88247D01*
X400507Y88807D01*
X401612Y90328D01*
X402940Y91656D01*
X404461Y92761D01*
X406135Y93614D01*
X407671Y94113D01*
X407671Y82550D01*
X407677Y82474D01*
X407674Y82398D01*
X407697Y82229D01*
X407711Y82059D01*
X407729Y81985D01*
X407739Y81909D01*
X407788Y81745D01*
X407829Y81580D01*
X407859Y81510D01*
X407881Y81437D01*
X407956Y81283D01*
X408024Y81126D01*
X408065Y81062D01*
X408098Y80994D01*
X408197Y80854D01*
X408289Y80710D01*
X408340Y80654D01*
X408384Y80591D01*
X408504Y80470D01*
X408618Y80342D01*
X408677Y80295D01*
X408730Y80240D01*
X408869Y80140D01*
X409001Y80033D01*
X409068Y79995D01*
X409129Y79950D01*
X409282Y79873D01*
X409430Y79789D01*
X409502Y79762D01*
X409570Y79728D01*
X409732Y79676D01*
X409893Y79617D01*
X409967Y79602D01*
X410040Y79579D01*
X410145Y79568D01*
X410377Y79522D01*
X410613Y79515D01*
X410718Y79503D01*
X410794Y79509D01*
X410870Y79507D01*
X411039Y79529D01*
X411210Y79543D01*
X411284Y79561D01*
X411359Y79571D01*
X411523Y79621D01*
X411689Y79662D01*
X411759Y79692D01*
X411832Y79714D01*
X411985Y79789D01*
X412142Y79856D01*
X412206Y79897D01*
X412275Y79931D01*
X412414Y80030D01*
X412558Y80121D01*
X412615Y80172D01*
X412677Y80216D01*
X412799Y80336D01*
X412926Y80450D01*
X412974Y80509D01*
X413028Y80563D01*
X413129Y80701D01*
X413236Y80834D01*
X413274Y80900D01*
X413318Y80962D01*
X413395Y81114D01*
X413480Y81263D01*
X413506Y81334D01*
X413541Y81402D01*
X413592Y81565D01*
X413652Y81725D01*
X413666Y81800D01*
X413689Y81873D01*
X413701Y81977D01*
X413746Y82209D01*
X413754Y82445D01*
X413765Y82550D01*
X413765Y94113D01*
X415301Y93614D01*
X416975Y92761D01*
X418496Y91656D01*
X419824Y90328D01*
X420929Y88807D01*
X421215Y88247D01*
X421301Y88106D01*
X421380Y87961D01*
X421430Y87896D01*
X421473Y87827D01*
X421582Y87701D01*
X421683Y87571D01*
X421743Y87516D01*
X421796Y87454D01*
X421924Y87348D01*
X422045Y87236D01*
X422113Y87191D01*
X422176Y87138D01*
X422318Y87054D01*
X422456Y86963D01*
X422530Y86929D01*
X422601Y86888D01*
X422755Y86828D01*
X422906Y86760D01*
X422984Y86739D01*
X423061Y86709D01*
X423223Y86675D01*
X423382Y86632D01*
X423463Y86624D01*
X423543Y86607D01*
X423709Y86600D01*
X423873Y86583D01*
X423954Y86588D01*
X424036Y86585D01*
X424201Y86604D01*
X424365Y86614D01*
X424445Y86632D01*
X424526Y86642D01*
X424685Y86687D01*
X424846Y86724D01*
X424922Y86755D01*
X425000Y86777D01*
X425150Y86848D01*
X425303Y86910D01*
X425373Y86953D01*
X425447Y86987D01*
X425583Y87081D01*
X425724Y87167D01*
X425786Y87220D01*
X425853Y87267D01*
X425973Y87381D01*
X426098Y87489D01*
X426151Y87552D01*
X426209Y87608D01*
X426309Y87740D01*
X426415Y87867D01*
X426446Y87923D01*
X426506Y88003D01*
X426735Y88440D01*
X426740Y88454D01*
X426745Y88464D01*
X426858Y88737D01*
X429931Y91810D01*
X433945Y93473D01*
X438291Y93473D01*
X441302Y92225D01*
X441474Y92170D01*
X441643Y92107D01*
X441708Y92095D01*
X441771Y92074D01*
X441950Y92047D01*
X442127Y92013D01*
X442193Y92011D01*
X442259Y92001D01*
X442440Y92003D01*
X442620Y91997D01*
X442686Y92006D01*
X442753Y92007D01*
X442930Y92038D01*
X443109Y92062D01*
X443173Y92081D01*
X443238Y92092D01*
X443408Y92152D01*
X443582Y92204D01*
X443641Y92233D01*
X443704Y92255D01*
X443863Y92342D01*
X444025Y92421D01*
X444079Y92459D01*
X444137Y92491D01*
X444280Y92602D01*
X444427Y92707D01*
X444474Y92753D01*
X444527Y92794D01*
X444650Y92926D01*
X444778Y93053D01*
X444817Y93107D01*
X444862Y93156D01*
X444962Y93306D01*
X445068Y93452D01*
X445098Y93511D01*
X445135Y93567D01*
X445209Y93731D01*
X445291Y93892D01*
X445311Y93956D01*
X445338Y94017D01*
X445385Y94191D01*
X445439Y94363D01*
X445445Y94416D01*
X445466Y94493D01*
X445515Y94984D01*
X445513Y95017D01*
X445515Y95041D01*
X445515Y147672D01*
X446053Y148972D01*
X446093Y149038D01*
X446209Y149222D01*
X446220Y149248D01*
X446235Y149273D01*
X446316Y149476D01*
X446401Y149677D01*
X446407Y149705D01*
X446418Y149731D01*
X446465Y149943D01*
X446516Y150156D01*
X446519Y150185D01*
X446525Y150213D01*
X446537Y150431D01*
X446553Y150648D01*
X446551Y150677D01*
X446552Y150705D01*
X446529Y150923D01*
X446510Y151140D01*
X446504Y151162D01*
X446500Y151196D01*
X446369Y151671D01*
X446336Y151745D01*
X446321Y151795D01*
X446277Y151902D01*
X446277Y155439D01*
X447631Y158706D01*
X450132Y161207D01*
X453399Y162561D01*
X456937Y162561D01*
X460204Y161207D01*
X462705Y158706D01*
X464059Y155439D01*
X464059Y151901D01*
X462705Y148634D01*
X460204Y146133D01*
X456937Y144779D01*
X454660Y144779D01*
X454584Y144773D01*
X454508Y144775D01*
X454339Y144753D01*
X454168Y144739D01*
X454094Y144721D01*
X454019Y144711D01*
X453855Y144662D01*
X453689Y144621D01*
X453620Y144591D01*
X453546Y144569D01*
X453393Y144493D01*
X453236Y144426D01*
X453172Y144385D01*
X453103Y144352D01*
X452964Y144253D01*
X452820Y144161D01*
X452763Y144110D01*
X452701Y144066D01*
X452580Y143946D01*
X452452Y143832D01*
X452404Y143773D01*
X452350Y143719D01*
X452249Y143581D01*
X452142Y143448D01*
X452105Y143382D01*
X452060Y143321D01*
X451983Y143168D01*
X451898Y143020D01*
X451872Y142948D01*
X451837Y142880D01*
X451786Y142717D01*
X451727Y142557D01*
X451712Y142482D01*
X451689Y142410D01*
X451677Y142305D01*
X451632Y142073D01*
X451625Y141837D01*
X451613Y141732D01*
X451613Y115466D01*
X451624Y115324D01*
X451626Y115181D01*
X451644Y115078D01*
X451653Y114974D01*
X451687Y114836D01*
X451712Y114695D01*
X451746Y114597D01*
X451771Y114495D01*
X451828Y114364D01*
X451875Y114230D01*
X451925Y114138D01*
X451966Y114042D01*
X452042Y113922D01*
X452111Y113796D01*
X452175Y113714D01*
X452231Y113626D01*
X452326Y113520D01*
X452413Y113407D01*
X452490Y113336D01*
X452560Y113258D01*
X452671Y113168D01*
X452775Y113071D01*
X452862Y113014D01*
X452944Y112948D01*
X453067Y112877D01*
X453186Y112799D01*
X453281Y112756D01*
X453372Y112704D01*
X453506Y112654D01*
X453636Y112596D01*
X453737Y112569D01*
X453835Y112532D01*
X453975Y112505D01*
X454112Y112468D01*
X454217Y112458D01*
X454319Y112438D01*
X454461Y112433D01*
X454603Y112419D01*
X454708Y112426D01*
X454812Y112422D01*
X454953Y112441D01*
X455096Y112450D01*
X455198Y112473D01*
X455301Y112487D01*
X455438Y112528D01*
X455577Y112560D01*
X455673Y112599D01*
X455773Y112629D01*
X455902Y112692D01*
X456034Y112746D01*
X456123Y112800D01*
X456217Y112846D01*
X456333Y112929D01*
X456455Y113003D01*
X456534Y113071D01*
X456619Y113132D01*
X456720Y113232D01*
X456828Y113325D01*
X456896Y113405D01*
X456970Y113478D01*
X457054Y113593D01*
X457145Y113703D01*
X457183Y113771D01*
X457260Y113877D01*
X457456Y114265D01*
X457475Y114300D01*
X457641Y114701D01*
X472722Y129782D01*
X474403Y130478D01*
X487511Y130478D01*
X487521Y130479D01*
X487531Y130478D01*
X487766Y130498D01*
X488003Y130518D01*
X488012Y130520D01*
X488022Y130521D01*
X488060Y130532D01*
X488482Y130636D01*
X488602Y130688D01*
X488677Y130710D01*
X489889Y131212D01*
X492001Y131212D01*
X493951Y130404D01*
X495444Y128911D01*
X496041Y127470D01*
X496106Y127343D01*
X496162Y127212D01*
X496218Y127124D01*
X496266Y127031D01*
X496351Y126916D01*
X496427Y126796D01*
X496497Y126718D01*
X496559Y126634D01*
X496661Y126534D01*
X496756Y126428D01*
X496837Y126363D01*
X496912Y126290D01*
X497029Y126208D01*
X497140Y126118D01*
X497230Y126067D01*
X497316Y126007D01*
X497445Y125945D01*
X497512Y125906D01*
X497482Y125894D01*
X497393Y125839D01*
X497299Y125794D01*
X497183Y125711D01*
X497062Y125637D01*
X496982Y125568D01*
X496897Y125508D01*
X496796Y125408D01*
X496688Y125315D01*
X496620Y125235D01*
X496546Y125161D01*
X496462Y125046D01*
X496371Y124937D01*
X496333Y124868D01*
X496256Y124763D01*
X496060Y124375D01*
X496041Y124340D01*
X495444Y122899D01*
X493951Y121406D01*
X492001Y120598D01*
X489889Y120598D01*
X488677Y121100D01*
X488668Y121103D01*
X488659Y121108D01*
X488432Y121180D01*
X488208Y121252D01*
X488198Y121253D01*
X488189Y121256D01*
X488149Y121260D01*
X487720Y121325D01*
X487589Y121323D01*
X487511Y121332D01*
X478469Y121332D01*
X478355Y121323D01*
X478241Y121324D01*
X478109Y121303D01*
X477977Y121292D01*
X477866Y121265D01*
X477753Y121247D01*
X477627Y121206D01*
X477498Y121174D01*
X477393Y121129D01*
X477285Y121093D01*
X477167Y121031D01*
X477045Y120979D01*
X476949Y120918D01*
X476847Y120865D01*
X476774Y120806D01*
X476629Y120714D01*
X476387Y120498D01*
X476314Y120440D01*
X466983Y111109D01*
X466909Y111022D01*
X466828Y110942D01*
X466750Y110834D01*
X466664Y110733D01*
X466605Y110635D01*
X466538Y110543D01*
X466478Y110424D01*
X466409Y110310D01*
X466367Y110204D01*
X466315Y110102D01*
X466275Y109976D01*
X466226Y109852D01*
X466201Y109741D01*
X466167Y109632D01*
X466157Y109538D01*
X466119Y109371D01*
X466101Y109046D01*
X466091Y108954D01*
X466091Y94515D01*
X466108Y94297D01*
X466122Y94079D01*
X466128Y94051D01*
X466131Y94023D01*
X466183Y93812D01*
X466232Y93598D01*
X466243Y93572D01*
X466249Y93544D01*
X466335Y93344D01*
X466418Y93141D01*
X466433Y93117D01*
X466444Y93091D01*
X466561Y92907D01*
X466675Y92720D01*
X466694Y92699D01*
X466709Y92675D01*
X466854Y92512D01*
X466997Y92346D01*
X467019Y92328D01*
X467038Y92307D01*
X467207Y92170D01*
X467375Y92029D01*
X467396Y92018D01*
X467422Y91997D01*
X467646Y91869D01*
X470778Y88737D01*
X472441Y84723D01*
X472441Y84588D01*
X472444Y84550D01*
X472442Y84512D01*
X472464Y84304D01*
X472481Y84096D01*
X472490Y84059D01*
X472494Y84021D01*
X472549Y83820D01*
X472599Y83617D01*
X472614Y83582D01*
X472625Y83546D01*
X472712Y83356D01*
X472794Y83164D01*
X472814Y83132D01*
X472830Y83097D01*
X472947Y82924D01*
X473059Y82748D01*
X473084Y82720D01*
X473106Y82688D01*
X473249Y82536D01*
X473388Y82380D01*
X473417Y82356D01*
X473444Y82328D01*
X473609Y82201D01*
X473772Y82070D01*
X473805Y82051D01*
X473835Y82028D01*
X474019Y81929D01*
X474200Y81826D01*
X474236Y81813D01*
X474270Y81795D01*
X474467Y81727D01*
X474663Y81655D01*
X474700Y81647D01*
X474736Y81635D01*
X474942Y81600D01*
X475147Y81560D01*
X475185Y81559D01*
X475223Y81552D01*
X475432Y81551D01*
X475640Y81545D01*
X475678Y81549D01*
X475716Y81549D01*
X475923Y81582D01*
X476129Y81609D01*
X476166Y81620D01*
X476203Y81626D01*
X476401Y81691D01*
X476601Y81751D01*
X476636Y81768D01*
X476672Y81780D01*
X476857Y81876D01*
X477045Y81968D01*
X477076Y81990D01*
X477110Y82008D01*
X477182Y82066D01*
X477447Y82254D01*
X477569Y82375D01*
X477643Y82433D01*
X477744Y82535D01*
X520984Y82535D01*
X529743Y73775D01*
X529830Y73701D01*
X529911Y73620D01*
X530018Y73542D01*
X530119Y73456D01*
X530217Y73397D01*
X530309Y73330D01*
X530428Y73270D01*
X530542Y73201D01*
X530648Y73159D01*
X530750Y73107D01*
X530877Y73067D01*
X531000Y73018D01*
X531111Y72993D01*
X531220Y72959D01*
X531314Y72949D01*
X531455Y72917D01*
X532130Y72158D01*
X532210Y72082D01*
X532253Y72028D01*
X533819Y70461D01*
X533906Y70387D01*
X533987Y70306D01*
X534094Y70228D01*
X534195Y70142D01*
X534293Y70083D01*
X534385Y70016D01*
X534504Y69956D01*
X534618Y69887D01*
X534724Y69845D01*
X534826Y69793D01*
X534953Y69753D01*
X535076Y69704D01*
X535187Y69679D01*
X535296Y69645D01*
X535390Y69635D01*
X535558Y69597D01*
X535882Y69579D01*
X535974Y69569D01*
X537504Y69569D01*
X539454Y68761D01*
X540947Y67268D01*
X541755Y65318D01*
X541755Y63206D01*
X540947Y61256D01*
X539454Y59763D01*
X537504Y58955D01*
X535392Y58955D01*
X533442Y59763D01*
X531949Y61256D01*
X531141Y63206D01*
X531141Y63974D01*
X531132Y64088D01*
X531133Y64202D01*
X531112Y64333D01*
X531101Y64466D01*
X531074Y64576D01*
X531056Y64689D01*
X531015Y64815D01*
X530983Y64945D01*
X530938Y65049D01*
X530902Y65158D01*
X530840Y65276D01*
X530788Y65398D01*
X530727Y65494D01*
X530674Y65596D01*
X530615Y65669D01*
X530523Y65814D01*
X530307Y66056D01*
X530249Y66129D01*
X519785Y76593D01*
X519698Y76667D01*
X519617Y76748D01*
X519510Y76826D01*
X519409Y76912D01*
X519311Y76971D01*
X519219Y77038D01*
X519100Y77098D01*
X518986Y77167D01*
X518880Y77209D01*
X518778Y77261D01*
X518651Y77301D01*
X518528Y77350D01*
X518417Y77375D01*
X518308Y77409D01*
X518214Y77419D01*
X518046Y77457D01*
X517722Y77475D01*
X517630Y77485D01*
X494906Y77485D01*
X494868Y77482D01*
X494830Y77484D01*
X494622Y77462D01*
X494415Y77445D01*
X494378Y77436D01*
X494340Y77432D01*
X494139Y77377D01*
X493936Y77327D01*
X493901Y77312D01*
X493864Y77301D01*
X493675Y77215D01*
X493482Y77132D01*
X493450Y77112D01*
X493416Y77096D01*
X493242Y76979D01*
X493066Y76867D01*
X493038Y76842D01*
X493006Y76820D01*
X492854Y76677D01*
X492698Y76538D01*
X492674Y76509D01*
X492647Y76482D01*
X492519Y76317D01*
X492388Y76154D01*
X492370Y76121D01*
X492346Y76091D01*
X492248Y75907D01*
X492144Y75726D01*
X492131Y75690D01*
X492113Y75656D01*
X492045Y75458D01*
X491973Y75263D01*
X491966Y75226D01*
X491953Y75190D01*
X491918Y74983D01*
X491878Y74779D01*
X491877Y74741D01*
X491871Y74703D01*
X491869Y74494D01*
X491863Y74286D01*
X491868Y74248D01*
X491868Y74210D01*
X491900Y74003D01*
X491927Y73797D01*
X491938Y73760D01*
X491944Y73723D01*
X492009Y73525D01*
X492070Y73325D01*
X492087Y73290D01*
X492098Y73254D01*
X492195Y73069D01*
X492287Y72881D01*
X492309Y72850D01*
X492326Y72816D01*
X492384Y72744D01*
X492572Y72479D01*
X492693Y72357D01*
X492752Y72283D01*
X493449Y71586D01*
X494257Y69636D01*
X494257Y67524D01*
X493501Y65699D01*
X493498Y65690D01*
X493493Y65681D01*
X493421Y65451D01*
X493349Y65230D01*
X493348Y65220D01*
X493345Y65211D01*
X493341Y65170D01*
X493276Y64742D01*
X493278Y64611D01*
X493269Y64533D01*
X493269Y54994D01*
X493278Y54881D01*
X493277Y54766D01*
X493298Y54635D01*
X493309Y54503D01*
X493336Y54392D01*
X493354Y54279D01*
X493395Y54153D01*
X493427Y54024D01*
X493472Y53919D01*
X493508Y53810D01*
X493570Y53692D01*
X493622Y53570D01*
X493683Y53474D01*
X493736Y53373D01*
X493795Y53299D01*
X493887Y53154D01*
X494103Y52912D01*
X494161Y52840D01*
X494211Y52790D01*
X495019Y50840D01*
X495019Y48728D01*
X494211Y46778D01*
X492718Y45285D01*
X490768Y44477D01*
X488656Y44477D01*
X486706Y45285D01*
X485213Y46778D01*
X484405Y48728D01*
X484405Y50840D01*
X485213Y52790D01*
X485263Y52840D01*
X485337Y52927D01*
X485418Y53007D01*
X485496Y53114D01*
X485582Y53216D01*
X485641Y53313D01*
X485708Y53406D01*
X485768Y53524D01*
X485837Y53638D01*
X485879Y53744D01*
X485931Y53846D01*
X485971Y53973D01*
X486020Y54096D01*
X486045Y54208D01*
X486079Y54317D01*
X486089Y54410D01*
X486127Y54578D01*
X486145Y54902D01*
X486155Y54994D01*
X486155Y62608D01*
X486146Y62721D01*
X486147Y62836D01*
X486126Y62967D01*
X486115Y63099D01*
X486088Y63210D01*
X486070Y63323D01*
X486029Y63449D01*
X485997Y63578D01*
X485952Y63683D01*
X485916Y63792D01*
X485854Y63910D01*
X485802Y64032D01*
X485741Y64128D01*
X485688Y64229D01*
X485629Y64303D01*
X485537Y64448D01*
X485321Y64690D01*
X485263Y64762D01*
X484451Y65574D01*
X483643Y67524D01*
X483643Y69636D01*
X484451Y71586D01*
X485148Y72283D01*
X485173Y72312D01*
X485202Y72338D01*
X485333Y72500D01*
X485468Y72659D01*
X485488Y72692D01*
X485512Y72722D01*
X485615Y72903D01*
X485722Y73082D01*
X485737Y73117D01*
X485756Y73150D01*
X485828Y73346D01*
X485906Y73540D01*
X485914Y73577D01*
X485927Y73613D01*
X485967Y73817D01*
X486012Y74021D01*
X486015Y74060D01*
X486022Y74097D01*
X486028Y74305D01*
X486040Y74514D01*
X486036Y74552D01*
X486037Y74590D01*
X486010Y74796D01*
X485988Y75005D01*
X485978Y75041D01*
X485973Y75079D01*
X485912Y75279D01*
X485857Y75480D01*
X485841Y75515D01*
X485830Y75552D01*
X485738Y75739D01*
X485651Y75929D01*
X485630Y75960D01*
X485613Y75995D01*
X485493Y76165D01*
X485376Y76338D01*
X485350Y76366D01*
X485328Y76397D01*
X485181Y76545D01*
X485038Y76698D01*
X485008Y76721D01*
X484981Y76748D01*
X484813Y76871D01*
X484647Y76998D01*
X484613Y77016D01*
X484582Y77038D01*
X484396Y77132D01*
X484212Y77231D01*
X484176Y77243D01*
X484142Y77261D01*
X483942Y77324D01*
X483745Y77391D01*
X483708Y77397D01*
X483671Y77409D01*
X483579Y77419D01*
X483259Y77474D01*
X483087Y77475D01*
X482994Y77485D01*
X481098Y77485D01*
X480984Y77476D01*
X480870Y77477D01*
X480739Y77456D01*
X480606Y77445D01*
X480496Y77418D01*
X480383Y77400D01*
X480256Y77359D01*
X480127Y77327D01*
X480023Y77282D01*
X479914Y77246D01*
X479796Y77184D01*
X479674Y77132D01*
X479578Y77071D01*
X479476Y77018D01*
X479403Y76959D01*
X479258Y76867D01*
X479016Y76651D01*
X478943Y76593D01*
X472555Y70205D01*
X470388Y68037D01*
X470338Y67979D01*
X470283Y67927D01*
X470179Y67791D01*
X470068Y67661D01*
X470029Y67596D01*
X469982Y67535D01*
X469902Y67385D01*
X469813Y67239D01*
X469785Y67168D01*
X469749Y67101D01*
X469694Y66939D01*
X469630Y66780D01*
X469614Y66706D01*
X469589Y66634D01*
X469561Y66466D01*
X469524Y66299D01*
X469519Y66223D01*
X469507Y66148D01*
X469506Y65977D01*
X469496Y65806D01*
X469504Y65730D01*
X469504Y65654D01*
X469530Y65486D01*
X469548Y65316D01*
X469568Y65242D01*
X469580Y65167D01*
X469634Y65004D01*
X469679Y64840D01*
X469711Y64771D01*
X469734Y64698D01*
X469813Y64546D01*
X469885Y64392D01*
X469927Y64328D01*
X469962Y64261D01*
X470028Y64178D01*
X470160Y63982D01*
X470322Y63810D01*
X470388Y63727D01*
X470778Y63337D01*
X472441Y59323D01*
X472441Y54977D01*
X470778Y50963D01*
X467705Y47890D01*
X463691Y46227D01*
X459345Y46227D01*
X455331Y47890D01*
X452258Y50963D01*
X451633Y52471D01*
X451616Y52505D01*
X451603Y52541D01*
X451504Y52724D01*
X451408Y52910D01*
X451386Y52941D01*
X451367Y52975D01*
X451239Y53140D01*
X451115Y53307D01*
X451088Y53334D01*
X451065Y53364D01*
X450912Y53506D01*
X450762Y53652D01*
X450731Y53674D01*
X450703Y53700D01*
X450529Y53815D01*
X450358Y53935D01*
X450324Y53951D01*
X450292Y53972D01*
X450102Y54058D01*
X449914Y54149D01*
X449877Y54160D01*
X449842Y54175D01*
X449641Y54229D01*
X449440Y54288D01*
X449402Y54293D01*
X449366Y54303D01*
X449158Y54324D01*
X448951Y54350D01*
X448913Y54348D01*
X448875Y54352D01*
X448666Y54339D01*
X448458Y54331D01*
X448420Y54324D01*
X448382Y54321D01*
X448179Y54275D01*
X447974Y54233D01*
X447939Y54220D01*
X447901Y54211D01*
X447708Y54133D01*
X447513Y54059D01*
X447480Y54040D01*
X447445Y54025D01*
X447266Y53916D01*
X447086Y53812D01*
X447056Y53788D01*
X447024Y53768D01*
X446865Y53632D01*
X446704Y53500D01*
X446679Y53471D01*
X446650Y53446D01*
X446516Y53287D01*
X446377Y53130D01*
X446357Y53097D01*
X446333Y53068D01*
X446288Y52987D01*
X446115Y52712D01*
X446048Y52553D01*
X446003Y52471D01*
X445378Y50963D01*
X442305Y47890D01*
X438291Y46227D01*
X433945Y46227D01*
X429931Y47890D01*
X426858Y50963D01*
X426233Y52471D01*
X426216Y52505D01*
X426203Y52541D01*
X426104Y52724D01*
X426008Y52910D01*
X425986Y52941D01*
X425967Y52975D01*
X425839Y53140D01*
X425715Y53307D01*
X425688Y53334D01*
X425665Y53364D01*
X425512Y53506D01*
X425362Y53652D01*
X425331Y53674D01*
X425303Y53700D01*
X425129Y53815D01*
X424958Y53935D01*
X424924Y53951D01*
X424892Y53972D01*
X424702Y54058D01*
X424514Y54149D01*
X424477Y54160D01*
X424442Y54175D01*
X424241Y54229D01*
X424040Y54288D01*
X424002Y54293D01*
X423966Y54303D01*
X423758Y54324D01*
X423551Y54350D01*
X423513Y54348D01*
X423475Y54352D01*
X423266Y54339D01*
X423058Y54331D01*
X423020Y54324D01*
X422982Y54321D01*
X422779Y54275D01*
X422574Y54233D01*
X422539Y54220D01*
X422501Y54211D01*
X422308Y54133D01*
X422113Y54059D01*
X422080Y54040D01*
X422045Y54025D01*
X421866Y53916D01*
X421686Y53812D01*
X421656Y53788D01*
X421624Y53768D01*
X421465Y53632D01*
X421304Y53500D01*
X421279Y53471D01*
X421250Y53446D01*
X421116Y53287D01*
X420977Y53130D01*
X420957Y53097D01*
X420933Y53068D01*
X420888Y52987D01*
X420715Y52712D01*
X420648Y52553D01*
X420603Y52471D01*
X419978Y50963D01*
X416905Y47890D01*
X412891Y46227D01*
X408545Y46227D01*
X404531Y47890D01*
X401458Y50963D01*
X401345Y51236D01*
X401270Y51383D01*
X401202Y51534D01*
X401157Y51602D01*
X401120Y51675D01*
X401022Y51808D01*
X400931Y51946D01*
X400875Y52006D01*
X400827Y52072D01*
X400709Y52187D01*
X400597Y52309D01*
X400532Y52359D01*
X400474Y52416D01*
X400338Y52511D01*
X400208Y52613D01*
X400137Y52653D01*
X400070Y52699D01*
X399920Y52771D01*
X399776Y52851D01*
X399699Y52878D01*
X399625Y52913D01*
X399467Y52960D01*
X399311Y53015D01*
X399230Y53030D01*
X399152Y53053D01*
X398988Y53074D01*
X398825Y53103D01*
X398744Y53104D01*
X398662Y53114D01*
X398497Y53108D01*
X398332Y53111D01*
X398251Y53099D01*
X398169Y53096D01*
X398007Y53063D01*
X397844Y53039D01*
X397766Y53014D01*
X397686Y52998D01*
X397532Y52940D01*
X397374Y52889D01*
X397301Y52852D01*
X397224Y52824D01*
X397081Y52741D01*
X396934Y52666D01*
X396868Y52618D01*
X396797Y52577D01*
X396670Y52472D01*
X396536Y52374D01*
X396479Y52316D01*
X396415Y52264D01*
X396306Y52141D01*
X396190Y52022D01*
X396155Y51969D01*
X396089Y51894D01*
X395827Y51477D01*
X395821Y51463D01*
X395815Y51453D01*
X395529Y50893D01*
X394424Y49372D01*
X393096Y48044D01*
X391575Y46939D01*
X389901Y46086D01*
X388365Y45587D01*
X388365Y57150D01*
X388359Y57226D01*
X388362Y57302D01*
X388339Y57471D01*
X388325Y57641D01*
X388307Y57715D01*
X388297Y57791D01*
X388248Y57955D01*
X388207Y58120D01*
X388177Y58190D01*
X388155Y58263D01*
X388080Y58417D01*
X388012Y58574D01*
X387971Y58638D01*
X387938Y58706D01*
X387839Y58846D01*
X387747Y58990D01*
X387696Y59046D01*
X387652Y59109D01*
X387532Y59230D01*
X387418Y59358D01*
X387359Y59405D01*
X387306Y59460D01*
X387167Y59560D01*
X387035Y59667D01*
X386968Y59705D01*
X386907Y59750D01*
X386754Y59827D01*
X386606Y59911D01*
X386534Y59938D01*
X386466Y59972D01*
X386304Y60024D01*
X386143Y60083D01*
X386069Y60098D01*
X385996Y60121D01*
X385891Y60132D01*
X385659Y60178D01*
X385423Y60185D01*
X385318Y60197D01*
X385242Y60191D01*
X385166Y60193D01*
X384996Y60171D01*
X384826Y60157D01*
X384752Y60139D01*
X384677Y60129D01*
X384513Y60079D01*
X384347Y60038D01*
X384277Y60008D01*
X384204Y59986D01*
X384051Y59911D01*
X383894Y59844D01*
X383830Y59803D01*
X383761Y59769D01*
X383622Y59670D01*
X383478Y59579D01*
X383421Y59528D01*
X383359Y59484D01*
X383237Y59364D01*
X383110Y59250D01*
X383062Y59191D01*
X383008Y59137D01*
X382907Y58999D01*
X382800Y58866D01*
X382762Y58800D01*
X382717Y58738D01*
X382641Y58586D01*
X382556Y58437D01*
X382529Y58366D01*
X382495Y58298D01*
X382444Y58135D01*
X382384Y57975D01*
X382370Y57900D01*
X382347Y57827D01*
X382335Y57723D01*
X382290Y57491D01*
X382282Y57255D01*
X382271Y57150D01*
X382271Y45587D01*
X380735Y46086D01*
X379061Y46939D01*
X377540Y48044D01*
X376212Y49372D01*
X375107Y50893D01*
X374821Y51453D01*
X374735Y51594D01*
X374656Y51739D01*
X374606Y51804D01*
X374563Y51873D01*
X374454Y51999D01*
X374353Y52129D01*
X374293Y52184D01*
X374240Y52246D01*
X374112Y52352D01*
X373991Y52464D01*
X373923Y52509D01*
X373860Y52562D01*
X373718Y52646D01*
X373580Y52737D01*
X373506Y52771D01*
X373435Y52812D01*
X373281Y52872D01*
X373130Y52940D01*
X373052Y52961D01*
X372975Y52991D01*
X372813Y53025D01*
X372654Y53068D01*
X372573Y53076D01*
X372493Y53093D01*
X372327Y53100D01*
X372163Y53117D01*
X372082Y53112D01*
X372000Y53115D01*
X371835Y53096D01*
X371671Y53086D01*
X371591Y53068D01*
X371510Y53058D01*
X371351Y53013D01*
X371190Y52976D01*
X371114Y52945D01*
X371036Y52923D01*
X370886Y52852D01*
X370733Y52790D01*
X370663Y52747D01*
X370589Y52713D01*
X370453Y52619D01*
X370312Y52533D01*
X370250Y52480D01*
X370183Y52433D01*
X370063Y52319D01*
X369938Y52211D01*
X369885Y52148D01*
X369827Y52092D01*
X369727Y51960D01*
X369621Y51833D01*
X369590Y51777D01*
X369530Y51697D01*
X369301Y51260D01*
X369296Y51246D01*
X369291Y51236D01*
X369178Y50963D01*
X366105Y47890D01*
X362091Y46227D01*
X357745Y46227D01*
X353731Y47890D01*
X350658Y50963D01*
X348995Y54977D01*
X348995Y59323D01*
X350658Y63337D01*
X353731Y66410D01*
X355239Y67035D01*
X355273Y67052D01*
X355309Y67065D01*
X355493Y67165D01*
X355678Y67260D01*
X355709Y67282D01*
X355743Y67301D01*
X355907Y67429D01*
X356075Y67553D01*
X356102Y67580D01*
X356132Y67603D01*
X356274Y67757D01*
X356420Y67906D01*
X356442Y67937D01*
X356468Y67965D01*
X356583Y68139D01*
X356703Y68310D01*
X356719Y68344D01*
X356740Y68376D01*
X356826Y68567D01*
X356917Y68755D01*
X356927Y68791D01*
X356943Y68826D01*
X356997Y69028D01*
X357056Y69228D01*
X357061Y69266D01*
X357071Y69302D01*
X357092Y69510D01*
X357118Y69717D01*
X357116Y69755D01*
X357120Y69793D01*
X357107Y70002D01*
X357099Y70210D01*
X357092Y70248D01*
X357089Y70286D01*
X357043Y70489D01*
X357001Y70694D01*
X356988Y70729D01*
X356979Y70767D01*
X356901Y70960D01*
X356827Y71155D01*
X356808Y71188D01*
X356793Y71224D01*
X356685Y71401D01*
X356580Y71582D01*
X356556Y71612D01*
X356536Y71644D01*
X356400Y71803D01*
X356268Y71964D01*
X356239Y71990D01*
X356214Y72018D01*
X356054Y72153D01*
X355898Y72291D01*
X355866Y72311D01*
X355836Y72335D01*
X355755Y72380D01*
X355480Y72553D01*
X355322Y72620D01*
X355239Y72665D01*
X353731Y73290D01*
X350658Y76363D01*
X348995Y80377D01*
X348995Y84723D01*
X350658Y88737D01*
X353546Y91625D01*
X353571Y91654D01*
X353599Y91680D01*
X353730Y91842D01*
X353866Y92001D01*
X353885Y92034D01*
X353909Y92064D01*
X354012Y92245D01*
X354120Y92424D01*
X354134Y92459D01*
X354153Y92492D01*
X354226Y92688D01*
X354303Y92882D01*
X354312Y92919D01*
X354325Y92955D01*
X354365Y93160D01*
X354410Y93364D01*
X354412Y93402D01*
X354420Y93439D01*
X354426Y93647D01*
X354438Y93856D01*
X354434Y93894D01*
X354435Y93932D01*
X354408Y94139D01*
X354386Y94347D01*
X354376Y94383D01*
X354371Y94421D01*
X354310Y94621D01*
X354255Y94822D01*
X354239Y94857D01*
X354228Y94894D01*
X354136Y95081D01*
X354049Y95271D01*
X354028Y95302D01*
X354011Y95337D01*
X353891Y95507D01*
X353774Y95680D01*
X353748Y95708D01*
X353726Y95739D01*
X353579Y95888D01*
X353436Y96040D01*
X353406Y96063D01*
X353379Y96090D01*
X353210Y96213D01*
X353045Y96340D01*
X353011Y96358D01*
X352980Y96380D01*
X352794Y96474D01*
X352610Y96573D01*
X352574Y96586D01*
X352540Y96603D01*
X352341Y96665D01*
X352143Y96733D01*
X352106Y96739D01*
X352069Y96751D01*
X351977Y96761D01*
X351657Y96816D01*
X351485Y96817D01*
X351392Y96827D01*
X339044Y96827D01*
X338930Y96818D01*
X338816Y96819D01*
X338684Y96798D01*
X338552Y96787D01*
X338441Y96760D01*
X338328Y96742D01*
X338202Y96701D01*
X338073Y96669D01*
X337968Y96624D01*
X337860Y96588D01*
X337742Y96526D01*
X337620Y96474D01*
X337524Y96413D01*
X337422Y96360D01*
X337349Y96301D01*
X337204Y96209D01*
X336962Y95993D01*
X336889Y95935D01*
X283344Y42390D01*
X283319Y42361D01*
X283291Y42335D01*
X283160Y42173D01*
X283025Y42014D01*
X283005Y41981D01*
X282981Y41951D01*
X282878Y41771D01*
X282770Y41591D01*
X282756Y41556D01*
X282737Y41523D01*
X282664Y41327D01*
X282587Y41133D01*
X282579Y41096D01*
X282565Y41060D01*
X282525Y40855D01*
X282480Y40651D01*
X282478Y40613D01*
X282471Y40576D01*
X282464Y40368D01*
X282452Y40159D01*
X282457Y40121D01*
X282455Y40083D01*
X282483Y39876D01*
X282505Y39668D01*
X282515Y39632D01*
X282520Y39594D01*
X282580Y39394D01*
X282635Y39193D01*
X282651Y39158D01*
X282662Y39121D01*
X282754Y38934D01*
X282841Y38744D01*
X282862Y38712D01*
X282879Y38678D01*
X283000Y38508D01*
X283116Y38335D01*
X283143Y38307D01*
X283165Y38276D01*
X283311Y38127D01*
X283454Y37975D01*
X283485Y37952D01*
X283511Y37925D01*
X283680Y37802D01*
X283846Y37675D01*
X283879Y37657D01*
X283910Y37635D01*
X284096Y37541D01*
X284280Y37442D01*
X284317Y37430D01*
X284351Y37412D01*
X284549Y37350D01*
X284747Y37282D01*
X284785Y37276D01*
X284821Y37264D01*
X284913Y37254D01*
X285233Y37199D01*
X285405Y37198D01*
X285499Y37188D01*
X732656Y37188D01*
X732666Y37189D01*
X732676Y37188D01*
X732913Y37209D01*
X733148Y37228D01*
X733157Y37230D01*
X733167Y37231D01*
X733206Y37242D01*
X733281Y37261D01*
X735584Y37261D01*
X735660Y37267D01*
X735736Y37265D01*
X735905Y37287D01*
X736076Y37301D01*
X736150Y37319D01*
X736225Y37329D01*
X736389Y37378D01*
X736555Y37419D01*
X736624Y37449D01*
X736698Y37471D01*
X736851Y37547D01*
X737008Y37614D01*
X737072Y37655D01*
X737141Y37688D01*
X737280Y37787D01*
X737424Y37879D01*
X737481Y37930D01*
X737543Y37974D01*
X737664Y38094D01*
X737792Y38208D01*
X737840Y38267D01*
X737894Y38321D01*
X737995Y38459D01*
X738102Y38592D01*
X738139Y38658D01*
X738184Y38719D01*
X738261Y38872D01*
X738346Y39020D01*
X738372Y39092D01*
X738407Y39160D01*
X738458Y39323D01*
X738517Y39483D01*
X738532Y39558D01*
X738555Y39630D01*
X738567Y39735D01*
X738612Y39967D01*
X738619Y40203D01*
X738631Y40308D01*
X738631Y98088D01*
X739637Y100515D01*
X749368Y110247D01*
X751267Y112145D01*
X751292Y112174D01*
X751320Y112200D01*
X751451Y112362D01*
X751586Y112521D01*
X751606Y112554D01*
X751630Y112584D01*
X751733Y112765D01*
X751841Y112944D01*
X751855Y112979D01*
X751874Y113012D01*
X751947Y113208D01*
X752024Y113402D01*
X752032Y113439D01*
X752045Y113475D01*
X752085Y113679D01*
X752131Y113883D01*
X752133Y113922D01*
X752140Y113959D01*
X752147Y114167D01*
X752158Y114376D01*
X752154Y114414D01*
X752156Y114452D01*
X752128Y114659D01*
X752106Y114867D01*
X752096Y114903D01*
X752091Y114941D01*
X752031Y115142D01*
X751976Y115342D01*
X751960Y115377D01*
X751949Y115414D01*
X751857Y115601D01*
X751770Y115791D01*
X751748Y115822D01*
X751732Y115857D01*
X751611Y116027D01*
X751494Y116200D01*
X751468Y116228D01*
X751446Y116259D01*
X751300Y116407D01*
X751157Y116560D01*
X751126Y116583D01*
X751100Y116610D01*
X750931Y116733D01*
X750765Y116860D01*
X750732Y116878D01*
X750701Y116900D01*
X750514Y116994D01*
X750330Y117093D01*
X750294Y117105D01*
X750260Y117123D01*
X750061Y117186D01*
X749864Y117253D01*
X749826Y117259D01*
X749790Y117271D01*
X749697Y117281D01*
X749377Y117336D01*
X749205Y117337D01*
X749112Y117347D01*
X741335Y117347D01*
X740214Y117811D01*
X714010Y144016D01*
X713843Y144158D01*
X713679Y144302D01*
X713655Y144317D01*
X713634Y144336D01*
X713446Y144449D01*
X713262Y144564D01*
X713235Y144575D01*
X713211Y144590D01*
X713008Y144671D01*
X712807Y144756D01*
X712779Y144763D01*
X712753Y144773D01*
X712539Y144821D01*
X712327Y144872D01*
X712299Y144874D01*
X712271Y144880D01*
X712052Y144892D01*
X711835Y144909D01*
X711807Y144906D01*
X711779Y144908D01*
X711562Y144885D01*
X711344Y144865D01*
X711321Y144859D01*
X711288Y144855D01*
X711011Y144779D01*
X707400Y144779D01*
X706016Y145352D01*
X705844Y145408D01*
X705675Y145470D01*
X705610Y145483D01*
X705547Y145504D01*
X705368Y145531D01*
X705191Y145565D01*
X705125Y145567D01*
X705059Y145577D01*
X704878Y145575D01*
X704698Y145580D01*
X704632Y145572D01*
X704565Y145571D01*
X704388Y145540D01*
X704209Y145516D01*
X704145Y145497D01*
X704080Y145485D01*
X703909Y145426D01*
X703736Y145374D01*
X703677Y145344D01*
X703614Y145322D01*
X703456Y145236D01*
X703293Y145157D01*
X703239Y145118D01*
X703181Y145086D01*
X703038Y144976D01*
X702891Y144871D01*
X702844Y144824D01*
X702791Y144784D01*
X702669Y144651D01*
X702540Y144524D01*
X702501Y144471D01*
X702456Y144422D01*
X702356Y144271D01*
X702250Y144126D01*
X702220Y144066D01*
X702183Y144011D01*
X702109Y143846D01*
X702027Y143685D01*
X702007Y143622D01*
X701980Y143561D01*
X701933Y143387D01*
X701879Y143215D01*
X701873Y143162D01*
X701852Y143085D01*
X701803Y142594D01*
X701805Y142560D01*
X701803Y142537D01*
X701803Y91298D01*
X676453Y65949D01*
X676345Y65949D01*
X676165Y65934D01*
X675985Y65927D01*
X675920Y65914D01*
X675854Y65909D01*
X675678Y65865D01*
X675501Y65830D01*
X675439Y65806D01*
X675375Y65790D01*
X675209Y65719D01*
X675040Y65655D01*
X674982Y65622D01*
X674921Y65596D01*
X674769Y65499D01*
X674613Y65408D01*
X674561Y65366D01*
X674505Y65331D01*
X674371Y65210D01*
X674231Y65096D01*
X674187Y65046D01*
X674137Y65002D01*
X674024Y64861D01*
X673905Y64726D01*
X673869Y64670D01*
X673827Y64618D01*
X673738Y64461D01*
X673642Y64308D01*
X673616Y64247D01*
X673583Y64189D01*
X673521Y64020D01*
X673451Y63854D01*
X673435Y63789D01*
X673412Y63727D01*
X673377Y63549D01*
X673335Y63374D01*
X673330Y63308D01*
X673317Y63243D01*
X673312Y63062D01*
X673298Y62882D01*
X673304Y62816D01*
X673302Y62749D01*
X673325Y62571D01*
X673341Y62391D01*
X673356Y62340D01*
X673366Y62260D01*
X673509Y61788D01*
X673523Y61758D01*
X673530Y61735D01*
X673835Y61000D01*
X673835Y58888D01*
X673027Y56938D01*
X671534Y55445D01*
X669584Y54637D01*
X667472Y54637D01*
X665522Y55445D01*
X664710Y56257D01*
X664623Y56331D01*
X664543Y56412D01*
X664436Y56490D01*
X664334Y56576D01*
X664237Y56635D01*
X664144Y56702D01*
X664026Y56762D01*
X663912Y56831D01*
X663806Y56873D01*
X663704Y56925D01*
X663577Y56965D01*
X663454Y57014D01*
X663342Y57039D01*
X663233Y57073D01*
X663140Y57083D01*
X662972Y57121D01*
X662648Y57139D01*
X662556Y57149D01*
X658912Y57149D01*
X658798Y57140D01*
X658684Y57141D01*
X658552Y57120D01*
X658420Y57109D01*
X658309Y57082D01*
X658196Y57064D01*
X658070Y57023D01*
X657941Y56991D01*
X657836Y56946D01*
X657728Y56910D01*
X657610Y56848D01*
X657488Y56796D01*
X657392Y56735D01*
X657290Y56682D01*
X657217Y56623D01*
X657072Y56531D01*
X656942Y56415D01*
X645498Y56415D01*
X642835Y59079D01*
X642748Y59153D01*
X642668Y59234D01*
X642560Y59312D01*
X642459Y59398D01*
X642361Y59457D01*
X642269Y59524D01*
X642150Y59584D01*
X642036Y59653D01*
X641930Y59695D01*
X641828Y59747D01*
X641702Y59787D01*
X641578Y59836D01*
X641467Y59861D01*
X641358Y59895D01*
X641264Y59905D01*
X641097Y59943D01*
X640772Y59961D01*
X640680Y59971D01*
X639532Y59971D01*
X637582Y60779D01*
X636089Y62272D01*
X635587Y63484D01*
X635583Y63493D01*
X635580Y63502D01*
X635470Y63712D01*
X635362Y63923D01*
X635356Y63931D01*
X635352Y63939D01*
X635327Y63971D01*
X635069Y64320D01*
X634975Y64411D01*
X634927Y64473D01*
X633109Y66290D01*
X633022Y66364D01*
X632942Y66445D01*
X632835Y66523D01*
X632733Y66609D01*
X632636Y66668D01*
X632543Y66735D01*
X632425Y66795D01*
X632311Y66864D01*
X632205Y66906D01*
X632103Y66958D01*
X631976Y66998D01*
X631853Y67047D01*
X631742Y67072D01*
X631632Y67106D01*
X631539Y67116D01*
X631371Y67154D01*
X631047Y67172D01*
X630955Y67182D01*
X617225Y67182D01*
X617215Y67181D01*
X617205Y67182D01*
X616970Y67162D01*
X616733Y67142D01*
X616724Y67140D01*
X616714Y67139D01*
X616676Y67128D01*
X616254Y67024D01*
X616134Y66972D01*
X616059Y66950D01*
X614847Y66448D01*
X612735Y66448D01*
X610785Y67256D01*
X609292Y68749D01*
X608484Y70699D01*
X608484Y72811D01*
X609292Y74761D01*
X610785Y76254D01*
X612735Y77062D01*
X614847Y77062D01*
X616059Y76560D01*
X616068Y76557D01*
X616077Y76552D01*
X616304Y76480D01*
X616528Y76408D01*
X616538Y76407D01*
X616547Y76404D01*
X616587Y76400D01*
X617016Y76335D01*
X617147Y76337D01*
X617225Y76328D01*
X635021Y76328D01*
X636701Y75632D01*
X641393Y70939D01*
X641401Y70933D01*
X641407Y70926D01*
X641590Y70773D01*
X641769Y70620D01*
X641778Y70615D01*
X641785Y70609D01*
X641820Y70589D01*
X642192Y70365D01*
X642313Y70317D01*
X642382Y70279D01*
X643594Y69777D01*
X644402Y68969D01*
X644460Y68919D01*
X644512Y68864D01*
X644648Y68760D01*
X644778Y68649D01*
X644843Y68610D01*
X644904Y68563D01*
X645054Y68483D01*
X645201Y68395D01*
X645272Y68366D01*
X645339Y68330D01*
X645500Y68275D01*
X645659Y68211D01*
X645733Y68195D01*
X645805Y68170D01*
X645974Y68142D01*
X646140Y68105D01*
X646217Y68100D01*
X646292Y68088D01*
X646462Y68087D01*
X646633Y68077D01*
X646709Y68085D01*
X646785Y68085D01*
X646954Y68111D01*
X647124Y68129D01*
X647197Y68149D01*
X647272Y68161D01*
X647435Y68215D01*
X647599Y68260D01*
X647668Y68292D01*
X647741Y68315D01*
X647893Y68394D01*
X648048Y68466D01*
X648111Y68508D01*
X648179Y68543D01*
X648261Y68609D01*
X648457Y68741D01*
X648629Y68903D01*
X648712Y68969D01*
X650028Y70285D01*
X651978Y71093D01*
X653126Y71093D01*
X653240Y71102D01*
X653354Y71101D01*
X653486Y71122D01*
X653618Y71133D01*
X653729Y71160D01*
X653842Y71178D01*
X653968Y71219D01*
X654097Y71251D01*
X654202Y71296D01*
X654310Y71332D01*
X654428Y71394D01*
X654550Y71446D01*
X654646Y71507D01*
X654706Y71538D01*
X672876Y71538D01*
X672989Y71547D01*
X673104Y71547D01*
X673235Y71567D01*
X673367Y71578D01*
X673478Y71606D01*
X673591Y71623D01*
X673717Y71665D01*
X673846Y71697D01*
X673951Y71742D01*
X674060Y71778D01*
X674178Y71839D01*
X674300Y71891D01*
X674396Y71953D01*
X674497Y72005D01*
X674571Y72064D01*
X674716Y72156D01*
X674958Y72373D01*
X675030Y72431D01*
X695321Y92721D01*
X695395Y92808D01*
X695476Y92888D01*
X695554Y92996D01*
X695640Y93097D01*
X695699Y93195D01*
X695766Y93287D01*
X695826Y93406D01*
X695895Y93520D01*
X695937Y93626D01*
X695989Y93728D01*
X696029Y93854D01*
X696078Y93978D01*
X696103Y94089D01*
X696137Y94198D01*
X696147Y94292D01*
X696185Y94459D01*
X696203Y94784D01*
X696213Y94876D01*
X696213Y146185D01*
X696210Y146223D01*
X696212Y146261D01*
X696190Y146469D01*
X696173Y146677D01*
X696164Y146714D01*
X696160Y146752D01*
X696105Y146953D01*
X696055Y147156D01*
X696040Y147191D01*
X696029Y147228D01*
X695942Y147417D01*
X695860Y147609D01*
X695840Y147641D01*
X695824Y147676D01*
X695707Y147849D01*
X695595Y148025D01*
X695570Y148054D01*
X695548Y148085D01*
X695405Y148238D01*
X695266Y148393D01*
X695237Y148417D01*
X695211Y148445D01*
X695044Y148572D01*
X694882Y148703D01*
X694850Y148722D01*
X694819Y148745D01*
X694635Y148844D01*
X694454Y148947D01*
X694418Y148960D01*
X694384Y148978D01*
X694187Y149046D01*
X693991Y149119D01*
X693954Y149126D01*
X693918Y149138D01*
X693711Y149173D01*
X693507Y149213D01*
X693469Y149214D01*
X693431Y149221D01*
X693222Y149222D01*
X693014Y149229D01*
X692976Y149224D01*
X692938Y149224D01*
X692731Y149191D01*
X692525Y149164D01*
X692488Y149153D01*
X692451Y149147D01*
X692252Y149082D01*
X692053Y149022D01*
X692018Y149005D01*
X691982Y148993D01*
X691797Y148896D01*
X691609Y148805D01*
X691578Y148783D01*
X691544Y148765D01*
X691472Y148707D01*
X691207Y148519D01*
X691085Y148399D01*
X691011Y148340D01*
X688804Y146133D01*
X685537Y144779D01*
X681999Y144779D01*
X678732Y146133D01*
X676231Y148634D01*
X674877Y151901D01*
X674877Y155439D01*
X676231Y158706D01*
X678732Y161207D01*
X681999Y162561D01*
X685537Y162561D01*
X688804Y161207D01*
X691440Y158572D01*
X691498Y158523D01*
X691550Y158467D01*
X691685Y158363D01*
X691816Y158252D01*
X691881Y158213D01*
X691941Y158167D01*
X692092Y158086D01*
X692238Y157998D01*
X692309Y157969D01*
X692376Y157933D01*
X692538Y157878D01*
X692696Y157815D01*
X692770Y157798D01*
X692843Y157773D01*
X693011Y157745D01*
X693178Y157708D01*
X693254Y157704D01*
X693329Y157691D01*
X693500Y157690D01*
X693670Y157680D01*
X693746Y157688D01*
X693822Y157688D01*
X693991Y157714D01*
X694161Y157732D01*
X694234Y157753D01*
X694310Y157764D01*
X694472Y157818D01*
X694637Y157863D01*
X694706Y157895D01*
X694778Y157919D01*
X694930Y157998D01*
X695085Y158069D01*
X695148Y158111D01*
X695216Y158147D01*
X695298Y158212D01*
X695494Y158344D01*
X695667Y158506D01*
X695749Y158572D01*
X698743Y161566D01*
X701272Y164095D01*
X703802Y166625D01*
X721760Y166625D01*
X721798Y166628D01*
X721836Y166626D01*
X722044Y166648D01*
X722251Y166665D01*
X722288Y166674D01*
X722326Y166678D01*
X722528Y166733D01*
X722730Y166783D01*
X722765Y166798D01*
X722802Y166809D01*
X722992Y166896D01*
X723184Y166978D01*
X723216Y166998D01*
X723251Y167014D01*
X723424Y167131D01*
X723600Y167243D01*
X723628Y167268D01*
X723660Y167290D01*
X723812Y167433D01*
X723968Y167572D01*
X723992Y167601D01*
X724019Y167628D01*
X724147Y167794D01*
X724278Y167956D01*
X724296Y167989D01*
X724320Y168019D01*
X724419Y168203D01*
X724522Y168384D01*
X724535Y168420D01*
X724553Y168454D01*
X724620Y168651D01*
X724693Y168847D01*
X724700Y168884D01*
X724713Y168920D01*
X724748Y169126D01*
X724788Y169331D01*
X724789Y169369D01*
X724795Y169407D01*
X724797Y169616D01*
X724803Y169824D01*
X724798Y169862D01*
X724798Y169900D01*
X724766Y170106D01*
X724739Y170313D01*
X724728Y170350D01*
X724722Y170387D01*
X724657Y170585D01*
X724596Y170785D01*
X724579Y170820D01*
X724568Y170856D01*
X724471Y171042D01*
X724379Y171229D01*
X724357Y171260D01*
X724340Y171294D01*
X724282Y171366D01*
X724094Y171631D01*
X723973Y171753D01*
X723914Y171827D01*
X723405Y172336D01*
X723405Y172337D01*
X718499Y177242D01*
X717803Y178922D01*
X717803Y295463D01*
X717789Y295643D01*
X717782Y295823D01*
X717769Y295888D01*
X717763Y295955D01*
X717720Y296130D01*
X717684Y296307D01*
X717661Y296369D01*
X717645Y296434D01*
X717573Y296599D01*
X717510Y296768D01*
X717476Y296826D01*
X717450Y296887D01*
X717353Y297039D01*
X717263Y297195D01*
X717221Y297247D01*
X717185Y297303D01*
X717065Y297438D01*
X716950Y297577D01*
X716901Y297621D01*
X716856Y297671D01*
X716716Y297784D01*
X716581Y297904D01*
X716524Y297939D01*
X716472Y297981D01*
X716316Y298070D01*
X716163Y298166D01*
X716102Y298192D01*
X716044Y298225D01*
X715874Y298288D01*
X715708Y298358D01*
X715644Y298373D01*
X715581Y298396D01*
X715404Y298431D01*
X715229Y298473D01*
X715162Y298478D01*
X715097Y298491D01*
X714917Y298497D01*
X714737Y298510D01*
X714670Y298504D01*
X714604Y298506D01*
X714425Y298483D01*
X714245Y298467D01*
X714195Y298453D01*
X714115Y298442D01*
X713643Y298300D01*
X713612Y298285D01*
X713590Y298278D01*
X710937Y297179D01*
X707399Y297179D01*
X704132Y298533D01*
X701631Y301034D01*
X700277Y304301D01*
X700277Y307839D01*
X701631Y311106D01*
X704132Y313607D01*
X707399Y314961D01*
X710937Y314961D01*
X713590Y313862D01*
X713761Y313806D01*
X713931Y313744D01*
X713996Y313731D01*
X714059Y313710D01*
X714238Y313683D01*
X714415Y313649D01*
X714481Y313647D01*
X714547Y313637D01*
X714728Y313639D01*
X714908Y313634D01*
X714974Y313642D01*
X715041Y313643D01*
X715218Y313674D01*
X715397Y313698D01*
X715461Y313717D01*
X715526Y313729D01*
X715697Y313788D01*
X715870Y313840D01*
X715929Y313870D01*
X715992Y313892D01*
X716150Y313978D01*
X716313Y314057D01*
X716367Y314096D01*
X716425Y314128D01*
X716568Y314238D01*
X716715Y314343D01*
X716762Y314390D01*
X716815Y314430D01*
X716938Y314563D01*
X717066Y314689D01*
X717105Y314743D01*
X717150Y314792D01*
X717250Y314942D01*
X717356Y315088D01*
X717386Y315148D01*
X717423Y315203D01*
X717497Y315368D01*
X717579Y315529D01*
X717599Y315592D01*
X717626Y315653D01*
X717673Y315827D01*
X717727Y315999D01*
X717733Y316052D01*
X717754Y316129D01*
X717803Y316620D01*
X717801Y316654D01*
X717803Y316677D01*
X717803Y361082D01*
X718499Y362762D01*
X804690Y448953D01*
X804715Y448982D01*
X804744Y449008D01*
X804875Y449170D01*
X805010Y449329D01*
X805030Y449362D01*
X805054Y449392D01*
X805156Y449572D01*
X805265Y449752D01*
X805279Y449787D01*
X805298Y449820D01*
X805370Y450016D01*
X805448Y450210D01*
X805456Y450247D01*
X805469Y450283D01*
X805509Y450488D01*
X805554Y450692D01*
X805557Y450730D01*
X805564Y450767D01*
X805570Y450975D01*
X805582Y451184D01*
X805578Y451222D01*
X805579Y451260D01*
X805552Y451467D01*
X805530Y451675D01*
X805520Y451711D01*
X805515Y451749D01*
X805454Y451949D01*
X805399Y452150D01*
X805383Y452185D01*
X805372Y452222D01*
X805281Y452409D01*
X805193Y452599D01*
X805172Y452631D01*
X805155Y452665D01*
X805035Y452835D01*
X804918Y453008D01*
X804892Y453036D01*
X804870Y453067D01*
X804723Y453216D01*
X804580Y453368D01*
X804550Y453391D01*
X804523Y453418D01*
X804354Y453541D01*
X804189Y453668D01*
X804155Y453686D01*
X804124Y453708D01*
X803938Y453802D01*
X803754Y453901D01*
X803718Y453913D01*
X803684Y453931D01*
X803485Y453993D01*
X803287Y454061D01*
X803250Y454067D01*
X803213Y454079D01*
X803121Y454089D01*
X802801Y454144D01*
X802629Y454145D01*
X802536Y454155D01*
X798753Y454155D01*
X793525Y456321D01*
X789523Y460322D01*
X787358Y465550D01*
X787358Y471210D01*
X789523Y476438D01*
X793525Y480439D01*
X798753Y482605D01*
X804412Y482605D01*
X809640Y480439D01*
X813642Y476438D01*
X815807Y471210D01*
X815807Y467427D01*
X815810Y467389D01*
X815808Y467351D01*
X815830Y467143D01*
X815847Y466935D01*
X815856Y466898D01*
X815860Y466860D01*
X815916Y466659D01*
X815966Y466456D01*
X815981Y466421D01*
X815991Y466384D01*
X816078Y466194D01*
X816160Y466003D01*
X816181Y465971D01*
X816197Y465936D01*
X816314Y465763D01*
X816425Y465587D01*
X816451Y465558D01*
X816472Y465527D01*
X816615Y465375D01*
X816754Y465219D01*
X816784Y465195D01*
X816810Y465167D01*
X816976Y465040D01*
X817138Y464909D01*
X817171Y464890D01*
X817201Y464867D01*
X817385Y464768D01*
X817567Y464665D01*
X817603Y464652D01*
X817636Y464634D01*
X817834Y464566D01*
X818029Y464493D01*
X818067Y464486D01*
X818103Y464474D01*
X818309Y464439D01*
X818513Y464399D01*
X818551Y464397D01*
X818589Y464391D01*
X818799Y464390D01*
X819007Y464383D01*
X819044Y464388D01*
X819082Y464388D01*
X819289Y464421D01*
X819496Y464448D01*
X819532Y464459D01*
X819570Y464465D01*
X819768Y464530D01*
X819968Y464590D01*
X820002Y464607D01*
X820038Y464619D01*
X820224Y464715D01*
X820411Y464807D01*
X820442Y464829D01*
X820476Y464847D01*
X820549Y464905D01*
X820813Y465093D01*
X820936Y465214D01*
X821009Y465272D01*
X864739Y509002D01*
X864813Y509089D01*
X864894Y509169D01*
X864972Y509276D01*
X865058Y509378D01*
X865117Y509475D01*
X865184Y509568D01*
X865244Y509686D01*
X865313Y509800D01*
X865355Y509906D01*
X865407Y510008D01*
X865447Y510135D01*
X865496Y510258D01*
X865521Y510369D01*
X865555Y510479D01*
X865565Y510572D01*
X865603Y510740D01*
X865621Y511064D01*
X865631Y511156D01*
X865631Y540380D01*
X865630Y540390D01*
X865631Y540400D01*
X865625Y540474D01*
X865627Y540534D01*
X865606Y540690D01*
X865591Y540872D01*
X865589Y540881D01*
X865588Y540891D01*
X865577Y540929D01*
X865572Y540951D01*
X865562Y541023D01*
X865515Y541181D01*
X865473Y541351D01*
X865442Y541423D01*
X865420Y541496D01*
X865406Y541525D01*
X865399Y541546D01*
X864897Y542758D01*
X864897Y544870D01*
X865705Y546820D01*
X867198Y548313D01*
X869148Y549121D01*
X871260Y549121D01*
X873210Y548313D01*
X874703Y546820D01*
X875511Y544870D01*
X875511Y542758D01*
X875009Y541546D01*
X875006Y541537D01*
X875001Y541528D01*
X874950Y541364D01*
X874891Y541207D01*
X874879Y541143D01*
X874857Y541077D01*
X874856Y541067D01*
X874853Y541058D01*
X874849Y541018D01*
X874829Y540889D01*
X874797Y540723D01*
X874795Y540661D01*
X874784Y540589D01*
X874786Y540458D01*
X874777Y540380D01*
X874777Y507090D01*
X874081Y505410D01*
X750061Y381390D01*
X750036Y381361D01*
X750008Y381336D01*
X749877Y381173D01*
X749742Y381014D01*
X749722Y380982D01*
X749698Y380952D01*
X749595Y380771D01*
X749487Y380592D01*
X749473Y380556D01*
X749454Y380523D01*
X749381Y380327D01*
X749304Y380134D01*
X749296Y380097D01*
X749282Y380061D01*
X749242Y379856D01*
X749197Y379652D01*
X749195Y379614D01*
X749188Y379576D01*
X749181Y379369D01*
X749169Y379159D01*
X749174Y379121D01*
X749172Y379083D01*
X749200Y378877D01*
X749222Y378669D01*
X749232Y378632D01*
X749237Y378594D01*
X749297Y378394D01*
X749352Y378193D01*
X749368Y378159D01*
X749379Y378122D01*
X749471Y377935D01*
X749558Y377745D01*
X749579Y377713D01*
X749596Y377679D01*
X749717Y377509D01*
X749833Y377335D01*
X749860Y377308D01*
X749882Y377277D01*
X750028Y377128D01*
X750171Y376976D01*
X750202Y376953D01*
X750228Y376926D01*
X750397Y376803D01*
X750563Y376676D01*
X750596Y376658D01*
X750627Y376635D01*
X750813Y376541D01*
X750997Y376442D01*
X751034Y376430D01*
X751068Y376413D01*
X751266Y376350D01*
X751464Y376282D01*
X751502Y376276D01*
X751538Y376265D01*
X751630Y376254D01*
X751950Y376200D01*
X752122Y376199D01*
X752216Y376188D01*
X759823Y376188D01*
X767494Y374133D01*
X774372Y370162D01*
X779987Y364547D01*
X783958Y357669D01*
X786013Y349998D01*
X786013Y342057D01*
X783958Y334386D01*
X779987Y327508D01*
X774372Y321893D01*
X767494Y317922D01*
X767226Y317850D01*
X767100Y317805D01*
X766972Y317770D01*
X766868Y317723D01*
X766761Y317684D01*
X766644Y317620D01*
X766523Y317564D01*
X766429Y317501D01*
X766329Y317446D01*
X766224Y317363D01*
X766114Y317289D01*
X766031Y317211D01*
X765941Y317141D01*
X765852Y317042D01*
X765755Y316951D01*
X765685Y316861D01*
X765608Y316777D01*
X765535Y316665D01*
X765454Y316560D01*
X765400Y316459D01*
X765338Y316364D01*
X765284Y316243D01*
X765221Y316125D01*
X765184Y316017D01*
X765138Y315913D01*
X765104Y315785D01*
X765061Y315658D01*
X765042Y315546D01*
X765013Y315436D01*
X765001Y315303D01*
X764978Y315172D01*
X764978Y315058D01*
X764967Y314945D01*
X764976Y314812D01*
X764975Y314679D01*
X764993Y314566D01*
X765001Y314453D01*
X765031Y314323D01*
X765052Y314191D01*
X765088Y314083D01*
X765114Y313972D01*
X765165Y313849D01*
X765206Y313723D01*
X765259Y313622D01*
X765303Y313516D01*
X765373Y313403D01*
X765434Y313285D01*
X765487Y313219D01*
X765562Y313097D01*
X765658Y312988D01*
X765701Y312927D01*
X765785Y312842D01*
X765819Y312803D01*
X765859Y312752D01*
X767505Y311106D01*
X768859Y307839D01*
X768859Y304301D01*
X767505Y301034D01*
X765004Y298533D01*
X761737Y297179D01*
X758199Y297179D01*
X754932Y298533D01*
X752431Y301034D01*
X751077Y304301D01*
X751077Y307839D01*
X752442Y311133D01*
X752517Y311209D01*
X752583Y311302D01*
X752657Y311389D01*
X752725Y311503D01*
X752802Y311611D01*
X752852Y311713D01*
X752911Y311811D01*
X752961Y311935D01*
X753019Y312054D01*
X753052Y312164D01*
X753094Y312269D01*
X753123Y312399D01*
X753162Y312527D01*
X753176Y312640D01*
X753201Y312751D01*
X753209Y312884D01*
X753226Y313016D01*
X753222Y313129D01*
X753229Y313243D01*
X753215Y313376D01*
X753211Y313509D01*
X753189Y313621D01*
X753177Y313734D01*
X753141Y313862D01*
X753116Y313993D01*
X753076Y314100D01*
X753046Y314210D01*
X752990Y314331D01*
X752944Y314455D01*
X752888Y314554D01*
X752840Y314658D01*
X752766Y314768D01*
X752700Y314884D01*
X752628Y314973D01*
X752565Y315067D01*
X752474Y315164D01*
X752390Y315268D01*
X752305Y315344D01*
X752227Y315427D01*
X752121Y315508D01*
X752022Y315597D01*
X751926Y315658D01*
X751836Y315727D01*
X751718Y315790D01*
X751606Y315862D01*
X751528Y315892D01*
X751401Y315960D01*
X751032Y316087D01*
X750971Y316111D01*
X744211Y317922D01*
X743147Y318536D01*
X743061Y318577D01*
X742980Y318626D01*
X742839Y318683D01*
X742701Y318748D01*
X742610Y318774D01*
X742522Y318809D01*
X742373Y318842D01*
X742227Y318884D01*
X742133Y318895D01*
X742040Y318916D01*
X741888Y318925D01*
X741737Y318942D01*
X741643Y318938D01*
X741547Y318944D01*
X741396Y318928D01*
X741245Y318921D01*
X741151Y318901D01*
X741057Y318891D01*
X740911Y318851D01*
X740762Y318820D01*
X740673Y318786D01*
X740581Y318761D01*
X740443Y318697D01*
X740301Y318643D01*
X740219Y318595D01*
X740133Y318555D01*
X740007Y318470D01*
X739876Y318393D01*
X739802Y318333D01*
X739723Y318280D01*
X739613Y318176D01*
X739496Y318079D01*
X739433Y318007D01*
X739364Y317942D01*
X739272Y317821D01*
X739172Y317707D01*
X739122Y317626D01*
X739064Y317550D01*
X738992Y317417D01*
X738912Y317287D01*
X738875Y317200D01*
X738830Y317116D01*
X738781Y316972D01*
X738723Y316832D01*
X738701Y316739D01*
X738670Y316649D01*
X738645Y316499D01*
X738610Y316351D01*
X738604Y316256D01*
X738588Y316163D01*
X738587Y316010D01*
X738577Y315859D01*
X738585Y315765D01*
X738585Y315669D01*
X738608Y315519D01*
X738623Y315368D01*
X738647Y315276D01*
X738661Y315182D01*
X738709Y315037D01*
X738747Y314891D01*
X738786Y314804D01*
X738816Y314713D01*
X738886Y314578D01*
X738948Y314440D01*
X739000Y314360D01*
X739044Y314276D01*
X739107Y314196D01*
X739218Y314027D01*
X739404Y313824D01*
X739469Y313743D01*
X742105Y311106D01*
X743459Y307839D01*
X743459Y304301D01*
X742105Y301034D01*
X739604Y298533D01*
X736337Y297179D01*
X732799Y297179D01*
X731162Y297857D01*
X730991Y297913D01*
X730821Y297976D01*
X730756Y297988D01*
X730693Y298009D01*
X730514Y298036D01*
X730337Y298070D01*
X730271Y298072D01*
X730205Y298082D01*
X730024Y298080D01*
X729844Y298086D01*
X729778Y298077D01*
X729711Y298076D01*
X729534Y298045D01*
X729355Y298021D01*
X729291Y298002D01*
X729226Y297990D01*
X729055Y297931D01*
X728882Y297879D01*
X728823Y297849D01*
X728760Y297828D01*
X728602Y297741D01*
X728439Y297662D01*
X728385Y297623D01*
X728327Y297592D01*
X728184Y297481D01*
X728037Y297376D01*
X727990Y297330D01*
X727937Y297289D01*
X727814Y297156D01*
X727686Y297030D01*
X727647Y296976D01*
X727602Y296927D01*
X727502Y296777D01*
X727396Y296631D01*
X727366Y296571D01*
X727329Y296516D01*
X727255Y296352D01*
X727173Y296190D01*
X727153Y296127D01*
X727126Y296066D01*
X727079Y295892D01*
X727025Y295720D01*
X727019Y295667D01*
X726998Y295590D01*
X726949Y295099D01*
X726951Y295065D01*
X726949Y295042D01*
X726949Y182988D01*
X726958Y182875D01*
X726957Y182760D01*
X726978Y182629D01*
X726989Y182497D01*
X727016Y182386D01*
X727034Y182273D01*
X727075Y182147D01*
X727107Y182018D01*
X727152Y181913D01*
X727188Y181804D01*
X727250Y181686D01*
X727302Y181564D01*
X727363Y181468D01*
X727416Y181367D01*
X727475Y181293D01*
X727567Y181148D01*
X727783Y180906D01*
X727841Y180834D01*
X728712Y179963D01*
X728799Y179889D01*
X728879Y179808D01*
X728986Y179730D01*
X729088Y179644D01*
X729185Y179585D01*
X729278Y179518D01*
X729396Y179458D01*
X729510Y179389D01*
X729616Y179347D01*
X729718Y179295D01*
X729845Y179255D01*
X729968Y179206D01*
X730079Y179181D01*
X730189Y179147D01*
X730282Y179137D01*
X730450Y179099D01*
X730774Y179081D01*
X730866Y179071D01*
X747390Y179071D01*
X747400Y179072D01*
X747410Y179071D01*
X747645Y179091D01*
X747882Y179111D01*
X747891Y179113D01*
X747901Y179114D01*
X747939Y179125D01*
X748361Y179229D01*
X748481Y179281D01*
X748556Y179303D01*
X749768Y179805D01*
X751880Y179805D01*
X753830Y178997D01*
X755323Y177504D01*
X756131Y175554D01*
X756131Y173442D01*
X755323Y171492D01*
X753830Y169999D01*
X751880Y169191D01*
X749768Y169191D01*
X748556Y169693D01*
X748547Y169696D01*
X748538Y169701D01*
X748311Y169773D01*
X748087Y169845D01*
X748077Y169846D01*
X748068Y169849D01*
X748028Y169853D01*
X747599Y169918D01*
X747468Y169916D01*
X747390Y169925D01*
X743990Y169925D01*
X743952Y169922D01*
X743914Y169924D01*
X743706Y169902D01*
X743498Y169885D01*
X743462Y169876D01*
X743423Y169872D01*
X743222Y169817D01*
X743020Y169767D01*
X742985Y169752D01*
X742948Y169741D01*
X742758Y169655D01*
X742566Y169572D01*
X742534Y169552D01*
X742499Y169536D01*
X742326Y169419D01*
X742150Y169307D01*
X742122Y169282D01*
X742090Y169260D01*
X741938Y169117D01*
X741782Y168978D01*
X741758Y168949D01*
X741731Y168922D01*
X741603Y168757D01*
X741472Y168594D01*
X741454Y168561D01*
X741430Y168531D01*
X741331Y168347D01*
X741228Y168166D01*
X741215Y168130D01*
X741197Y168096D01*
X741129Y167899D01*
X741057Y167703D01*
X741049Y167666D01*
X741037Y167630D01*
X741002Y167424D01*
X740962Y167219D01*
X740961Y167181D01*
X740955Y167143D01*
X740953Y166934D01*
X740947Y166726D01*
X740952Y166688D01*
X740952Y166650D01*
X740984Y166444D01*
X741011Y166237D01*
X741022Y166200D01*
X741028Y166163D01*
X741093Y165965D01*
X741154Y165765D01*
X741170Y165730D01*
X741182Y165694D01*
X741279Y165509D01*
X741371Y165321D01*
X741393Y165290D01*
X741410Y165256D01*
X741468Y165183D01*
X741656Y164919D01*
X741777Y164797D01*
X741836Y164723D01*
X742464Y164095D01*
X747987Y158572D01*
X748045Y158522D01*
X748097Y158467D01*
X748233Y158363D01*
X748363Y158252D01*
X748428Y158213D01*
X748489Y158167D01*
X748639Y158086D01*
X748785Y157998D01*
X748856Y157970D01*
X748923Y157933D01*
X749085Y157878D01*
X749244Y157815D01*
X749318Y157798D01*
X749390Y157773D01*
X749559Y157745D01*
X749725Y157708D01*
X749801Y157704D01*
X749876Y157691D01*
X750047Y157690D01*
X750218Y157680D01*
X750293Y157688D01*
X750370Y157688D01*
X750539Y157714D01*
X750708Y157732D01*
X750782Y157753D01*
X750857Y157764D01*
X751019Y157818D01*
X751184Y157863D01*
X751253Y157895D01*
X751326Y157919D01*
X751477Y157998D01*
X751632Y158069D01*
X751696Y158111D01*
X751763Y158147D01*
X751845Y158212D01*
X752042Y158344D01*
X752214Y158506D01*
X752296Y158572D01*
X754932Y161207D01*
X758199Y162561D01*
X761737Y162561D01*
X765004Y161207D01*
X767505Y158706D01*
X768859Y155439D01*
X768859Y151902D01*
X768815Y151795D01*
X768748Y151588D01*
X768677Y151381D01*
X768672Y151353D01*
X768663Y151326D01*
X768631Y151110D01*
X768594Y150894D01*
X768594Y150866D01*
X768590Y150838D01*
X768593Y150620D01*
X768591Y150401D01*
X768596Y150373D01*
X768596Y150345D01*
X768634Y150129D01*
X768668Y149914D01*
X768677Y149887D01*
X768682Y149859D01*
X768754Y149652D01*
X768822Y149445D01*
X768835Y149420D01*
X768845Y149393D01*
X768949Y149201D01*
X769050Y149008D01*
X769065Y148989D01*
X769081Y148960D01*
X769383Y148570D01*
X769442Y148516D01*
X769475Y148474D01*
X773019Y144930D01*
X773128Y144838D01*
X773230Y144738D01*
X773315Y144679D01*
X773395Y144611D01*
X773517Y144537D01*
X773634Y144455D01*
X773728Y144410D01*
X773818Y144356D01*
X773950Y144303D01*
X774079Y144241D01*
X774179Y144212D01*
X774276Y144173D01*
X774415Y144142D01*
X774552Y144102D01*
X774655Y144089D01*
X774758Y144066D01*
X774900Y144058D01*
X775041Y144041D01*
X775145Y144045D01*
X775250Y144039D01*
X775392Y144054D01*
X775534Y144059D01*
X775637Y144080D01*
X775741Y144091D01*
X775808Y144109D01*
X775785Y144024D01*
X775771Y143882D01*
X775747Y143741D01*
X775747Y143637D01*
X775736Y143533D01*
X775745Y143391D01*
X775744Y143248D01*
X775761Y143144D01*
X775767Y143040D01*
X775799Y142902D01*
X775821Y142761D01*
X775854Y142661D01*
X775877Y142559D01*
X775931Y142427D01*
X775975Y142292D01*
X776023Y142199D01*
X776063Y142102D01*
X776137Y141981D01*
X776203Y141854D01*
X776252Y141793D01*
X776320Y141682D01*
X776603Y141353D01*
X776628Y141321D01*
X780658Y137291D01*
X780745Y137217D01*
X780826Y137136D01*
X780933Y137058D01*
X781034Y136972D01*
X781132Y136913D01*
X781224Y136846D01*
X781343Y136786D01*
X781457Y136717D01*
X781563Y136675D01*
X781665Y136623D01*
X781792Y136583D01*
X781915Y136534D01*
X782026Y136509D01*
X782135Y136475D01*
X782229Y136465D01*
X782397Y136427D01*
X782721Y136409D01*
X782813Y136399D01*
X815101Y136399D01*
X815139Y136402D01*
X815177Y136400D01*
X815385Y136422D01*
X815593Y136439D01*
X815630Y136448D01*
X815668Y136452D01*
X815869Y136507D01*
X816072Y136557D01*
X816107Y136572D01*
X816143Y136583D01*
X816333Y136670D01*
X816525Y136752D01*
X816557Y136772D01*
X816592Y136788D01*
X816765Y136905D01*
X816941Y137017D01*
X816969Y137042D01*
X817001Y137064D01*
X817153Y137207D01*
X817309Y137346D01*
X817333Y137375D01*
X817361Y137401D01*
X817488Y137567D01*
X817619Y137730D01*
X817638Y137763D01*
X817661Y137793D01*
X817760Y137977D01*
X817863Y138158D01*
X817876Y138194D01*
X817894Y138228D01*
X817962Y138425D01*
X818034Y138621D01*
X818042Y138658D01*
X818054Y138694D01*
X818089Y138901D01*
X818129Y139105D01*
X818130Y139143D01*
X818137Y139181D01*
X818138Y139390D01*
X818144Y139598D01*
X818139Y139636D01*
X818140Y139674D01*
X818107Y139881D01*
X818080Y140087D01*
X818069Y140124D01*
X818063Y140161D01*
X817998Y140360D01*
X817938Y140559D01*
X817921Y140594D01*
X817909Y140630D01*
X817812Y140815D01*
X817721Y141003D01*
X817699Y141034D01*
X817681Y141068D01*
X817623Y141140D01*
X817435Y141405D01*
X817314Y141527D01*
X817256Y141601D01*
X814970Y143887D01*
X814883Y143961D01*
X814802Y144042D01*
X814695Y144120D01*
X814594Y144206D01*
X814496Y144265D01*
X814404Y144332D01*
X814285Y144392D01*
X814171Y144461D01*
X814065Y144503D01*
X813963Y144555D01*
X813837Y144595D01*
X813713Y144644D01*
X813602Y144669D01*
X813493Y144703D01*
X813399Y144713D01*
X813231Y144751D01*
X812907Y144769D01*
X812815Y144779D01*
X808999Y144779D01*
X805732Y146133D01*
X803231Y148634D01*
X801877Y151901D01*
X801877Y155439D01*
X803231Y158706D01*
X805732Y161207D01*
X808999Y162561D01*
X812537Y162561D01*
X815804Y161207D01*
X818305Y158706D01*
X819659Y155439D01*
X819659Y151902D01*
X819243Y150897D01*
X819176Y150689D01*
X819105Y150483D01*
X819100Y150455D01*
X819091Y150428D01*
X819059Y150212D01*
X819022Y149996D01*
X819022Y149968D01*
X819018Y149940D01*
X819021Y149722D01*
X819019Y149503D01*
X819024Y149475D01*
X819024Y149447D01*
X819062Y149232D01*
X819096Y149016D01*
X819105Y148989D01*
X819110Y148961D01*
X819182Y148755D01*
X819250Y148547D01*
X819263Y148522D01*
X819273Y148495D01*
X819377Y148304D01*
X819478Y148109D01*
X819493Y148091D01*
X819509Y148062D01*
X819811Y147672D01*
X819870Y147618D01*
X819903Y147576D01*
X858057Y109423D01*
X858521Y108302D01*
X858521Y95041D01*
X858535Y94861D01*
X858542Y94680D01*
X858555Y94615D01*
X858561Y94549D01*
X858604Y94374D01*
X858640Y94197D01*
X858663Y94135D01*
X858679Y94070D01*
X858751Y93904D01*
X858814Y93735D01*
X858848Y93678D01*
X858874Y93617D01*
X858971Y93465D01*
X859061Y93308D01*
X859103Y93257D01*
X859139Y93201D01*
X859259Y93066D01*
X859374Y92926D01*
X859423Y92882D01*
X859468Y92833D01*
X859608Y92719D01*
X859743Y92600D01*
X859800Y92565D01*
X859852Y92523D01*
X860008Y92434D01*
X860161Y92338D01*
X860223Y92312D01*
X860280Y92279D01*
X860450Y92216D01*
X860616Y92146D01*
X860680Y92130D01*
X860743Y92107D01*
X860920Y92073D01*
X861095Y92030D01*
X861162Y92025D01*
X861227Y92013D01*
X861407Y92007D01*
X861587Y91994D01*
X861654Y91999D01*
X861720Y91997D01*
X861899Y92021D01*
X862079Y92037D01*
X862129Y92051D01*
X862209Y92062D01*
X862681Y92204D01*
X862712Y92219D01*
X862734Y92225D01*
X865745Y93473D01*
X870091Y93473D01*
X874105Y91810D01*
X877178Y88737D01*
X878841Y84723D01*
X878841Y80377D01*
X877178Y76363D01*
X874105Y73290D01*
X872597Y72665D01*
X872563Y72648D01*
X872527Y72635D01*
X872344Y72536D01*
X872158Y72440D01*
X872127Y72418D01*
X872093Y72399D01*
X871928Y72271D01*
X871761Y72147D01*
X871734Y72120D01*
X871704Y72097D01*
X871562Y71943D01*
X871416Y71794D01*
X871394Y71763D01*
X871368Y71735D01*
X871253Y71560D01*
X871133Y71390D01*
X871117Y71356D01*
X871096Y71324D01*
X871010Y71134D01*
X870919Y70946D01*
X870908Y70909D01*
X870893Y70874D01*
X870839Y70673D01*
X870780Y70472D01*
X870775Y70434D01*
X870765Y70398D01*
X870744Y70190D01*
X870718Y69983D01*
X870720Y69945D01*
X870716Y69907D01*
X870729Y69698D01*
X870737Y69490D01*
X870744Y69452D01*
X870747Y69414D01*
X870793Y69211D01*
X870835Y69006D01*
X870848Y68971D01*
X870857Y68933D01*
X870935Y68740D01*
X871009Y68545D01*
X871028Y68512D01*
X871043Y68477D01*
X871152Y68298D01*
X871256Y68118D01*
X871280Y68088D01*
X871300Y68056D01*
X871436Y67897D01*
X871568Y67736D01*
X871597Y67711D01*
X871622Y67682D01*
X871781Y67548D01*
X871938Y67409D01*
X871971Y67389D01*
X872000Y67365D01*
X872081Y67320D01*
X872356Y67147D01*
X872515Y67080D01*
X872597Y67035D01*
X874105Y66410D01*
X877178Y63337D01*
X878841Y59323D01*
X878841Y54977D01*
X877178Y50963D01*
X874105Y47890D01*
X870091Y46227D01*
X865745Y46227D01*
X861731Y47890D01*
X858658Y50963D01*
X858033Y52471D01*
X858016Y52505D01*
X858003Y52541D01*
X857904Y52724D01*
X857808Y52910D01*
X857786Y52941D01*
X857767Y52975D01*
X857639Y53140D01*
X857515Y53307D01*
X857488Y53334D01*
X857465Y53364D01*
X857312Y53506D01*
X857162Y53652D01*
X857131Y53674D01*
X857103Y53700D01*
X856929Y53815D01*
X856758Y53935D01*
X856724Y53951D01*
X856692Y53972D01*
X856502Y54058D01*
X856314Y54149D01*
X856277Y54160D01*
X856242Y54175D01*
X856041Y54229D01*
X855840Y54288D01*
X855802Y54293D01*
X855766Y54303D01*
X855558Y54324D01*
X855351Y54350D01*
X855313Y54348D01*
X855275Y54352D01*
X855066Y54339D01*
X854858Y54331D01*
X854820Y54324D01*
X854782Y54321D01*
X854579Y54275D01*
X854374Y54233D01*
X854339Y54220D01*
X854301Y54211D01*
X854108Y54133D01*
X853913Y54059D01*
X853880Y54040D01*
X853845Y54025D01*
X853666Y53916D01*
X853486Y53812D01*
X853456Y53788D01*
X853424Y53768D01*
X853265Y53632D01*
X853104Y53500D01*
X853079Y53471D01*
X853050Y53446D01*
X852916Y53287D01*
X852777Y53130D01*
X852757Y53097D01*
X852733Y53068D01*
X852688Y52987D01*
X852515Y52712D01*
X852448Y52553D01*
X852403Y52471D01*
X851778Y50963D01*
X848705Y47890D01*
X844691Y46227D01*
X840345Y46227D01*
X836331Y47890D01*
X833258Y50963D01*
X832633Y52471D01*
X832616Y52505D01*
X832603Y52541D01*
X832504Y52724D01*
X832408Y52910D01*
X832386Y52941D01*
X832367Y52975D01*
X832239Y53140D01*
X832115Y53307D01*
X832088Y53334D01*
X832065Y53364D01*
X831912Y53506D01*
X831762Y53652D01*
X831731Y53674D01*
X831703Y53700D01*
X831529Y53815D01*
X831358Y53935D01*
X831324Y53951D01*
X831292Y53972D01*
X831102Y54058D01*
X830914Y54149D01*
X830877Y54160D01*
X830842Y54175D01*
X830641Y54229D01*
X830440Y54288D01*
X830402Y54293D01*
X830366Y54303D01*
X830158Y54324D01*
X829951Y54350D01*
X829913Y54348D01*
X829875Y54352D01*
X829666Y54339D01*
X829458Y54331D01*
X829420Y54324D01*
X829382Y54321D01*
X829179Y54275D01*
X828974Y54233D01*
X828939Y54220D01*
X828901Y54211D01*
X828708Y54133D01*
X828513Y54059D01*
X828480Y54040D01*
X828445Y54025D01*
X828266Y53916D01*
X828086Y53812D01*
X828056Y53788D01*
X828024Y53768D01*
X827865Y53632D01*
X827704Y53500D01*
X827679Y53471D01*
X827650Y53446D01*
X827516Y53287D01*
X827377Y53130D01*
X827357Y53097D01*
X827333Y53068D01*
X827288Y52987D01*
X827115Y52712D01*
X827048Y52553D01*
X827003Y52471D01*
X826378Y50963D01*
X823305Y47890D01*
X819291Y46227D01*
X814945Y46227D01*
X810931Y47890D01*
X807858Y50963D01*
X807745Y51236D01*
X807670Y51383D01*
X807602Y51534D01*
X807557Y51602D01*
X807520Y51675D01*
X807422Y51808D01*
X807331Y51946D01*
X807275Y52006D01*
X807227Y52072D01*
X807109Y52187D01*
X806997Y52309D01*
X806932Y52359D01*
X806874Y52416D01*
X806738Y52511D01*
X806608Y52613D01*
X806537Y52653D01*
X806470Y52699D01*
X806320Y52771D01*
X806176Y52851D01*
X806099Y52878D01*
X806025Y52913D01*
X805867Y52960D01*
X805711Y53015D01*
X805630Y53030D01*
X805552Y53053D01*
X805388Y53074D01*
X805225Y53103D01*
X805144Y53104D01*
X805062Y53114D01*
X804897Y53108D01*
X804732Y53111D01*
X804651Y53099D01*
X804569Y53096D01*
X804407Y53063D01*
X804244Y53039D01*
X804166Y53014D01*
X804086Y52998D01*
X803932Y52940D01*
X803774Y52889D01*
X803701Y52852D01*
X803624Y52824D01*
X803481Y52741D01*
X803334Y52666D01*
X803268Y52618D01*
X803197Y52577D01*
X803070Y52472D01*
X802936Y52374D01*
X802879Y52316D01*
X802815Y52264D01*
X802706Y52141D01*
X802590Y52022D01*
X802555Y51969D01*
X802489Y51894D01*
X802227Y51477D01*
X802221Y51463D01*
X802215Y51453D01*
X801929Y50893D01*
X800824Y49372D01*
X799496Y48044D01*
X797975Y46939D01*
X796301Y46086D01*
X794765Y45587D01*
X794765Y57150D01*
X794759Y57226D01*
X794762Y57302D01*
X794739Y57471D01*
X794725Y57641D01*
X794707Y57715D01*
X794697Y57791D01*
X794648Y57955D01*
X794607Y58120D01*
X794577Y58190D01*
X794555Y58263D01*
X794480Y58417D01*
X794412Y58574D01*
X794371Y58638D01*
X794338Y58706D01*
X794239Y58846D01*
X794147Y58990D01*
X794096Y59046D01*
X794052Y59109D01*
X793932Y59230D01*
X793818Y59358D01*
X793759Y59405D01*
X793706Y59460D01*
X793567Y59560D01*
X793435Y59667D01*
X793368Y59705D01*
X793307Y59750D01*
X793154Y59827D01*
X793006Y59911D01*
X792934Y59938D01*
X792866Y59972D01*
X792704Y60024D01*
X792543Y60083D01*
X792469Y60098D01*
X792396Y60121D01*
X792291Y60132D01*
X792059Y60178D01*
X791823Y60185D01*
X791718Y60197D01*
X791642Y60191D01*
X791566Y60193D01*
X791396Y60171D01*
X791226Y60157D01*
X791152Y60139D01*
X791077Y60129D01*
X790913Y60079D01*
X790747Y60038D01*
X790677Y60008D01*
X790604Y59986D01*
X790451Y59911D01*
X790294Y59844D01*
X790230Y59803D01*
X790161Y59769D01*
X790022Y59670D01*
X789878Y59579D01*
X789821Y59528D01*
X789759Y59484D01*
X789637Y59364D01*
X789510Y59250D01*
X789462Y59191D01*
X789408Y59137D01*
X789307Y58999D01*
X789200Y58866D01*
X789162Y58800D01*
X789117Y58738D01*
X789041Y58586D01*
X788956Y58437D01*
X788929Y58366D01*
X788895Y58298D01*
X788844Y58135D01*
X788784Y57975D01*
X788770Y57900D01*
X788747Y57827D01*
X788735Y57723D01*
X788690Y57491D01*
X788682Y57255D01*
X788671Y57150D01*
X788671Y45587D01*
X787135Y46086D01*
X785461Y46939D01*
X783940Y48044D01*
X782612Y49372D01*
X781507Y50893D01*
X781221Y51453D01*
X781135Y51594D01*
X781056Y51739D01*
X781006Y51804D01*
X780963Y51873D01*
X780854Y51999D01*
X780753Y52129D01*
X780693Y52184D01*
X780640Y52246D01*
X780512Y52352D01*
X780391Y52464D01*
X780323Y52509D01*
X780260Y52562D01*
X780118Y52646D01*
X779980Y52737D01*
X779906Y52771D01*
X779835Y52812D01*
X779681Y52872D01*
X779530Y52940D01*
X779452Y52961D01*
X779375Y52991D01*
X779213Y53025D01*
X779054Y53068D01*
X778973Y53076D01*
X778893Y53093D01*
X778727Y53100D01*
X778563Y53117D01*
X778482Y53112D01*
X778400Y53115D01*
X778235Y53096D01*
X778071Y53086D01*
X777991Y53068D01*
X777910Y53058D01*
X777751Y53013D01*
X777590Y52976D01*
X777514Y52945D01*
X777436Y52923D01*
X777286Y52852D01*
X777133Y52790D01*
X777063Y52747D01*
X776989Y52713D01*
X776853Y52619D01*
X776712Y52533D01*
X776650Y52480D01*
X776583Y52433D01*
X776463Y52319D01*
X776338Y52211D01*
X776285Y52148D01*
X776227Y52092D01*
X776127Y51960D01*
X776021Y51833D01*
X775990Y51777D01*
X775930Y51697D01*
X775701Y51260D01*
X775696Y51246D01*
X775691Y51236D01*
X775578Y50963D01*
X772505Y47890D01*
X768491Y46227D01*
X764145Y46227D01*
X760131Y47890D01*
X757043Y50978D01*
X757014Y51003D01*
X756988Y51031D01*
X756826Y51162D01*
X756667Y51298D01*
X756634Y51317D01*
X756604Y51341D01*
X756423Y51444D01*
X756244Y51552D01*
X756209Y51566D01*
X756176Y51585D01*
X755980Y51658D01*
X755786Y51735D01*
X755749Y51744D01*
X755713Y51757D01*
X755508Y51797D01*
X755304Y51842D01*
X755266Y51844D01*
X755229Y51852D01*
X755021Y51858D01*
X754812Y51870D01*
X754774Y51866D01*
X754736Y51867D01*
X754529Y51840D01*
X754321Y51818D01*
X754285Y51808D01*
X754247Y51803D01*
X754047Y51742D01*
X753846Y51687D01*
X753811Y51671D01*
X753774Y51660D01*
X753587Y51568D01*
X753397Y51481D01*
X753366Y51460D01*
X753331Y51443D01*
X753161Y51323D01*
X752988Y51206D01*
X752960Y51180D01*
X752929Y51158D01*
X752781Y51011D01*
X752628Y50868D01*
X752605Y50838D01*
X752578Y50811D01*
X752455Y50642D01*
X752328Y50477D01*
X752310Y50443D01*
X752288Y50412D01*
X752194Y50226D01*
X752095Y50042D01*
X752082Y50006D01*
X752065Y49972D01*
X752003Y49773D01*
X751935Y49575D01*
X751929Y49538D01*
X751917Y49501D01*
X751907Y49409D01*
X751852Y49089D01*
X751851Y48917D01*
X751841Y48824D01*
X751841Y30690D01*
X750651Y27817D01*
X750616Y27708D01*
X750571Y27603D01*
X750540Y27474D01*
X750499Y27347D01*
X750482Y27234D01*
X750455Y27123D01*
X750446Y26991D01*
X750426Y26859D01*
X750427Y26745D01*
X750419Y26631D01*
X750430Y26499D01*
X750432Y26366D01*
X750452Y26254D01*
X750462Y26140D01*
X750488Y26049D01*
X750493Y26021D01*
X750493Y20206D01*
X748196Y14661D01*
X748138Y14565D01*
X748124Y14529D01*
X748104Y14496D01*
X748032Y14300D01*
X747955Y14107D01*
X747946Y14069D01*
X747933Y14033D01*
X747893Y13829D01*
X747848Y13626D01*
X747846Y13587D01*
X747838Y13549D01*
X747832Y13341D01*
X747820Y13133D01*
X747824Y13095D01*
X747823Y13056D01*
X747850Y12850D01*
X747872Y12642D01*
X747882Y12605D01*
X747887Y12567D01*
X747947Y12368D01*
X748002Y12167D01*
X748019Y12131D01*
X748030Y12094D01*
X748121Y11908D01*
X748208Y11718D01*
X748230Y11686D01*
X748247Y11651D01*
X748367Y11482D01*
X748483Y11309D01*
X748510Y11281D01*
X748532Y11249D01*
X748678Y11101D01*
X748821Y10949D01*
X748852Y10925D01*
X748879Y10898D01*
X749047Y10776D01*
X749212Y10649D01*
X749246Y10630D01*
X749278Y10608D01*
X749463Y10514D01*
X749647Y10415D01*
X749684Y10403D01*
X749718Y10385D01*
X749917Y10323D01*
X750114Y10255D01*
X750151Y10249D01*
X750188Y10237D01*
X750282Y10227D01*
X750600Y10172D01*
X750773Y10171D01*
X750866Y10161D01*
X759000Y10161D01*
X759038Y10164D01*
G37*
G36*
X13303Y45099D02*
X13303Y45099D01*
X13360Y45097D01*
X13548Y45122D01*
X13737Y45140D01*
X13793Y45154D01*
X13849Y45162D01*
X14031Y45217D01*
X14215Y45265D01*
X14267Y45288D01*
X14321Y45304D01*
X14492Y45388D01*
X14666Y45465D01*
X14713Y45496D01*
X14765Y45521D01*
X14920Y45631D01*
X15078Y45735D01*
X15120Y45774D01*
X15167Y45807D01*
X15302Y45940D01*
X15442Y46068D01*
X15469Y46105D01*
X15518Y46153D01*
X15808Y46552D01*
X15829Y46592D01*
X15847Y46617D01*
X19383Y52742D01*
X24998Y58357D01*
X31876Y62328D01*
X39547Y64383D01*
X47488Y64383D01*
X55159Y62328D01*
X55699Y62016D01*
X55785Y61976D01*
X55866Y61926D01*
X56008Y61870D01*
X56145Y61805D01*
X56236Y61779D01*
X56324Y61743D01*
X56473Y61710D01*
X56619Y61668D01*
X56713Y61657D01*
X56806Y61636D01*
X56958Y61628D01*
X57109Y61610D01*
X57204Y61614D01*
X57299Y61609D01*
X57450Y61625D01*
X57601Y61632D01*
X57695Y61651D01*
X57789Y61661D01*
X57936Y61701D01*
X58084Y61732D01*
X58173Y61766D01*
X58265Y61792D01*
X58403Y61855D01*
X58545Y61910D01*
X58627Y61958D01*
X58713Y61997D01*
X58839Y62082D01*
X58970Y62159D01*
X59044Y62220D01*
X59123Y62273D01*
X59233Y62377D01*
X59350Y62474D01*
X59413Y62545D01*
X59482Y62611D01*
X59575Y62731D01*
X59674Y62846D01*
X59725Y62927D01*
X59782Y63002D01*
X59854Y63136D01*
X59934Y63265D01*
X59971Y63353D01*
X60016Y63437D01*
X60065Y63581D01*
X60123Y63721D01*
X60145Y63813D01*
X60176Y63903D01*
X60201Y64054D01*
X60236Y64201D01*
X60242Y64296D01*
X60258Y64390D01*
X60259Y64542D01*
X60270Y64693D01*
X60261Y64788D01*
X60261Y64883D01*
X60238Y65033D01*
X60224Y65184D01*
X60199Y65277D01*
X60185Y65370D01*
X60137Y65515D01*
X60099Y65662D01*
X60060Y65749D01*
X60030Y65839D01*
X59960Y65974D01*
X59899Y66113D01*
X59847Y66192D01*
X59803Y66277D01*
X59739Y66356D01*
X59628Y66525D01*
X59442Y66729D01*
X59377Y66810D01*
X28835Y97352D01*
X26669Y102580D01*
X26669Y306742D01*
X28835Y311970D01*
X33265Y316400D01*
X296137Y579272D01*
X300567Y583702D01*
X301231Y583977D01*
X301358Y584042D01*
X301489Y584098D01*
X301577Y584154D01*
X301670Y584202D01*
X301785Y584287D01*
X301905Y584363D01*
X301983Y584432D01*
X302067Y584495D01*
X302167Y584597D01*
X302273Y584692D01*
X302338Y584773D01*
X302411Y584848D01*
X302493Y584965D01*
X302583Y585076D01*
X302634Y585166D01*
X302694Y585252D01*
X302756Y585380D01*
X302827Y585504D01*
X302863Y585602D01*
X302908Y585696D01*
X302949Y585833D01*
X302998Y585967D01*
X303018Y586070D01*
X303048Y586170D01*
X303066Y586311D01*
X303093Y586451D01*
X303096Y586555D01*
X303109Y586659D01*
X303104Y586802D01*
X303108Y586944D01*
X303095Y587048D01*
X303091Y587152D01*
X303063Y587292D01*
X303044Y587433D01*
X303014Y587533D01*
X302993Y587636D01*
X302943Y587769D01*
X302901Y587906D01*
X302855Y587999D01*
X302819Y588097D01*
X302747Y588221D01*
X302685Y588349D01*
X302624Y588434D01*
X302572Y588524D01*
X302481Y588635D01*
X302399Y588751D01*
X302326Y588825D01*
X302259Y588906D01*
X302152Y589001D01*
X302052Y589102D01*
X301968Y589163D01*
X301890Y589233D01*
X301769Y589309D01*
X301654Y589392D01*
X301560Y589439D01*
X301472Y589495D01*
X301340Y589550D01*
X301213Y589615D01*
X301113Y589646D01*
X301017Y589687D01*
X300879Y589720D01*
X300743Y589763D01*
X300664Y589772D01*
X300538Y589802D01*
X300105Y589835D01*
X300065Y589839D01*
X13208Y589839D01*
X13132Y589833D01*
X13056Y589835D01*
X12887Y589813D01*
X12716Y589799D01*
X12642Y589781D01*
X12567Y589771D01*
X12403Y589722D01*
X12237Y589681D01*
X12168Y589651D01*
X12094Y589629D01*
X11941Y589553D01*
X11784Y589486D01*
X11720Y589445D01*
X11651Y589412D01*
X11512Y589313D01*
X11368Y589221D01*
X11311Y589170D01*
X11249Y589126D01*
X11128Y589006D01*
X11000Y588892D01*
X10952Y588833D01*
X10898Y588779D01*
X10797Y588641D01*
X10690Y588508D01*
X10653Y588442D01*
X10608Y588381D01*
X10531Y588228D01*
X10446Y588080D01*
X10420Y588008D01*
X10385Y587940D01*
X10334Y587777D01*
X10275Y587617D01*
X10260Y587542D01*
X10237Y587470D01*
X10225Y587365D01*
X10180Y587133D01*
X10173Y586897D01*
X10161Y586792D01*
X10161Y420593D01*
X10168Y420498D01*
X10167Y420403D01*
X10188Y420253D01*
X10201Y420101D01*
X10224Y420009D01*
X10237Y419915D01*
X10283Y419770D01*
X10319Y419622D01*
X10357Y419535D01*
X10386Y419444D01*
X10454Y419309D01*
X10514Y419169D01*
X10565Y419089D01*
X10608Y419004D01*
X10697Y418881D01*
X10779Y418753D01*
X10842Y418682D01*
X10898Y418605D01*
X11007Y418498D01*
X11108Y418385D01*
X11182Y418325D01*
X11249Y418258D01*
X11373Y418171D01*
X11492Y418075D01*
X11574Y418028D01*
X11652Y417973D01*
X11788Y417906D01*
X11920Y417831D01*
X12010Y417798D01*
X12095Y417756D01*
X12240Y417712D01*
X12383Y417660D01*
X12476Y417641D01*
X12567Y417614D01*
X12718Y417594D01*
X12867Y417565D01*
X12962Y417562D01*
X13056Y417550D01*
X13208Y417554D01*
X13360Y417550D01*
X13454Y417562D01*
X13550Y417565D01*
X13699Y417594D01*
X13849Y417614D01*
X13940Y417641D01*
X14034Y417660D01*
X14176Y417713D01*
X14321Y417756D01*
X14407Y417798D01*
X14496Y417831D01*
X14628Y417907D01*
X14765Y417973D01*
X14842Y418028D01*
X14925Y418075D01*
X15043Y418171D01*
X15167Y418259D01*
X15235Y418326D01*
X15309Y418386D01*
X15410Y418499D01*
X15518Y418606D01*
X15574Y418682D01*
X15637Y418753D01*
X15719Y418882D01*
X15808Y419004D01*
X15851Y419089D01*
X15902Y419170D01*
X15939Y419264D01*
X16031Y419445D01*
X16114Y419708D01*
X16151Y419804D01*
X16257Y420199D01*
X20228Y427077D01*
X25843Y432692D01*
X32721Y436663D01*
X40392Y438718D01*
X48333Y438718D01*
X56004Y436663D01*
X62882Y432692D01*
X68497Y427077D01*
X72468Y420199D01*
X74523Y412528D01*
X74523Y404587D01*
X72468Y396916D01*
X68497Y390038D01*
X62882Y384423D01*
X56004Y380452D01*
X48333Y378397D01*
X40392Y378397D01*
X32721Y380452D01*
X25843Y384423D01*
X20228Y390038D01*
X16257Y396916D01*
X16151Y397311D01*
X16119Y397400D01*
X16097Y397493D01*
X16037Y397632D01*
X15986Y397775D01*
X15940Y397858D01*
X15902Y397946D01*
X15820Y398074D01*
X15747Y398207D01*
X15688Y398282D01*
X15637Y398362D01*
X15536Y398475D01*
X15442Y398595D01*
X15372Y398659D01*
X15308Y398730D01*
X15190Y398825D01*
X15078Y398928D01*
X14998Y398980D01*
X14924Y399040D01*
X14793Y399115D01*
X14665Y399198D01*
X14578Y399237D01*
X14496Y399284D01*
X14353Y399337D01*
X14214Y399398D01*
X14122Y399422D01*
X14033Y399455D01*
X13884Y399485D01*
X13737Y399523D01*
X13642Y399532D01*
X13549Y399550D01*
X13397Y399555D01*
X13246Y399569D01*
X13151Y399562D01*
X13056Y399565D01*
X12905Y399546D01*
X12754Y399535D01*
X12661Y399513D01*
X12567Y399501D01*
X12422Y399457D01*
X12273Y399422D01*
X12186Y399386D01*
X12094Y399359D01*
X11958Y399292D01*
X11818Y399234D01*
X11737Y399183D01*
X11651Y399142D01*
X11528Y399054D01*
X11398Y398974D01*
X11327Y398911D01*
X11249Y398856D01*
X11141Y398749D01*
X11026Y398650D01*
X10966Y398576D01*
X10898Y398509D01*
X10809Y398387D01*
X10712Y398270D01*
X10664Y398188D01*
X10608Y398111D01*
X10539Y397975D01*
X10462Y397844D01*
X10428Y397755D01*
X10385Y397670D01*
X10340Y397526D01*
X10285Y397384D01*
X10266Y397290D01*
X10237Y397200D01*
X10226Y397099D01*
X10184Y396901D01*
X10172Y396625D01*
X10161Y396522D01*
X10161Y48141D01*
X10176Y47952D01*
X10184Y47762D01*
X10196Y47706D01*
X10201Y47649D01*
X10246Y47465D01*
X10285Y47279D01*
X10306Y47226D01*
X10319Y47170D01*
X10394Y46996D01*
X10463Y46819D01*
X10491Y46769D01*
X10514Y46717D01*
X10616Y46557D01*
X10712Y46393D01*
X10748Y46349D01*
X10779Y46301D01*
X10905Y46159D01*
X11027Y46013D01*
X11070Y45976D01*
X11108Y45933D01*
X11255Y45814D01*
X11399Y45689D01*
X11447Y45659D01*
X11492Y45623D01*
X11657Y45529D01*
X11818Y45429D01*
X11871Y45407D01*
X11920Y45379D01*
X12099Y45313D01*
X12274Y45240D01*
X12329Y45227D01*
X12383Y45207D01*
X12569Y45171D01*
X12754Y45128D01*
X12811Y45124D01*
X12867Y45113D01*
X13057Y45107D01*
X13246Y45094D01*
X13303Y45099D01*
G37*
G36*
X817194Y79509D02*
X817194Y79509D01*
X817270Y79507D01*
X817439Y79529D01*
X817610Y79543D01*
X817684Y79561D01*
X817759Y79571D01*
X817923Y79621D01*
X818089Y79662D01*
X818159Y79692D01*
X818232Y79714D01*
X818385Y79789D01*
X818542Y79856D01*
X818606Y79897D01*
X818675Y79931D01*
X818814Y80030D01*
X818958Y80121D01*
X819015Y80172D01*
X819077Y80216D01*
X819199Y80336D01*
X819326Y80450D01*
X819374Y80509D01*
X819428Y80563D01*
X819529Y80701D01*
X819636Y80834D01*
X819674Y80900D01*
X819718Y80962D01*
X819795Y81114D01*
X819880Y81263D01*
X819906Y81334D01*
X819941Y81402D01*
X819992Y81565D01*
X820052Y81725D01*
X820066Y81800D01*
X820089Y81873D01*
X820101Y81977D01*
X820146Y82209D01*
X820154Y82445D01*
X820165Y82550D01*
X820165Y94113D01*
X821701Y93614D01*
X822339Y93289D01*
X822388Y93269D01*
X822434Y93242D01*
X822616Y93175D01*
X822795Y93101D01*
X822847Y93089D01*
X822897Y93071D01*
X823087Y93034D01*
X823275Y92990D01*
X823329Y92986D01*
X823381Y92976D01*
X823574Y92970D01*
X823768Y92957D01*
X823821Y92962D01*
X823874Y92961D01*
X824066Y92986D01*
X824259Y93005D01*
X824310Y93018D01*
X824363Y93025D01*
X824549Y93081D01*
X824736Y93131D01*
X824784Y93152D01*
X824836Y93168D01*
X825010Y93253D01*
X825186Y93332D01*
X825231Y93361D01*
X825279Y93385D01*
X825436Y93496D01*
X825598Y93603D01*
X825638Y93639D01*
X825681Y93670D01*
X825818Y93806D01*
X825961Y93937D01*
X825994Y93979D01*
X826032Y94017D01*
X826146Y94173D01*
X826265Y94326D01*
X826291Y94372D01*
X826322Y94416D01*
X826410Y94588D01*
X826503Y94758D01*
X826521Y94808D01*
X826545Y94856D01*
X826603Y95041D01*
X826667Y95223D01*
X826677Y95275D01*
X826693Y95326D01*
X826704Y95429D01*
X826755Y95709D01*
X826758Y95905D01*
X826769Y96004D01*
X826769Y118125D01*
X826760Y118239D01*
X826761Y118353D01*
X826740Y118484D01*
X826729Y118617D01*
X826702Y118727D01*
X826684Y118840D01*
X826643Y118967D01*
X826611Y119095D01*
X826566Y119200D01*
X826530Y119309D01*
X826468Y119427D01*
X826416Y119549D01*
X826355Y119645D01*
X826302Y119746D01*
X826243Y119820D01*
X826151Y119965D01*
X825935Y120207D01*
X825877Y120280D01*
X816748Y129409D01*
X816661Y129483D01*
X816580Y129564D01*
X816473Y129642D01*
X816372Y129728D01*
X816274Y129787D01*
X816182Y129854D01*
X816063Y129914D01*
X815949Y129983D01*
X815843Y130025D01*
X815741Y130077D01*
X815614Y130117D01*
X815491Y130166D01*
X815380Y130191D01*
X815271Y130225D01*
X815177Y130235D01*
X815009Y130273D01*
X814685Y130291D01*
X814593Y130301D01*
X779682Y130301D01*
X778561Y130765D01*
X765164Y144163D01*
X764998Y144304D01*
X764834Y144449D01*
X764809Y144464D01*
X764788Y144482D01*
X764600Y144595D01*
X764416Y144711D01*
X764390Y144722D01*
X764365Y144737D01*
X764162Y144818D01*
X763961Y144903D01*
X763933Y144909D01*
X763907Y144920D01*
X763694Y144967D01*
X763482Y145018D01*
X763453Y145021D01*
X763425Y145027D01*
X763207Y145039D01*
X762990Y145055D01*
X762961Y145053D01*
X762933Y145054D01*
X762715Y145031D01*
X762498Y145012D01*
X762476Y145006D01*
X762442Y145002D01*
X761967Y144871D01*
X761893Y144838D01*
X761843Y144823D01*
X761736Y144779D01*
X758199Y144779D01*
X754932Y146133D01*
X752431Y148634D01*
X752282Y148994D01*
X752182Y149188D01*
X752086Y149385D01*
X752069Y149408D01*
X752056Y149433D01*
X751927Y149609D01*
X751800Y149787D01*
X751780Y149807D01*
X751764Y149830D01*
X751607Y149983D01*
X751454Y150138D01*
X751431Y150155D01*
X751410Y150175D01*
X751231Y150300D01*
X751055Y150428D01*
X751030Y150441D01*
X751006Y150458D01*
X750809Y150553D01*
X750614Y150651D01*
X750587Y150659D01*
X750562Y150672D01*
X750352Y150733D01*
X750144Y150799D01*
X750121Y150802D01*
X750089Y150811D01*
X749599Y150872D01*
X749519Y150869D01*
X749466Y150875D01*
X747478Y150875D01*
X747332Y150927D01*
X747159Y150996D01*
X747099Y151009D01*
X747042Y151030D01*
X746859Y151063D01*
X746677Y151103D01*
X746616Y151106D01*
X746556Y151117D01*
X746371Y151120D01*
X746185Y151131D01*
X746124Y151124D01*
X746063Y151125D01*
X745879Y151098D01*
X745694Y151078D01*
X745635Y151062D01*
X745575Y151053D01*
X745397Y150997D01*
X745218Y150948D01*
X745163Y150922D01*
X745105Y150904D01*
X744939Y150820D01*
X744770Y150742D01*
X744719Y150708D01*
X744665Y150680D01*
X744515Y150570D01*
X744361Y150467D01*
X744316Y150425D01*
X744267Y150389D01*
X744136Y150256D01*
X744001Y150129D01*
X743964Y150080D01*
X743921Y150037D01*
X743863Y149949D01*
X743701Y149737D01*
X743602Y149553D01*
X743545Y149468D01*
X743041Y148478D01*
X742124Y147216D01*
X741022Y146114D01*
X739760Y145197D01*
X738371Y144489D01*
X737615Y144244D01*
X737615Y153670D01*
X737609Y153746D01*
X737612Y153822D01*
X737589Y153991D01*
X737575Y154161D01*
X737557Y154235D01*
X737547Y154311D01*
X737498Y154475D01*
X737457Y154640D01*
X737427Y154710D01*
X737405Y154783D01*
X737330Y154937D01*
X737262Y155094D01*
X737221Y155158D01*
X737188Y155226D01*
X737089Y155366D01*
X736997Y155510D01*
X736946Y155566D01*
X736902Y155629D01*
X736782Y155750D01*
X736668Y155878D01*
X736609Y155926D01*
X736555Y155980D01*
X736417Y156081D01*
X736284Y156188D01*
X736218Y156226D01*
X736156Y156270D01*
X736004Y156347D01*
X735855Y156432D01*
X735784Y156458D01*
X735716Y156493D01*
X735553Y156544D01*
X735393Y156604D01*
X735318Y156618D01*
X735245Y156641D01*
X735141Y156653D01*
X734909Y156698D01*
X734673Y156706D01*
X734568Y156717D01*
X725142Y156717D01*
X725248Y157046D01*
X725263Y157106D01*
X725284Y157163D01*
X725320Y157345D01*
X725362Y157526D01*
X725367Y157587D01*
X725378Y157647D01*
X725384Y157833D01*
X725397Y158018D01*
X725392Y158079D01*
X725394Y158140D01*
X725370Y158325D01*
X725353Y158510D01*
X725337Y158569D01*
X725329Y158629D01*
X725276Y158807D01*
X725229Y158987D01*
X725205Y159043D01*
X725187Y159102D01*
X725105Y159268D01*
X725030Y159439D01*
X724997Y159490D01*
X724970Y159545D01*
X724863Y159696D01*
X724761Y159852D01*
X724720Y159897D01*
X724685Y159947D01*
X724554Y160079D01*
X724429Y160217D01*
X724381Y160255D01*
X724338Y160298D01*
X724188Y160407D01*
X724042Y160523D01*
X723988Y160552D01*
X723939Y160588D01*
X723773Y160672D01*
X723610Y160763D01*
X723553Y160783D01*
X723499Y160811D01*
X723321Y160867D01*
X723146Y160929D01*
X723086Y160941D01*
X723028Y160959D01*
X722924Y160971D01*
X722661Y161019D01*
X722452Y161024D01*
X722350Y161035D01*
X720301Y161035D01*
X720121Y161021D01*
X719941Y161014D01*
X719876Y161001D01*
X719809Y160995D01*
X719634Y160952D01*
X719457Y160916D01*
X719395Y160893D01*
X719330Y160877D01*
X719164Y160805D01*
X718996Y160742D01*
X718938Y160708D01*
X718877Y160682D01*
X718725Y160585D01*
X718569Y160495D01*
X718517Y160453D01*
X718461Y160417D01*
X718327Y160297D01*
X718187Y160182D01*
X718143Y160133D01*
X718093Y160088D01*
X717980Y159948D01*
X717860Y159813D01*
X717825Y159756D01*
X717783Y159704D01*
X717694Y159548D01*
X717598Y159395D01*
X717572Y159333D01*
X717539Y159276D01*
X717476Y159106D01*
X717406Y158940D01*
X717391Y158876D01*
X717368Y158813D01*
X717333Y158636D01*
X717291Y158461D01*
X717286Y158394D01*
X717273Y158329D01*
X717267Y158149D01*
X717254Y157969D01*
X717260Y157902D01*
X717258Y157836D01*
X717281Y157657D01*
X717297Y157477D01*
X717311Y157427D01*
X717322Y157347D01*
X717464Y156875D01*
X717479Y156844D01*
X717486Y156822D01*
X718059Y155438D01*
X718059Y151902D01*
X717868Y151441D01*
X717801Y151233D01*
X717791Y151205D01*
X717774Y151159D01*
X717773Y151151D01*
X717730Y151027D01*
X717725Y150998D01*
X717717Y150971D01*
X717684Y150756D01*
X717648Y150540D01*
X717647Y150512D01*
X717643Y150484D01*
X717646Y150266D01*
X717645Y150047D01*
X717649Y150019D01*
X717649Y149990D01*
X717687Y149776D01*
X717721Y149559D01*
X717730Y149532D01*
X717735Y149504D01*
X717807Y149299D01*
X717875Y149091D01*
X717889Y149066D01*
X717898Y149039D01*
X718002Y148847D01*
X718103Y148653D01*
X718118Y148635D01*
X718134Y148606D01*
X718437Y148216D01*
X718496Y148161D01*
X718529Y148120D01*
X720722Y145926D01*
X720734Y145916D01*
X720744Y145905D01*
X720923Y145756D01*
X721098Y145607D01*
X721111Y145599D01*
X721123Y145589D01*
X721323Y145471D01*
X721521Y145352D01*
X721535Y145346D01*
X721548Y145339D01*
X721763Y145256D01*
X721979Y145169D01*
X721994Y145166D01*
X722008Y145160D01*
X722234Y145112D01*
X722461Y145062D01*
X722476Y145061D01*
X722491Y145058D01*
X722722Y145048D01*
X722953Y145035D01*
X722969Y145036D01*
X722984Y145036D01*
X723213Y145062D01*
X723444Y145087D01*
X723459Y145091D01*
X723474Y145093D01*
X723697Y145156D01*
X723920Y145218D01*
X723933Y145224D01*
X723948Y145228D01*
X724158Y145327D01*
X724368Y145423D01*
X724381Y145432D01*
X724395Y145438D01*
X724586Y145570D01*
X724777Y145699D01*
X724788Y145709D01*
X724801Y145718D01*
X724968Y145878D01*
X725137Y146036D01*
X725146Y146049D01*
X725157Y146059D01*
X725296Y146245D01*
X725437Y146428D01*
X725444Y146441D01*
X725454Y146454D01*
X725560Y146658D01*
X725670Y146863D01*
X725675Y146877D01*
X725682Y146891D01*
X725755Y147110D01*
X725830Y147329D01*
X725833Y147344D01*
X725838Y147359D01*
X725874Y147587D01*
X725913Y147816D01*
X725913Y147831D01*
X725915Y147846D01*
X725914Y148077D01*
X725916Y148309D01*
X725914Y148324D01*
X725913Y148339D01*
X725875Y148568D01*
X725839Y148796D01*
X725835Y148811D01*
X725832Y148826D01*
X725812Y148879D01*
X725685Y149265D01*
X725621Y149388D01*
X725592Y149464D01*
X725387Y149867D01*
X725142Y150623D01*
X731521Y150623D01*
X731521Y144244D01*
X730765Y144489D01*
X730362Y144694D01*
X730348Y144700D01*
X730335Y144708D01*
X730120Y144794D01*
X729906Y144882D01*
X729891Y144885D01*
X729877Y144891D01*
X729651Y144941D01*
X729426Y144994D01*
X729411Y144995D01*
X729395Y144998D01*
X729163Y145011D01*
X728933Y145026D01*
X728918Y145025D01*
X728903Y145026D01*
X728672Y145001D01*
X728442Y144979D01*
X728428Y144975D01*
X728412Y144973D01*
X728189Y144912D01*
X727965Y144853D01*
X727951Y144847D01*
X727937Y144843D01*
X727726Y144746D01*
X727515Y144652D01*
X727502Y144643D01*
X727488Y144637D01*
X727295Y144507D01*
X727103Y144380D01*
X727092Y144370D01*
X727079Y144362D01*
X726910Y144203D01*
X726740Y144046D01*
X726731Y144034D01*
X726719Y144024D01*
X726578Y143840D01*
X726436Y143658D01*
X726428Y143644D01*
X726419Y143632D01*
X726310Y143429D01*
X726198Y143226D01*
X726193Y143211D01*
X726186Y143198D01*
X726111Y142979D01*
X726034Y142760D01*
X726031Y142745D01*
X726026Y142731D01*
X725987Y142503D01*
X725946Y142275D01*
X725946Y142260D01*
X725943Y142245D01*
X725942Y142013D01*
X725938Y141782D01*
X725940Y141767D01*
X725940Y141751D01*
X725976Y141522D01*
X726010Y141294D01*
X726014Y141279D01*
X726017Y141264D01*
X726089Y141043D01*
X726159Y140823D01*
X726166Y140810D01*
X726171Y140795D01*
X726279Y140589D01*
X726383Y140384D01*
X726392Y140371D01*
X726399Y140358D01*
X726434Y140313D01*
X726674Y139986D01*
X726773Y139888D01*
X726824Y139824D01*
X742311Y124337D01*
X742398Y124263D01*
X742479Y124182D01*
X742586Y124104D01*
X742687Y124018D01*
X742785Y123959D01*
X742877Y123892D01*
X742996Y123832D01*
X743110Y123763D01*
X743216Y123721D01*
X743318Y123669D01*
X743445Y123629D01*
X743568Y123580D01*
X743679Y123555D01*
X743788Y123521D01*
X743882Y123511D01*
X744050Y123473D01*
X744374Y123455D01*
X744466Y123445D01*
X784018Y123445D01*
X785138Y122981D01*
X807257Y100862D01*
X807721Y99742D01*
X807721Y96134D01*
X807725Y96080D01*
X807723Y96027D01*
X807745Y95835D01*
X807761Y95642D01*
X807774Y95590D01*
X807780Y95537D01*
X807833Y95351D01*
X807879Y95163D01*
X807900Y95114D01*
X807915Y95063D01*
X807998Y94888D01*
X808074Y94710D01*
X808103Y94665D01*
X808125Y94616D01*
X808235Y94457D01*
X808339Y94294D01*
X808375Y94254D01*
X808405Y94210D01*
X808539Y94070D01*
X808668Y93926D01*
X808709Y93892D01*
X808746Y93854D01*
X808901Y93737D01*
X809052Y93616D01*
X809098Y93589D01*
X809141Y93557D01*
X809312Y93468D01*
X809480Y93372D01*
X809530Y93353D01*
X809578Y93328D01*
X809761Y93268D01*
X809943Y93200D01*
X809995Y93190D01*
X810046Y93173D01*
X810237Y93143D01*
X810427Y93106D01*
X810480Y93104D01*
X810533Y93095D01*
X810727Y93096D01*
X810920Y93090D01*
X810973Y93097D01*
X811026Y93097D01*
X811218Y93129D01*
X811409Y93155D01*
X811460Y93170D01*
X811513Y93179D01*
X811609Y93215D01*
X811881Y93297D01*
X812058Y93383D01*
X812152Y93419D01*
X812535Y93614D01*
X814071Y94113D01*
X814071Y82550D01*
X814077Y82474D01*
X814074Y82398D01*
X814097Y82229D01*
X814111Y82059D01*
X814129Y81985D01*
X814139Y81909D01*
X814188Y81745D01*
X814229Y81580D01*
X814259Y81510D01*
X814281Y81437D01*
X814356Y81283D01*
X814424Y81126D01*
X814465Y81062D01*
X814498Y80994D01*
X814597Y80854D01*
X814689Y80710D01*
X814740Y80654D01*
X814784Y80591D01*
X814904Y80470D01*
X815018Y80342D01*
X815077Y80295D01*
X815130Y80240D01*
X815269Y80140D01*
X815401Y80033D01*
X815468Y79995D01*
X815529Y79950D01*
X815682Y79873D01*
X815830Y79789D01*
X815902Y79762D01*
X815970Y79728D01*
X816132Y79676D01*
X816293Y79617D01*
X816367Y79602D01*
X816440Y79579D01*
X816545Y79568D01*
X816777Y79522D01*
X817013Y79515D01*
X817118Y79503D01*
X817194Y79509D01*
G37*
%LPC*%
G36*
X874765Y407528D02*
X874765Y407528D01*
X873091Y408381D01*
X871570Y409486D01*
X870242Y410814D01*
X869137Y412335D01*
X868851Y412895D01*
X868765Y413036D01*
X868686Y413181D01*
X868636Y413246D01*
X868593Y413315D01*
X868484Y413441D01*
X868383Y413571D01*
X868323Y413626D01*
X868270Y413688D01*
X868142Y413794D01*
X868021Y413906D01*
X867953Y413951D01*
X867890Y414004D01*
X867748Y414088D01*
X867610Y414179D01*
X867536Y414213D01*
X867465Y414254D01*
X867311Y414314D01*
X867160Y414382D01*
X867082Y414403D01*
X867005Y414433D01*
X866843Y414467D01*
X866684Y414510D01*
X866603Y414518D01*
X866523Y414535D01*
X866357Y414542D01*
X866193Y414559D01*
X866112Y414554D01*
X866030Y414557D01*
X865865Y414538D01*
X865701Y414528D01*
X865621Y414510D01*
X865540Y414500D01*
X865381Y414455D01*
X865220Y414418D01*
X865144Y414387D01*
X865066Y414365D01*
X864916Y414294D01*
X864763Y414232D01*
X864693Y414189D01*
X864619Y414155D01*
X864483Y414061D01*
X864342Y413975D01*
X864280Y413922D01*
X864213Y413875D01*
X864093Y413761D01*
X863968Y413653D01*
X863915Y413590D01*
X863857Y413534D01*
X863757Y413402D01*
X863651Y413275D01*
X863620Y413219D01*
X863560Y413139D01*
X863331Y412702D01*
X863326Y412688D01*
X863321Y412678D01*
X863208Y412405D01*
X860135Y409332D01*
X856121Y407669D01*
X851775Y407669D01*
X847761Y409332D01*
X844688Y412405D01*
X844063Y413913D01*
X844046Y413947D01*
X844033Y413983D01*
X843934Y414166D01*
X843838Y414352D01*
X843816Y414383D01*
X843797Y414417D01*
X843669Y414582D01*
X843545Y414749D01*
X843518Y414776D01*
X843495Y414806D01*
X843341Y414948D01*
X843192Y415094D01*
X843161Y415116D01*
X843133Y415142D01*
X842959Y415257D01*
X842788Y415377D01*
X842754Y415393D01*
X842722Y415414D01*
X842532Y415500D01*
X842344Y415591D01*
X842307Y415602D01*
X842272Y415617D01*
X842071Y415671D01*
X841870Y415730D01*
X841832Y415735D01*
X841796Y415745D01*
X841588Y415766D01*
X841381Y415792D01*
X841343Y415790D01*
X841305Y415794D01*
X841096Y415781D01*
X840888Y415773D01*
X840850Y415766D01*
X840812Y415763D01*
X840609Y415717D01*
X840404Y415675D01*
X840369Y415662D01*
X840331Y415653D01*
X840138Y415575D01*
X839943Y415501D01*
X839910Y415482D01*
X839875Y415467D01*
X839696Y415358D01*
X839516Y415254D01*
X839486Y415230D01*
X839454Y415210D01*
X839295Y415074D01*
X839134Y414942D01*
X839109Y414913D01*
X839080Y414888D01*
X838946Y414729D01*
X838807Y414572D01*
X838787Y414539D01*
X838763Y414510D01*
X838718Y414429D01*
X838545Y414154D01*
X838478Y413995D01*
X838433Y413913D01*
X837808Y412405D01*
X834735Y409332D01*
X830721Y407669D01*
X826375Y407669D01*
X822361Y409332D01*
X819288Y412405D01*
X817625Y416419D01*
X817625Y420765D01*
X819288Y424779D01*
X822361Y427852D01*
X826375Y429515D01*
X830721Y429515D01*
X834735Y427852D01*
X837808Y424779D01*
X838433Y423271D01*
X838450Y423237D01*
X838463Y423201D01*
X838563Y423017D01*
X838658Y422832D01*
X838680Y422801D01*
X838699Y422767D01*
X838827Y422603D01*
X838951Y422435D01*
X838978Y422408D01*
X839001Y422378D01*
X839155Y422236D01*
X839304Y422090D01*
X839335Y422068D01*
X839363Y422042D01*
X839537Y421927D01*
X839708Y421807D01*
X839742Y421791D01*
X839774Y421770D01*
X839964Y421684D01*
X840153Y421593D01*
X840189Y421582D01*
X840224Y421567D01*
X840426Y421513D01*
X840626Y421454D01*
X840663Y421449D01*
X840700Y421439D01*
X840909Y421418D01*
X841115Y421392D01*
X841153Y421394D01*
X841191Y421390D01*
X841400Y421403D01*
X841608Y421411D01*
X841646Y421418D01*
X841684Y421421D01*
X841887Y421467D01*
X842092Y421509D01*
X842127Y421522D01*
X842165Y421531D01*
X842358Y421609D01*
X842553Y421683D01*
X842586Y421702D01*
X842622Y421717D01*
X842800Y421826D01*
X842980Y421930D01*
X843010Y421954D01*
X843042Y421974D01*
X843201Y422110D01*
X843362Y422242D01*
X843388Y422271D01*
X843416Y422296D01*
X843551Y422456D01*
X843689Y422612D01*
X843709Y422645D01*
X843733Y422674D01*
X843778Y422755D01*
X843951Y423030D01*
X844018Y423188D01*
X844063Y423271D01*
X844688Y424779D01*
X847761Y427852D01*
X851775Y429515D01*
X856121Y429515D01*
X860135Y427852D01*
X863208Y424779D01*
X863321Y424506D01*
X863396Y424359D01*
X863464Y424208D01*
X863509Y424140D01*
X863546Y424067D01*
X863644Y423934D01*
X863735Y423796D01*
X863791Y423736D01*
X863839Y423670D01*
X863957Y423555D01*
X864069Y423433D01*
X864134Y423383D01*
X864192Y423326D01*
X864328Y423231D01*
X864458Y423129D01*
X864529Y423089D01*
X864596Y423043D01*
X864746Y422971D01*
X864890Y422891D01*
X864967Y422864D01*
X865041Y422829D01*
X865199Y422782D01*
X865355Y422727D01*
X865436Y422712D01*
X865514Y422689D01*
X865678Y422668D01*
X865841Y422639D01*
X865922Y422638D01*
X866004Y422628D01*
X866169Y422634D01*
X866334Y422631D01*
X866415Y422643D01*
X866497Y422646D01*
X866659Y422679D01*
X866822Y422703D01*
X866900Y422728D01*
X866980Y422744D01*
X867134Y422802D01*
X867292Y422853D01*
X867365Y422890D01*
X867442Y422918D01*
X867585Y423001D01*
X867732Y423076D01*
X867798Y423124D01*
X867869Y423165D01*
X867996Y423270D01*
X868130Y423368D01*
X868187Y423426D01*
X868251Y423478D01*
X868360Y423601D01*
X868476Y423720D01*
X868511Y423773D01*
X868577Y423848D01*
X868839Y424265D01*
X868845Y424279D01*
X868851Y424289D01*
X869137Y424849D01*
X870242Y426370D01*
X871570Y427698D01*
X873091Y428803D01*
X874765Y429656D01*
X876301Y430155D01*
X876301Y418592D01*
X876301Y407029D01*
X874765Y407528D01*
G37*
%LPD*%
%LPC*%
G36*
X504404Y102389D02*
X504404Y102389D01*
X502454Y103197D01*
X500961Y104690D01*
X500153Y106640D01*
X500153Y108752D01*
X500961Y110702D01*
X501011Y110752D01*
X501085Y110839D01*
X501166Y110919D01*
X501244Y111026D01*
X501330Y111128D01*
X501389Y111225D01*
X501456Y111318D01*
X501516Y111436D01*
X501585Y111550D01*
X501627Y111656D01*
X501679Y111758D01*
X501719Y111885D01*
X501768Y112008D01*
X501793Y112120D01*
X501827Y112229D01*
X501837Y112322D01*
X501875Y112490D01*
X501893Y112814D01*
X501903Y112906D01*
X501903Y123174D01*
X501892Y123316D01*
X501890Y123459D01*
X501872Y123562D01*
X501863Y123666D01*
X501829Y123804D01*
X501804Y123944D01*
X501770Y124043D01*
X501745Y124144D01*
X501688Y124275D01*
X501641Y124410D01*
X501591Y124502D01*
X501550Y124598D01*
X501474Y124718D01*
X501405Y124843D01*
X501341Y124926D01*
X501285Y125014D01*
X501190Y125120D01*
X501103Y125233D01*
X501026Y125304D01*
X500956Y125382D01*
X500845Y125471D01*
X500741Y125568D01*
X500654Y125626D01*
X500572Y125692D01*
X500449Y125762D01*
X500330Y125841D01*
X500235Y125884D01*
X500199Y125904D01*
X500285Y125954D01*
X500413Y126016D01*
X500498Y126077D01*
X500588Y126129D01*
X500699Y126219D01*
X500815Y126302D01*
X500889Y126375D01*
X500970Y126442D01*
X501065Y126548D01*
X501166Y126649D01*
X501227Y126733D01*
X501297Y126811D01*
X501372Y126932D01*
X501456Y127047D01*
X501503Y127141D01*
X501559Y127229D01*
X501615Y127361D01*
X501679Y127488D01*
X501710Y127587D01*
X501751Y127684D01*
X501784Y127822D01*
X501827Y127958D01*
X501836Y128036D01*
X501866Y128163D01*
X501899Y128596D01*
X501903Y128636D01*
X501903Y143899D01*
X501894Y144013D01*
X501895Y144127D01*
X501874Y144259D01*
X501863Y144391D01*
X501836Y144502D01*
X501818Y144614D01*
X501777Y144741D01*
X501745Y144870D01*
X501700Y144975D01*
X501664Y145083D01*
X501602Y145201D01*
X501550Y145323D01*
X501489Y145419D01*
X501436Y145521D01*
X501377Y145594D01*
X501285Y145739D01*
X501069Y145981D01*
X501011Y146054D01*
X498431Y148634D01*
X497077Y151901D01*
X497077Y155439D01*
X498431Y158706D01*
X500932Y161207D01*
X504199Y162561D01*
X507737Y162561D01*
X511004Y161207D01*
X513505Y158706D01*
X514859Y155439D01*
X514859Y151901D01*
X513505Y148634D01*
X511004Y146133D01*
X510898Y146089D01*
X510703Y145989D01*
X510507Y145893D01*
X510484Y145877D01*
X510459Y145864D01*
X510283Y145734D01*
X510105Y145608D01*
X510085Y145588D01*
X510062Y145571D01*
X509910Y145415D01*
X509754Y145261D01*
X509737Y145238D01*
X509717Y145218D01*
X509592Y145039D01*
X509464Y144862D01*
X509451Y144837D01*
X509435Y144813D01*
X509340Y144617D01*
X509241Y144422D01*
X509233Y144395D01*
X509220Y144369D01*
X509159Y144160D01*
X509093Y143951D01*
X509090Y143928D01*
X509081Y143896D01*
X509020Y143406D01*
X509023Y143326D01*
X509017Y143273D01*
X509017Y112906D01*
X509026Y112793D01*
X509025Y112678D01*
X509046Y112547D01*
X509057Y112415D01*
X509084Y112304D01*
X509102Y112191D01*
X509143Y112065D01*
X509175Y111936D01*
X509220Y111831D01*
X509256Y111722D01*
X509318Y111604D01*
X509370Y111482D01*
X509431Y111386D01*
X509484Y111285D01*
X509543Y111211D01*
X509635Y111066D01*
X509851Y110824D01*
X509909Y110752D01*
X509959Y110702D01*
X510767Y108752D01*
X510767Y106640D01*
X509959Y104690D01*
X508466Y103197D01*
X506516Y102389D01*
X504404Y102389D01*
G37*
%LPD*%
%LPC*%
G36*
X801892Y539749D02*
X801892Y539749D01*
X797597Y541528D01*
X794310Y544815D01*
X792531Y549110D01*
X792531Y553758D01*
X794310Y558053D01*
X797597Y561340D01*
X801892Y563119D01*
X806540Y563119D01*
X810835Y561340D01*
X814122Y558053D01*
X815901Y553758D01*
X815901Y549110D01*
X814122Y544815D01*
X810835Y541528D01*
X806540Y539749D01*
X801892Y539749D01*
G37*
%LPD*%
%LPC*%
G36*
X583652Y58193D02*
X583652Y58193D01*
X581702Y59001D01*
X580209Y60494D01*
X579401Y62444D01*
X579401Y64556D01*
X580209Y66506D01*
X581718Y68015D01*
X581840Y68078D01*
X582052Y68187D01*
X582060Y68193D01*
X582069Y68197D01*
X582100Y68223D01*
X582449Y68480D01*
X582540Y68574D01*
X582602Y68623D01*
X583561Y69582D01*
X583635Y69669D01*
X583716Y69749D01*
X583794Y69856D01*
X583880Y69958D01*
X583939Y70055D01*
X584006Y70148D01*
X584066Y70266D01*
X584135Y70380D01*
X584177Y70486D01*
X584229Y70588D01*
X584269Y70715D01*
X584318Y70838D01*
X584343Y70950D01*
X584377Y71059D01*
X584387Y71152D01*
X584425Y71320D01*
X584443Y71644D01*
X584453Y71736D01*
X584453Y75438D01*
X584447Y75514D01*
X584449Y75590D01*
X584427Y75759D01*
X584413Y75930D01*
X584395Y76004D01*
X584385Y76079D01*
X584336Y76243D01*
X584295Y76409D01*
X584265Y76478D01*
X584243Y76552D01*
X584167Y76705D01*
X584100Y76862D01*
X584059Y76926D01*
X584026Y76995D01*
X583927Y77134D01*
X583835Y77278D01*
X583784Y77335D01*
X583740Y77397D01*
X583620Y77518D01*
X583506Y77646D01*
X583447Y77694D01*
X583393Y77748D01*
X583255Y77849D01*
X583122Y77956D01*
X583056Y77993D01*
X582995Y78038D01*
X582842Y78115D01*
X582694Y78200D01*
X582622Y78226D01*
X582554Y78261D01*
X582391Y78312D01*
X582231Y78371D01*
X582156Y78386D01*
X582084Y78409D01*
X581979Y78421D01*
X581747Y78466D01*
X581511Y78473D01*
X581406Y78485D01*
X578236Y78485D01*
X578226Y78484D01*
X578216Y78485D01*
X577981Y78465D01*
X577744Y78445D01*
X577735Y78443D01*
X577725Y78442D01*
X577687Y78431D01*
X577265Y78327D01*
X577145Y78275D01*
X577070Y78253D01*
X575858Y77751D01*
X573746Y77751D01*
X571796Y78559D01*
X570303Y80052D01*
X569495Y82002D01*
X569495Y84114D01*
X570303Y86064D01*
X571796Y87557D01*
X573746Y88365D01*
X575858Y88365D01*
X577070Y87863D01*
X577079Y87860D01*
X577088Y87855D01*
X577315Y87783D01*
X577539Y87711D01*
X577549Y87710D01*
X577558Y87707D01*
X577598Y87703D01*
X578027Y87638D01*
X578158Y87640D01*
X578236Y87631D01*
X589682Y87631D01*
X591362Y86935D01*
X592903Y85394D01*
X593599Y83714D01*
X593599Y67670D01*
X592903Y65990D01*
X590907Y63994D01*
X590897Y63982D01*
X590894Y63979D01*
X590833Y63907D01*
X590752Y63827D01*
X590674Y63720D01*
X590588Y63618D01*
X590580Y63605D01*
X590577Y63601D01*
X590566Y63583D01*
X590529Y63521D01*
X590462Y63428D01*
X590402Y63310D01*
X590333Y63196D01*
X590291Y63090D01*
X590258Y63025D01*
X590247Y63004D01*
X590242Y62994D01*
X590239Y62988D01*
X590238Y62983D01*
X589207Y60494D01*
X587714Y59001D01*
X585764Y58193D01*
X583652Y58193D01*
G37*
%LPD*%
%LPC*%
G36*
X957584Y60197D02*
X957584Y60197D01*
X951483Y66298D01*
X951483Y66910D01*
X951472Y67052D01*
X951470Y67195D01*
X951452Y67298D01*
X951443Y67402D01*
X951409Y67540D01*
X951384Y67680D01*
X951350Y67779D01*
X951325Y67881D01*
X951268Y68011D01*
X951221Y68146D01*
X951171Y68238D01*
X951130Y68334D01*
X951054Y68454D01*
X950985Y68579D01*
X950921Y68662D01*
X950865Y68750D01*
X950770Y68856D01*
X950683Y68969D01*
X950606Y69040D01*
X950536Y69118D01*
X950425Y69207D01*
X950321Y69304D01*
X950234Y69362D01*
X950152Y69428D01*
X950029Y69498D01*
X949910Y69577D01*
X949814Y69620D01*
X949724Y69672D01*
X949590Y69721D01*
X949460Y69780D01*
X949359Y69807D01*
X949261Y69843D01*
X949122Y69871D01*
X948984Y69908D01*
X948879Y69918D01*
X948777Y69938D01*
X948635Y69943D01*
X948493Y69957D01*
X948388Y69950D01*
X948284Y69953D01*
X948143Y69935D01*
X948000Y69926D01*
X947899Y69903D01*
X947795Y69889D01*
X947658Y69848D01*
X947519Y69816D01*
X947423Y69777D01*
X947323Y69747D01*
X947194Y69684D01*
X947062Y69630D01*
X946973Y69576D01*
X946879Y69530D01*
X946763Y69447D01*
X946642Y69373D01*
X946562Y69305D01*
X946477Y69244D01*
X946376Y69144D01*
X946268Y69051D01*
X946200Y68971D01*
X946126Y68898D01*
X946042Y68782D01*
X945951Y68673D01*
X945913Y68604D01*
X945836Y68499D01*
X945640Y68112D01*
X945621Y68076D01*
X944466Y65288D01*
X941822Y62644D01*
X938368Y61213D01*
X934628Y61213D01*
X931174Y62644D01*
X928530Y65288D01*
X927099Y68742D01*
X927099Y72482D01*
X928530Y75936D01*
X931174Y78580D01*
X934628Y80011D01*
X938368Y80011D01*
X941822Y78580D01*
X944466Y75936D01*
X945621Y73148D01*
X945686Y73021D01*
X945742Y72890D01*
X945798Y72802D01*
X945846Y72709D01*
X945931Y72594D01*
X946007Y72474D01*
X946077Y72396D01*
X946139Y72312D01*
X946241Y72212D01*
X946336Y72106D01*
X946417Y72041D01*
X946492Y71967D01*
X946609Y71886D01*
X946720Y71796D01*
X946810Y71745D01*
X946896Y71684D01*
X947024Y71623D01*
X947148Y71552D01*
X947246Y71516D01*
X947341Y71470D01*
X947477Y71430D01*
X947611Y71381D01*
X947713Y71360D01*
X947814Y71331D01*
X947955Y71313D01*
X948095Y71286D01*
X948199Y71283D01*
X948303Y71270D01*
X948446Y71275D01*
X948588Y71271D01*
X948692Y71284D01*
X948796Y71288D01*
X948936Y71316D01*
X949077Y71335D01*
X949177Y71365D01*
X949280Y71386D01*
X949413Y71436D01*
X949550Y71477D01*
X949643Y71523D01*
X949741Y71560D01*
X949865Y71632D01*
X949993Y71694D01*
X950078Y71755D01*
X950168Y71807D01*
X950279Y71897D01*
X950395Y71980D01*
X950469Y72053D01*
X950550Y72119D01*
X950645Y72226D01*
X950746Y72326D01*
X950807Y72411D01*
X950877Y72489D01*
X950953Y72610D01*
X951036Y72725D01*
X951083Y72819D01*
X951139Y72907D01*
X951194Y73039D01*
X951259Y73166D01*
X951290Y73265D01*
X951331Y73362D01*
X951364Y73500D01*
X951407Y73636D01*
X951416Y73714D01*
X951446Y73841D01*
X951479Y74274D01*
X951483Y74314D01*
X951483Y74926D01*
X957584Y81027D01*
X958851Y81027D01*
X958851Y70612D01*
X958851Y60197D01*
X957584Y60197D01*
G37*
%LPD*%
%LPC*%
G36*
X783599Y144779D02*
X783599Y144779D01*
X779949Y146291D01*
X779813Y146335D01*
X779681Y146388D01*
X779579Y146411D01*
X779480Y146443D01*
X779339Y146464D01*
X779199Y146495D01*
X779095Y146501D01*
X778992Y146516D01*
X778849Y146514D01*
X778707Y146522D01*
X778603Y146511D01*
X778498Y146510D01*
X778358Y146485D01*
X778216Y146470D01*
X778147Y146451D01*
X778151Y146474D01*
X778184Y146612D01*
X778192Y146717D01*
X778210Y146820D01*
X778211Y146962D01*
X778221Y147104D01*
X778212Y147208D01*
X778213Y147313D01*
X778191Y147454D01*
X778178Y147596D01*
X778156Y147671D01*
X778136Y147800D01*
X778000Y148213D01*
X777989Y148251D01*
X776477Y151901D01*
X776477Y155439D01*
X777831Y158706D01*
X780332Y161207D01*
X783599Y162561D01*
X787137Y162561D01*
X790404Y161207D01*
X792905Y158706D01*
X794259Y155439D01*
X794259Y151901D01*
X792905Y148634D01*
X790404Y146133D01*
X787137Y144779D01*
X783599Y144779D01*
G37*
%LPD*%
%LPC*%
G36*
X770899Y265429D02*
X770899Y265429D01*
X767632Y266783D01*
X765131Y269284D01*
X763777Y272551D01*
X763777Y276089D01*
X765131Y279356D01*
X767632Y281857D01*
X770899Y283211D01*
X774437Y283211D01*
X777704Y281857D01*
X780205Y279356D01*
X781559Y276089D01*
X781559Y272551D01*
X780205Y269284D01*
X777704Y266783D01*
X774437Y265429D01*
X770899Y265429D01*
G37*
%LPD*%
%LPC*%
G36*
X453399Y170179D02*
X453399Y170179D01*
X450132Y171533D01*
X447631Y174034D01*
X446277Y177301D01*
X446277Y180839D01*
X447631Y184106D01*
X450132Y186607D01*
X453399Y187961D01*
X456937Y187961D01*
X460204Y186607D01*
X462705Y184106D01*
X464059Y180839D01*
X464059Y177301D01*
X462705Y174034D01*
X460204Y171533D01*
X456937Y170179D01*
X453399Y170179D01*
G37*
%LPD*%
%LPC*%
G36*
X745499Y265429D02*
X745499Y265429D01*
X742232Y266783D01*
X739731Y269284D01*
X738377Y272551D01*
X738377Y276089D01*
X739731Y279356D01*
X742232Y281857D01*
X745499Y283211D01*
X749037Y283211D01*
X752304Y281857D01*
X754805Y279356D01*
X756159Y276089D01*
X756159Y272551D01*
X754805Y269284D01*
X752304Y266783D01*
X749037Y265429D01*
X745499Y265429D01*
G37*
%LPD*%
%LPC*%
G36*
X847099Y265429D02*
X847099Y265429D01*
X843832Y266783D01*
X841331Y269284D01*
X839977Y272551D01*
X839977Y276089D01*
X841331Y279356D01*
X843832Y281857D01*
X847099Y283211D01*
X850637Y283211D01*
X853904Y281857D01*
X856405Y279356D01*
X857759Y276089D01*
X857759Y272551D01*
X856405Y269284D01*
X853904Y266783D01*
X850637Y265429D01*
X847099Y265429D01*
G37*
%LPD*%
%LPC*%
G36*
X821699Y265429D02*
X821699Y265429D01*
X818432Y266783D01*
X815931Y269284D01*
X814577Y272551D01*
X814577Y276089D01*
X815931Y279356D01*
X818432Y281857D01*
X821699Y283211D01*
X825237Y283211D01*
X828504Y281857D01*
X831005Y279356D01*
X832359Y276089D01*
X832359Y272551D01*
X831005Y269284D01*
X828504Y266783D01*
X825237Y265429D01*
X821699Y265429D01*
G37*
%LPD*%
%LPC*%
G36*
X453399Y246379D02*
X453399Y246379D01*
X450132Y247733D01*
X447631Y250234D01*
X446277Y253501D01*
X446277Y257039D01*
X447631Y260306D01*
X450132Y262807D01*
X453399Y264161D01*
X456937Y264161D01*
X460204Y262807D01*
X462705Y260306D01*
X464059Y257039D01*
X464059Y253501D01*
X462705Y250234D01*
X460204Y247733D01*
X456937Y246379D01*
X453399Y246379D01*
G37*
%LPD*%
%LPC*%
G36*
X453399Y195579D02*
X453399Y195579D01*
X450132Y196933D01*
X447631Y199434D01*
X446277Y202701D01*
X446277Y206239D01*
X447631Y209506D01*
X450132Y212007D01*
X453399Y213361D01*
X456937Y213361D01*
X460204Y212007D01*
X462705Y209506D01*
X464059Y206239D01*
X464059Y202701D01*
X462705Y199434D01*
X460204Y196933D01*
X456937Y195579D01*
X453399Y195579D01*
G37*
%LPD*%
%LPC*%
G36*
X605799Y297179D02*
X605799Y297179D01*
X602532Y298533D01*
X600031Y301034D01*
X598677Y304301D01*
X598677Y307839D01*
X600031Y311106D01*
X602532Y313607D01*
X605799Y314961D01*
X609337Y314961D01*
X612604Y313607D01*
X615105Y311106D01*
X616459Y307839D01*
X616459Y304301D01*
X615105Y301034D01*
X612604Y298533D01*
X609337Y297179D01*
X605799Y297179D01*
G37*
%LPD*%
%LPC*%
G36*
X796299Y265429D02*
X796299Y265429D01*
X793032Y266783D01*
X790531Y269284D01*
X789177Y272551D01*
X789177Y276089D01*
X790531Y279356D01*
X793032Y281857D01*
X796299Y283211D01*
X799837Y283211D01*
X803104Y281857D01*
X805605Y279356D01*
X806959Y276089D01*
X806959Y272551D01*
X805605Y269284D01*
X803104Y266783D01*
X799837Y265429D01*
X796299Y265429D01*
G37*
%LPD*%
%LPC*%
G36*
X504199Y297179D02*
X504199Y297179D01*
X500932Y298533D01*
X498431Y301034D01*
X497077Y304301D01*
X497077Y307839D01*
X498431Y311106D01*
X500932Y313607D01*
X504199Y314961D01*
X507737Y314961D01*
X511004Y313607D01*
X513505Y311106D01*
X514859Y307839D01*
X514859Y304301D01*
X513505Y301034D01*
X511004Y298533D01*
X507737Y297179D01*
X504199Y297179D01*
G37*
%LPD*%
%LPC*%
G36*
X554999Y297179D02*
X554999Y297179D01*
X551732Y298533D01*
X549231Y301034D01*
X547877Y304301D01*
X547877Y307839D01*
X549231Y311106D01*
X551732Y313607D01*
X554999Y314961D01*
X558537Y314961D01*
X561804Y313607D01*
X564305Y311106D01*
X565659Y307839D01*
X565659Y304301D01*
X564305Y301034D01*
X561804Y298533D01*
X558537Y297179D01*
X554999Y297179D01*
G37*
%LPD*%
%LPC*%
G36*
X529599Y297179D02*
X529599Y297179D01*
X526332Y298533D01*
X523831Y301034D01*
X522477Y304301D01*
X522477Y307839D01*
X523831Y311106D01*
X526332Y313607D01*
X529599Y314961D01*
X533137Y314961D01*
X536404Y313607D01*
X538905Y311106D01*
X540259Y307839D01*
X540259Y304301D01*
X538905Y301034D01*
X536404Y298533D01*
X533137Y297179D01*
X529599Y297179D01*
G37*
%LPD*%
%LPC*%
G36*
X580399Y297179D02*
X580399Y297179D01*
X577132Y298533D01*
X574631Y301034D01*
X573277Y304301D01*
X573277Y307839D01*
X574631Y311106D01*
X577132Y313607D01*
X580399Y314961D01*
X583937Y314961D01*
X587204Y313607D01*
X589705Y311106D01*
X591059Y307839D01*
X591059Y304301D01*
X589705Y301034D01*
X587204Y298533D01*
X583937Y297179D01*
X580399Y297179D01*
G37*
%LPD*%
%LPC*%
G36*
X326399Y297179D02*
X326399Y297179D01*
X323132Y298533D01*
X320631Y301034D01*
X319277Y304301D01*
X319277Y307839D01*
X320631Y311106D01*
X323132Y313607D01*
X326399Y314961D01*
X329937Y314961D01*
X333204Y313607D01*
X335705Y311106D01*
X337059Y307839D01*
X337059Y304301D01*
X335705Y301034D01*
X333204Y298533D01*
X329937Y297179D01*
X326399Y297179D01*
G37*
%LPD*%
%LPC*%
G36*
X453399Y271779D02*
X453399Y271779D01*
X450132Y273133D01*
X447631Y275634D01*
X446277Y278901D01*
X446277Y282439D01*
X447631Y285706D01*
X450132Y288207D01*
X453399Y289561D01*
X456937Y289561D01*
X460204Y288207D01*
X462705Y285706D01*
X464059Y282439D01*
X464059Y278901D01*
X462705Y275634D01*
X460204Y273133D01*
X456937Y271779D01*
X453399Y271779D01*
G37*
%LPD*%
%LPC*%
G36*
X783599Y170179D02*
X783599Y170179D01*
X780332Y171533D01*
X777831Y174034D01*
X776477Y177301D01*
X776477Y180839D01*
X777831Y184106D01*
X780332Y186607D01*
X783599Y187961D01*
X787137Y187961D01*
X790404Y186607D01*
X792905Y184106D01*
X794259Y180839D01*
X794259Y177301D01*
X792905Y174034D01*
X790404Y171533D01*
X787137Y170179D01*
X783599Y170179D01*
G37*
%LPD*%
%LPC*%
G36*
X808999Y170179D02*
X808999Y170179D01*
X805732Y171533D01*
X803231Y174034D01*
X801877Y177301D01*
X801877Y180839D01*
X803231Y184106D01*
X805732Y186607D01*
X808999Y187961D01*
X812537Y187961D01*
X815804Y186607D01*
X818305Y184106D01*
X819659Y180839D01*
X819659Y177301D01*
X818305Y174034D01*
X815804Y171533D01*
X812537Y170179D01*
X808999Y170179D01*
G37*
%LPD*%
%LPC*%
G36*
X885199Y170179D02*
X885199Y170179D01*
X881932Y171533D01*
X879431Y174034D01*
X878077Y177301D01*
X878077Y180839D01*
X879431Y184106D01*
X881932Y186607D01*
X885199Y187961D01*
X888737Y187961D01*
X892004Y186607D01*
X894505Y184106D01*
X895859Y180839D01*
X895859Y177301D01*
X894505Y174034D01*
X892004Y171533D01*
X888737Y170179D01*
X885199Y170179D01*
G37*
%LPD*%
%LPC*%
G36*
X834399Y170179D02*
X834399Y170179D01*
X831132Y171533D01*
X828631Y174034D01*
X827277Y177301D01*
X827277Y180839D01*
X828631Y184106D01*
X831132Y186607D01*
X834399Y187961D01*
X837937Y187961D01*
X841204Y186607D01*
X843705Y184106D01*
X845059Y180839D01*
X845059Y177301D01*
X843705Y174034D01*
X841204Y171533D01*
X837937Y170179D01*
X834399Y170179D01*
G37*
%LPD*%
%LPC*%
G36*
X910599Y144779D02*
X910599Y144779D01*
X907332Y146133D01*
X904831Y148634D01*
X903477Y151901D01*
X903477Y155439D01*
X904831Y158706D01*
X907332Y161207D01*
X910599Y162561D01*
X914137Y162561D01*
X917404Y161207D01*
X919905Y158706D01*
X921259Y155439D01*
X921259Y151901D01*
X919905Y148634D01*
X917404Y146133D01*
X914137Y144779D01*
X910599Y144779D01*
G37*
%LPD*%
%LPC*%
G36*
X326399Y144779D02*
X326399Y144779D01*
X323132Y146133D01*
X320631Y148634D01*
X319277Y151901D01*
X319277Y155439D01*
X320631Y158706D01*
X323132Y161207D01*
X326399Y162561D01*
X329937Y162561D01*
X333204Y161207D01*
X335705Y158706D01*
X337059Y155439D01*
X337059Y151901D01*
X335705Y148634D01*
X333204Y146133D01*
X329937Y144779D01*
X326399Y144779D01*
G37*
%LPD*%
%LPC*%
G36*
X580399Y144779D02*
X580399Y144779D01*
X577132Y146133D01*
X574631Y148634D01*
X573277Y151901D01*
X573277Y155439D01*
X574631Y158706D01*
X577132Y161207D01*
X580399Y162561D01*
X583937Y162561D01*
X587204Y161207D01*
X589705Y158706D01*
X591059Y155439D01*
X591059Y151901D01*
X589705Y148634D01*
X587204Y146133D01*
X583937Y144779D01*
X580399Y144779D01*
G37*
%LPD*%
%LPC*%
G36*
X554999Y144779D02*
X554999Y144779D01*
X551732Y146133D01*
X549231Y148634D01*
X547877Y151901D01*
X547877Y155439D01*
X549231Y158706D01*
X551732Y161207D01*
X554999Y162561D01*
X558537Y162561D01*
X561804Y161207D01*
X564305Y158706D01*
X565659Y155439D01*
X565659Y151901D01*
X564305Y148634D01*
X561804Y146133D01*
X558537Y144779D01*
X554999Y144779D01*
G37*
%LPD*%
%LPC*%
G36*
X529599Y144779D02*
X529599Y144779D01*
X526332Y146133D01*
X523831Y148634D01*
X522477Y151901D01*
X522477Y155439D01*
X523831Y158706D01*
X526332Y161207D01*
X529599Y162561D01*
X533137Y162561D01*
X536404Y161207D01*
X538905Y158706D01*
X540259Y155439D01*
X540259Y151901D01*
X538905Y148634D01*
X536404Y146133D01*
X533137Y144779D01*
X529599Y144779D01*
G37*
%LPD*%
%LPC*%
G36*
X478799Y144779D02*
X478799Y144779D01*
X475532Y146133D01*
X473031Y148634D01*
X471677Y151901D01*
X471677Y155439D01*
X473031Y158706D01*
X475532Y161207D01*
X478799Y162561D01*
X482337Y162561D01*
X485604Y161207D01*
X488105Y158706D01*
X489459Y155439D01*
X489459Y151901D01*
X488105Y148634D01*
X485604Y146133D01*
X482337Y144779D01*
X478799Y144779D01*
G37*
%LPD*%
%LPC*%
G36*
X402599Y144779D02*
X402599Y144779D01*
X399332Y146133D01*
X396831Y148634D01*
X395477Y151901D01*
X395477Y155439D01*
X396831Y158706D01*
X399332Y161207D01*
X402599Y162561D01*
X406137Y162561D01*
X409404Y161207D01*
X411905Y158706D01*
X413259Y155439D01*
X413259Y151901D01*
X411905Y148634D01*
X409404Y146133D01*
X406137Y144779D01*
X402599Y144779D01*
G37*
%LPD*%
%LPC*%
G36*
X351799Y144779D02*
X351799Y144779D01*
X348532Y146133D01*
X346031Y148634D01*
X344677Y151901D01*
X344677Y155439D01*
X346031Y158706D01*
X348532Y161207D01*
X351799Y162561D01*
X355337Y162561D01*
X358604Y161207D01*
X361105Y158706D01*
X362459Y155439D01*
X362459Y151901D01*
X361105Y148634D01*
X358604Y146133D01*
X355337Y144779D01*
X351799Y144779D01*
G37*
%LPD*%
%LPC*%
G36*
X605799Y144779D02*
X605799Y144779D01*
X602532Y146133D01*
X600031Y148634D01*
X598677Y151901D01*
X598677Y155439D01*
X600031Y158706D01*
X602532Y161207D01*
X605799Y162561D01*
X609337Y162561D01*
X612604Y161207D01*
X615105Y158706D01*
X616459Y155439D01*
X616459Y151901D01*
X615105Y148634D01*
X612604Y146133D01*
X609337Y144779D01*
X605799Y144779D01*
G37*
%LPD*%
%LPC*%
G36*
X631199Y144779D02*
X631199Y144779D01*
X627932Y146133D01*
X625431Y148634D01*
X624077Y151901D01*
X624077Y155439D01*
X625431Y158706D01*
X627932Y161207D01*
X631199Y162561D01*
X634737Y162561D01*
X638004Y161207D01*
X640505Y158706D01*
X641859Y155439D01*
X641859Y151901D01*
X640505Y148634D01*
X638004Y146133D01*
X634737Y144779D01*
X631199Y144779D01*
G37*
%LPD*%
%LPC*%
G36*
X834399Y144779D02*
X834399Y144779D01*
X831132Y146133D01*
X828631Y148634D01*
X827277Y151901D01*
X827277Y155439D01*
X828631Y158706D01*
X831132Y161207D01*
X834399Y162561D01*
X837937Y162561D01*
X841204Y161207D01*
X843705Y158706D01*
X845059Y155439D01*
X845059Y151901D01*
X843705Y148634D01*
X841204Y146133D01*
X837937Y144779D01*
X834399Y144779D01*
G37*
%LPD*%
%LPC*%
G36*
X681999Y297179D02*
X681999Y297179D01*
X678732Y298533D01*
X676231Y301034D01*
X674877Y304301D01*
X674877Y307839D01*
X676231Y311106D01*
X678732Y313607D01*
X681999Y314961D01*
X685537Y314961D01*
X688804Y313607D01*
X691305Y311106D01*
X692659Y307839D01*
X692659Y304301D01*
X691305Y301034D01*
X688804Y298533D01*
X685537Y297179D01*
X681999Y297179D01*
G37*
%LPD*%
%LPC*%
G36*
X478799Y297179D02*
X478799Y297179D01*
X475532Y298533D01*
X473031Y301034D01*
X471677Y304301D01*
X471677Y307839D01*
X473031Y311106D01*
X475532Y313607D01*
X478799Y314961D01*
X482337Y314961D01*
X485604Y313607D01*
X488105Y311106D01*
X489459Y307839D01*
X489459Y304301D01*
X488105Y301034D01*
X485604Y298533D01*
X482337Y297179D01*
X478799Y297179D01*
G37*
%LPD*%
%LPC*%
G36*
X453399Y297179D02*
X453399Y297179D01*
X450132Y298533D01*
X447631Y301034D01*
X446277Y304301D01*
X446277Y307839D01*
X447631Y311106D01*
X450132Y313607D01*
X453399Y314961D01*
X456937Y314961D01*
X460204Y313607D01*
X462705Y311106D01*
X464059Y307839D01*
X464059Y304301D01*
X462705Y301034D01*
X460204Y298533D01*
X456937Y297179D01*
X453399Y297179D01*
G37*
%LPD*%
%LPC*%
G36*
X377199Y297179D02*
X377199Y297179D01*
X373932Y298533D01*
X371431Y301034D01*
X370077Y304301D01*
X370077Y307839D01*
X371431Y311106D01*
X373932Y313607D01*
X377199Y314961D01*
X380737Y314961D01*
X384004Y313607D01*
X386505Y311106D01*
X387859Y307839D01*
X387859Y304301D01*
X386505Y301034D01*
X384004Y298533D01*
X380737Y297179D01*
X377199Y297179D01*
G37*
%LPD*%
%LPC*%
G36*
X808999Y297179D02*
X808999Y297179D01*
X805732Y298533D01*
X803231Y301034D01*
X801877Y304301D01*
X801877Y307839D01*
X803231Y311106D01*
X805732Y313607D01*
X808999Y314961D01*
X812537Y314961D01*
X815804Y313607D01*
X818305Y311106D01*
X819659Y307839D01*
X819659Y304301D01*
X818305Y301034D01*
X815804Y298533D01*
X812537Y297179D01*
X808999Y297179D01*
G37*
%LPD*%
%LPC*%
G36*
X834399Y297179D02*
X834399Y297179D01*
X831132Y298533D01*
X828631Y301034D01*
X827277Y304301D01*
X827277Y307839D01*
X828631Y311106D01*
X831132Y313607D01*
X834399Y314961D01*
X837937Y314961D01*
X841204Y313607D01*
X843705Y311106D01*
X845059Y307839D01*
X845059Y304301D01*
X843705Y301034D01*
X841204Y298533D01*
X837937Y297179D01*
X834399Y297179D01*
G37*
%LPD*%
%LPC*%
G36*
X656599Y297179D02*
X656599Y297179D01*
X653332Y298533D01*
X650831Y301034D01*
X649477Y304301D01*
X649477Y307839D01*
X650831Y311106D01*
X653332Y313607D01*
X656599Y314961D01*
X660137Y314961D01*
X663404Y313607D01*
X665905Y311106D01*
X667259Y307839D01*
X667259Y304301D01*
X665905Y301034D01*
X663404Y298533D01*
X660137Y297179D01*
X656599Y297179D01*
G37*
%LPD*%
%LPC*%
G36*
X859799Y297179D02*
X859799Y297179D01*
X856532Y298533D01*
X854031Y301034D01*
X852677Y304301D01*
X852677Y307839D01*
X854031Y311106D01*
X856532Y313607D01*
X859799Y314961D01*
X863337Y314961D01*
X866604Y313607D01*
X869105Y311106D01*
X870459Y307839D01*
X870459Y304301D01*
X869105Y301034D01*
X866604Y298533D01*
X863337Y297179D01*
X859799Y297179D01*
G37*
%LPD*%
%LPC*%
G36*
X783599Y297179D02*
X783599Y297179D01*
X780332Y298533D01*
X777831Y301034D01*
X776477Y304301D01*
X776477Y307839D01*
X777831Y311106D01*
X780332Y313607D01*
X783599Y314961D01*
X787137Y314961D01*
X790404Y313607D01*
X792905Y311106D01*
X794259Y307839D01*
X794259Y304301D01*
X792905Y301034D01*
X790404Y298533D01*
X787137Y297179D01*
X783599Y297179D01*
G37*
%LPD*%
%LPC*%
G36*
X402599Y297179D02*
X402599Y297179D01*
X399332Y298533D01*
X396831Y301034D01*
X395477Y304301D01*
X395477Y307839D01*
X396831Y311106D01*
X399332Y313607D01*
X402599Y314961D01*
X406137Y314961D01*
X409404Y313607D01*
X411905Y311106D01*
X413259Y307839D01*
X413259Y304301D01*
X411905Y301034D01*
X409404Y298533D01*
X406137Y297179D01*
X402599Y297179D01*
G37*
%LPD*%
%LPC*%
G36*
X427999Y297179D02*
X427999Y297179D01*
X424732Y298533D01*
X422231Y301034D01*
X420877Y304301D01*
X420877Y307839D01*
X422231Y311106D01*
X424732Y313607D01*
X427999Y314961D01*
X431537Y314961D01*
X434804Y313607D01*
X437305Y311106D01*
X438659Y307839D01*
X438659Y304301D01*
X437305Y301034D01*
X434804Y298533D01*
X431537Y297179D01*
X427999Y297179D01*
G37*
%LPD*%
%LPC*%
G36*
X351799Y297179D02*
X351799Y297179D01*
X348532Y298533D01*
X346031Y301034D01*
X344677Y304301D01*
X344677Y307839D01*
X346031Y311106D01*
X348532Y313607D01*
X351799Y314961D01*
X355337Y314961D01*
X358604Y313607D01*
X361105Y311106D01*
X362459Y307839D01*
X362459Y304301D01*
X361105Y301034D01*
X358604Y298533D01*
X355337Y297179D01*
X351799Y297179D01*
G37*
%LPD*%
%LPC*%
G36*
X885199Y297179D02*
X885199Y297179D01*
X881932Y298533D01*
X879431Y301034D01*
X878077Y304301D01*
X878077Y307839D01*
X879431Y311106D01*
X881932Y313607D01*
X885199Y314961D01*
X888737Y314961D01*
X892004Y313607D01*
X894505Y311106D01*
X895859Y307839D01*
X895859Y304301D01*
X894505Y301034D01*
X892004Y298533D01*
X888737Y297179D01*
X885199Y297179D01*
G37*
%LPD*%
%LPC*%
G36*
X631199Y297179D02*
X631199Y297179D01*
X627932Y298533D01*
X625431Y301034D01*
X624077Y304301D01*
X624077Y307839D01*
X625431Y311106D01*
X627932Y313607D01*
X631199Y314961D01*
X634737Y314961D01*
X638004Y313607D01*
X640505Y311106D01*
X641859Y307839D01*
X641859Y304301D01*
X640505Y301034D01*
X638004Y298533D01*
X634737Y297179D01*
X631199Y297179D01*
G37*
%LPD*%
%LPC*%
G36*
X702524Y58447D02*
X702524Y58447D01*
X700574Y59255D01*
X699081Y60748D01*
X698273Y62698D01*
X698273Y64810D01*
X699081Y66760D01*
X700574Y68253D01*
X702524Y69061D01*
X704636Y69061D01*
X706586Y68253D01*
X707398Y67441D01*
X707485Y67367D01*
X707565Y67286D01*
X707672Y67208D01*
X707774Y67122D01*
X707871Y67063D01*
X707964Y66996D01*
X708082Y66936D01*
X708196Y66867D01*
X708302Y66825D01*
X708404Y66773D01*
X708531Y66733D01*
X708654Y66684D01*
X708766Y66659D01*
X708875Y66625D01*
X708968Y66615D01*
X709136Y66577D01*
X709460Y66559D01*
X709552Y66549D01*
X718182Y66549D01*
X718295Y66558D01*
X718410Y66557D01*
X718541Y66578D01*
X718673Y66589D01*
X718784Y66616D01*
X718897Y66634D01*
X719023Y66675D01*
X719152Y66707D01*
X719257Y66752D01*
X719366Y66788D01*
X719484Y66850D01*
X719606Y66902D01*
X719702Y66963D01*
X719803Y67016D01*
X719877Y67075D01*
X720022Y67167D01*
X720264Y67383D01*
X720336Y67441D01*
X721148Y68253D01*
X723098Y69061D01*
X725210Y69061D01*
X727160Y68253D01*
X728653Y66760D01*
X729461Y64810D01*
X729461Y62698D01*
X728653Y60748D01*
X727160Y59255D01*
X725210Y58447D01*
X723098Y58447D01*
X721148Y59255D01*
X720336Y60067D01*
X720249Y60141D01*
X720169Y60222D01*
X720062Y60300D01*
X719960Y60386D01*
X719863Y60445D01*
X719770Y60512D01*
X719652Y60572D01*
X719538Y60641D01*
X719432Y60683D01*
X719330Y60735D01*
X719203Y60775D01*
X719080Y60824D01*
X718968Y60849D01*
X718859Y60883D01*
X718766Y60893D01*
X718598Y60931D01*
X718274Y60949D01*
X718182Y60959D01*
X709552Y60959D01*
X709439Y60950D01*
X709324Y60951D01*
X709193Y60930D01*
X709061Y60919D01*
X708950Y60892D01*
X708837Y60874D01*
X708711Y60833D01*
X708582Y60801D01*
X708477Y60756D01*
X708368Y60720D01*
X708250Y60658D01*
X708128Y60606D01*
X708032Y60545D01*
X707931Y60492D01*
X707857Y60433D01*
X707712Y60341D01*
X707470Y60125D01*
X707398Y60067D01*
X706586Y59255D01*
X704636Y58447D01*
X702524Y58447D01*
G37*
%LPD*%
%LPC*%
G36*
X702364Y564452D02*
X702364Y564452D01*
X701471Y565345D01*
X701471Y577688D01*
X702364Y578581D01*
X714708Y578581D01*
X715601Y577688D01*
X715601Y565345D01*
X714708Y564452D01*
X702364Y564452D01*
G37*
%LPD*%
%LPC*%
G36*
X753830Y471427D02*
X753830Y471427D01*
X753830Y483621D01*
X757095Y483621D01*
X766023Y474693D01*
X766023Y471427D01*
X753830Y471427D01*
G37*
%LPD*%
%LPC*%
G36*
X735542Y471427D02*
X735542Y471427D01*
X735542Y474693D01*
X744470Y483621D01*
X747735Y483621D01*
X747735Y471427D01*
X735542Y471427D01*
G37*
%LPD*%
%LPC*%
G36*
X753830Y453139D02*
X753830Y453139D01*
X753830Y465333D01*
X766023Y465333D01*
X766023Y462067D01*
X757095Y453139D01*
X753830Y453139D01*
G37*
%LPD*%
%LPC*%
G36*
X744470Y453139D02*
X744470Y453139D01*
X735542Y462067D01*
X735542Y465333D01*
X747735Y465333D01*
X747735Y453139D01*
X744470Y453139D01*
G37*
%LPD*%
%LPC*%
G36*
X882395Y421639D02*
X882395Y421639D01*
X882395Y430155D01*
X883931Y429656D01*
X885605Y428803D01*
X887126Y427698D01*
X888454Y426370D01*
X889583Y424817D01*
X889622Y424770D01*
X889656Y424719D01*
X889783Y424583D01*
X889904Y424442D01*
X889951Y424403D01*
X889992Y424358D01*
X890140Y424244D01*
X890282Y424125D01*
X890334Y424094D01*
X890382Y424056D01*
X890546Y423967D01*
X890705Y423872D01*
X890762Y423850D01*
X890816Y423821D01*
X890991Y423760D01*
X891164Y423691D01*
X891224Y423678D01*
X891282Y423658D01*
X891465Y423626D01*
X891647Y423587D01*
X891707Y423584D01*
X891768Y423573D01*
X891954Y423571D01*
X892139Y423562D01*
X892200Y423569D01*
X892261Y423568D01*
X892445Y423596D01*
X892630Y423616D01*
X892688Y423633D01*
X892749Y423642D01*
X892926Y423699D01*
X893105Y423749D01*
X893160Y423775D01*
X893218Y423794D01*
X893384Y423879D01*
X893552Y423957D01*
X893602Y423992D01*
X893657Y424020D01*
X893806Y424130D01*
X893960Y424235D01*
X894004Y424277D01*
X894053Y424313D01*
X894124Y424390D01*
X894318Y424574D01*
X894444Y424741D01*
X894513Y424817D01*
X895642Y426370D01*
X896970Y427698D01*
X898491Y428803D01*
X900165Y429656D01*
X901701Y430155D01*
X901701Y421639D01*
X882395Y421639D01*
G37*
%LPD*%
%LPC*%
G36*
X900165Y407528D02*
X900165Y407528D01*
X898491Y408381D01*
X896970Y409486D01*
X895642Y410814D01*
X894513Y412367D01*
X894474Y412414D01*
X894440Y412465D01*
X894313Y412601D01*
X894192Y412742D01*
X894145Y412781D01*
X894104Y412826D01*
X893957Y412940D01*
X893814Y413059D01*
X893762Y413091D01*
X893714Y413128D01*
X893551Y413217D01*
X893391Y413312D01*
X893334Y413334D01*
X893280Y413363D01*
X893105Y413425D01*
X892932Y413493D01*
X892872Y413506D01*
X892814Y413526D01*
X892631Y413558D01*
X892449Y413597D01*
X892389Y413600D01*
X892328Y413611D01*
X892142Y413613D01*
X891957Y413622D01*
X891896Y413615D01*
X891835Y413616D01*
X891651Y413588D01*
X891466Y413568D01*
X891408Y413551D01*
X891347Y413542D01*
X891170Y413485D01*
X890991Y413435D01*
X890936Y413409D01*
X890878Y413390D01*
X890712Y413305D01*
X890544Y413227D01*
X890494Y413192D01*
X890439Y413164D01*
X890290Y413054D01*
X890136Y412949D01*
X890092Y412907D01*
X890043Y412871D01*
X889972Y412794D01*
X889778Y412610D01*
X889652Y412443D01*
X889583Y412367D01*
X888454Y410814D01*
X887126Y409486D01*
X885605Y408381D01*
X883931Y407528D01*
X882395Y407029D01*
X882395Y415545D01*
X901701Y415545D01*
X901701Y407029D01*
X900165Y407528D01*
G37*
%LPD*%
%LPC*%
G36*
X842263Y554481D02*
X842263Y554481D01*
X842263Y564135D01*
X849711Y564135D01*
X850357Y563962D01*
X850936Y563627D01*
X851409Y563154D01*
X851744Y562575D01*
X851917Y561929D01*
X851917Y554481D01*
X842263Y554481D01*
G37*
%LPD*%
%LPC*%
G36*
X826515Y554481D02*
X826515Y554481D01*
X826515Y561929D01*
X826688Y562575D01*
X827023Y563154D01*
X827496Y563627D01*
X828075Y563962D01*
X828721Y564135D01*
X836169Y564135D01*
X836169Y554481D01*
X826515Y554481D01*
G37*
%LPD*%
%LPC*%
G36*
X842263Y538733D02*
X842263Y538733D01*
X842263Y548387D01*
X851917Y548387D01*
X851917Y540939D01*
X851744Y540293D01*
X851409Y539714D01*
X850936Y539241D01*
X850357Y538906D01*
X849711Y538733D01*
X842263Y538733D01*
G37*
%LPD*%
%LPC*%
G36*
X828721Y538733D02*
X828721Y538733D01*
X828075Y538906D01*
X827496Y539241D01*
X827023Y539714D01*
X826688Y540293D01*
X826515Y540939D01*
X826515Y548387D01*
X836169Y548387D01*
X836169Y538733D01*
X828721Y538733D01*
G37*
%LPD*%
%LPC*%
G36*
X907795Y421639D02*
X907795Y421639D01*
X907795Y430155D01*
X909331Y429656D01*
X911005Y428803D01*
X912526Y427698D01*
X913854Y426370D01*
X914959Y424849D01*
X915812Y423175D01*
X916311Y421639D01*
X907795Y421639D01*
G37*
%LPD*%
%LPC*%
G36*
X907795Y415545D02*
X907795Y415545D01*
X916311Y415545D01*
X915812Y414009D01*
X914959Y412335D01*
X913854Y410814D01*
X912526Y409486D01*
X911005Y408381D01*
X909331Y407528D01*
X907795Y407029D01*
X907795Y415545D01*
G37*
%LPD*%
%LPC*%
G36*
X964945Y73659D02*
X964945Y73659D01*
X964945Y81027D01*
X966212Y81027D01*
X972313Y74926D01*
X972313Y73659D01*
X964945Y73659D01*
G37*
%LPD*%
%LPC*%
G36*
X964945Y60197D02*
X964945Y60197D01*
X964945Y67565D01*
X972313Y67565D01*
X972313Y66298D01*
X966212Y60197D01*
X964945Y60197D01*
G37*
%LPD*%
%LPC*%
G36*
X458215Y232917D02*
X458215Y232917D01*
X458215Y239296D01*
X458971Y239051D01*
X460360Y238343D01*
X461622Y237426D01*
X462724Y236324D01*
X463641Y235062D01*
X464349Y233673D01*
X464594Y232917D01*
X458215Y232917D01*
G37*
%LPD*%
%LPC*%
G36*
X661415Y156717D02*
X661415Y156717D01*
X661415Y163096D01*
X662171Y162851D01*
X663560Y162143D01*
X664822Y161226D01*
X665924Y160124D01*
X666841Y158862D01*
X667549Y157473D01*
X667794Y156717D01*
X661415Y156717D01*
G37*
%LPD*%
%LPC*%
G36*
X382015Y156717D02*
X382015Y156717D01*
X382015Y163096D01*
X382771Y162851D01*
X384160Y162143D01*
X385422Y161226D01*
X386524Y160124D01*
X387441Y158862D01*
X388149Y157473D01*
X388394Y156717D01*
X382015Y156717D01*
G37*
%LPD*%
%LPC*%
G36*
X432815Y156717D02*
X432815Y156717D01*
X432815Y163096D01*
X433571Y162851D01*
X434960Y162143D01*
X436222Y161226D01*
X437324Y160124D01*
X438241Y158862D01*
X438949Y157473D01*
X439194Y156717D01*
X432815Y156717D01*
G37*
%LPD*%
%LPC*%
G36*
X445742Y232917D02*
X445742Y232917D01*
X445987Y233673D01*
X446695Y235062D01*
X447612Y236324D01*
X448714Y237426D01*
X449976Y238343D01*
X451365Y239051D01*
X452121Y239296D01*
X452121Y232917D01*
X445742Y232917D01*
G37*
%LPD*%
%LPC*%
G36*
X382015Y150623D02*
X382015Y150623D01*
X388394Y150623D01*
X388149Y149867D01*
X387441Y148478D01*
X386524Y147216D01*
X385422Y146114D01*
X384160Y145197D01*
X382771Y144489D01*
X382015Y144244D01*
X382015Y150623D01*
G37*
%LPD*%
%LPC*%
G36*
X661415Y150623D02*
X661415Y150623D01*
X667794Y150623D01*
X667549Y149867D01*
X666841Y148478D01*
X665924Y147216D01*
X664822Y146114D01*
X663560Y145197D01*
X662171Y144489D01*
X661415Y144244D01*
X661415Y150623D01*
G37*
%LPD*%
%LPC*%
G36*
X902942Y309117D02*
X902942Y309117D01*
X903187Y309873D01*
X903895Y311262D01*
X904812Y312524D01*
X905914Y313626D01*
X907176Y314543D01*
X908565Y315251D01*
X909321Y315496D01*
X909321Y309117D01*
X902942Y309117D01*
G37*
%LPD*%
%LPC*%
G36*
X432815Y150623D02*
X432815Y150623D01*
X439194Y150623D01*
X438949Y149867D01*
X438241Y148478D01*
X437324Y147216D01*
X436222Y146114D01*
X434960Y145197D01*
X433571Y144489D01*
X432815Y144244D01*
X432815Y150623D01*
G37*
%LPD*%
%LPC*%
G36*
X458215Y226823D02*
X458215Y226823D01*
X464594Y226823D01*
X464349Y226067D01*
X463641Y224678D01*
X462724Y223416D01*
X461622Y222314D01*
X460360Y221397D01*
X458971Y220689D01*
X458215Y220444D01*
X458215Y226823D01*
G37*
%LPD*%
%LPC*%
G36*
X648942Y156717D02*
X648942Y156717D01*
X649187Y157473D01*
X649895Y158862D01*
X650812Y160124D01*
X651914Y161226D01*
X653176Y162143D01*
X654565Y162851D01*
X655321Y163096D01*
X655321Y156717D01*
X648942Y156717D01*
G37*
%LPD*%
%LPC*%
G36*
X420342Y156717D02*
X420342Y156717D01*
X420587Y157473D01*
X421295Y158862D01*
X422212Y160124D01*
X423314Y161226D01*
X424576Y162143D01*
X425965Y162851D01*
X426721Y163096D01*
X426721Y156717D01*
X420342Y156717D01*
G37*
%LPD*%
%LPC*%
G36*
X369542Y156717D02*
X369542Y156717D01*
X369787Y157473D01*
X370495Y158862D01*
X371412Y160124D01*
X372514Y161226D01*
X373776Y162143D01*
X375165Y162851D01*
X375921Y163096D01*
X375921Y156717D01*
X369542Y156717D01*
G37*
%LPD*%
%LPC*%
G36*
X451365Y220689D02*
X451365Y220689D01*
X449976Y221397D01*
X448714Y222314D01*
X447612Y223416D01*
X446695Y224678D01*
X445987Y226067D01*
X445742Y226823D01*
X452121Y226823D01*
X452121Y220444D01*
X451365Y220689D01*
G37*
%LPD*%
%LPC*%
G36*
X425965Y144489D02*
X425965Y144489D01*
X424576Y145197D01*
X423314Y146114D01*
X422212Y147216D01*
X421295Y148478D01*
X420587Y149867D01*
X420342Y150623D01*
X426721Y150623D01*
X426721Y144244D01*
X425965Y144489D01*
G37*
%LPD*%
%LPC*%
G36*
X375165Y144489D02*
X375165Y144489D01*
X373776Y145197D01*
X372514Y146114D01*
X371412Y147216D01*
X370495Y148478D01*
X369787Y149867D01*
X369542Y150623D01*
X375921Y150623D01*
X375921Y144244D01*
X375165Y144489D01*
G37*
%LPD*%
%LPC*%
G36*
X908565Y296889D02*
X908565Y296889D01*
X907176Y297597D01*
X905914Y298514D01*
X904812Y299616D01*
X903895Y300878D01*
X903187Y302267D01*
X902942Y303023D01*
X909321Y303023D01*
X909321Y296644D01*
X908565Y296889D01*
G37*
%LPD*%
%LPC*%
G36*
X654565Y144489D02*
X654565Y144489D01*
X653176Y145197D01*
X651914Y146114D01*
X650812Y147216D01*
X649895Y148478D01*
X649187Y149867D01*
X648942Y150623D01*
X655321Y150623D01*
X655321Y144244D01*
X654565Y144489D01*
G37*
%LPD*%
%LPC*%
G36*
X711583Y396764D02*
X711583Y396764D01*
X711583Y401797D01*
X714411Y401797D01*
X715057Y401624D01*
X715636Y401290D01*
X716109Y400817D01*
X716444Y400237D01*
X716617Y399591D01*
X716617Y396764D01*
X711583Y396764D01*
G37*
%LPD*%
%LPC*%
G36*
X317883Y396764D02*
X317883Y396764D01*
X317883Y401797D01*
X320711Y401797D01*
X321357Y401624D01*
X321936Y401290D01*
X322409Y400817D01*
X322744Y400237D01*
X322917Y399591D01*
X322917Y396764D01*
X317883Y396764D01*
G37*
%LPD*%
%LPC*%
G36*
X700455Y396764D02*
X700455Y396764D01*
X700455Y399591D01*
X700628Y400237D01*
X700963Y400817D01*
X701436Y401290D01*
X702015Y401624D01*
X702661Y401797D01*
X705489Y401797D01*
X705489Y396764D01*
X700455Y396764D01*
G37*
%LPD*%
%LPC*%
G36*
X306755Y396764D02*
X306755Y396764D01*
X306755Y399591D01*
X306928Y400237D01*
X307263Y400817D01*
X307736Y401290D01*
X308315Y401624D01*
X308961Y401797D01*
X311789Y401797D01*
X311789Y396764D01*
X306755Y396764D01*
G37*
%LPD*%
%LPC*%
G36*
X317883Y385636D02*
X317883Y385636D01*
X317883Y390669D01*
X322917Y390669D01*
X322917Y387842D01*
X322744Y387196D01*
X322409Y386616D01*
X321936Y386143D01*
X321357Y385809D01*
X320711Y385636D01*
X317883Y385636D01*
G37*
%LPD*%
%LPC*%
G36*
X711583Y385636D02*
X711583Y385636D01*
X711583Y390669D01*
X716617Y390669D01*
X716617Y387842D01*
X716444Y387196D01*
X716109Y386616D01*
X715636Y386143D01*
X715057Y385809D01*
X714411Y385636D01*
X711583Y385636D01*
G37*
%LPD*%
%LPC*%
G36*
X308961Y385636D02*
X308961Y385636D01*
X308315Y385809D01*
X307736Y386143D01*
X307263Y386616D01*
X306928Y387196D01*
X306755Y387842D01*
X306755Y390669D01*
X311789Y390669D01*
X311789Y385636D01*
X308961Y385636D01*
G37*
%LPD*%
%LPC*%
G36*
X702661Y385636D02*
X702661Y385636D01*
X702015Y385809D01*
X701436Y386143D01*
X700963Y386616D01*
X700628Y387196D01*
X700455Y387842D01*
X700455Y390669D01*
X705489Y390669D01*
X705489Y385636D01*
X702661Y385636D01*
G37*
%LPD*%
D10*
X867918Y82550D03*
X867918Y57150D03*
X842518Y82550D03*
X842518Y57150D03*
X817118Y82550D03*
X817118Y57150D03*
X791718Y82550D03*
X791718Y57150D03*
X766318Y82550D03*
X766318Y57150D03*
D11*
X861568Y306070D03*
X836168Y306070D03*
X810768Y306070D03*
X785368Y306070D03*
X759968Y306070D03*
X734568Y306070D03*
X709168Y306070D03*
X683768Y306070D03*
X658368Y306070D03*
X632968Y306070D03*
X607568Y306070D03*
X582168Y306070D03*
X582168Y153670D03*
X607568Y153670D03*
X632968Y153670D03*
X658368Y153670D03*
X683768Y153670D03*
X709168Y153670D03*
X734568Y153670D03*
X759968Y153670D03*
X785368Y153670D03*
X810768Y153670D03*
X836168Y153670D03*
X886968Y306070D03*
X861568Y153670D03*
X886968Y153670D03*
X912368Y306070D03*
X912368Y153670D03*
X556768Y306070D03*
X556768Y153670D03*
X531368Y306070D03*
X505968Y306070D03*
X480568Y306070D03*
X455168Y306070D03*
X429768Y306070D03*
X404368Y306070D03*
X378968Y306070D03*
X353568Y306070D03*
X328168Y306070D03*
X328168Y153670D03*
X353568Y153670D03*
X378968Y153670D03*
X404368Y153670D03*
X429768Y153670D03*
X455168Y153670D03*
X480568Y153670D03*
X505968Y153670D03*
X531368Y153670D03*
X455168Y280670D03*
X455168Y229870D03*
X455168Y204470D03*
X455168Y255270D03*
X455168Y179070D03*
X886968Y179070D03*
X836168Y179070D03*
X810768Y179070D03*
X785368Y179070D03*
X848868Y274320D03*
X823468Y274320D03*
X798068Y274320D03*
X772668Y274320D03*
X747268Y274320D03*
D10*
X904748Y418592D03*
X879348Y418592D03*
X853948Y418592D03*
X828548Y418592D03*
X461518Y82550D03*
X461518Y57150D03*
X436118Y82550D03*
X436118Y57150D03*
X410718Y82550D03*
X410718Y57150D03*
X385318Y82550D03*
X385318Y57150D03*
X359918Y82550D03*
X359918Y57150D03*
D12*
X708536Y571517D03*
X708536Y393717D03*
X314836Y393717D03*
X314836Y571517D03*
D13*
X961898Y70612D03*
D14*
X936498Y70612D03*
D15*
X839216Y551434D03*
D16*
X804216Y551434D03*
D17*
X801583Y468380D03*
D18*
X750783Y468380D03*
D19*
X817118Y107950D02*
X817118Y82550D01*
X817118Y107950D02*
X799084Y125984D01*
X748284Y125984D01*
X734568Y139700D01*
X734568Y153670D01*
X410718Y134620D02*
X410718Y82550D01*
X410718Y134620D02*
X429768Y153670D01*
X410718Y82550D02*
X385318Y57150D01*
D20*
X81120Y428838D03*
X102245Y424190D03*
X87458Y405178D03*
X15210Y266598D03*
X355323Y440668D03*
X355323Y482918D03*
X350253Y514605D03*
X353633Y541645D03*
X402643Y539955D03*
X401375Y511225D03*
X399685Y482918D03*
X400530Y438978D03*
X956540Y358280D03*
X956963Y337155D03*
X957808Y316030D03*
X957808Y292370D03*
X691633Y232798D03*
X705998Y232798D03*
X706420Y218010D03*
X691210Y218855D03*
X367998Y254345D03*
X392503Y254345D03*
X392503Y222235D03*
X372223Y222235D03*
X259415Y195195D03*
X158860Y192660D03*
X161395Y261950D03*
X247585Y256035D03*
X169845Y54925D03*
X209138Y53658D03*
X544603Y117033D03*
X574178Y117033D03*
X619385Y115343D03*
X654453Y117033D03*
X924853Y24083D03*
X967103Y25350D03*
X957385Y228150D03*
X676000Y364618D03*
X700083Y362928D03*
X698393Y338423D03*
X676000Y340535D03*
X892743Y362505D03*
X790498Y336310D03*
X786695Y363773D03*
X788808Y398418D03*
X830635Y393348D03*
X905840Y390390D03*
X963300Y385320D03*
X665860Y445738D03*
X690365Y486298D03*
X651918Y518830D03*
X623610Y482495D03*
X615160Y447850D03*
X653608Y474468D03*
X680225Y516718D03*
X603330Y525168D03*
X17745Y212095D03*
X13943Y152523D03*
X22815Y360815D03*
X55770Y374335D03*
X13943Y67178D03*
X94640Y107738D03*
X88725Y223503D03*
X88725Y284343D03*
X816693Y238290D03*
X839085Y241248D03*
X839085Y218433D03*
X816693Y218433D03*
X963723Y581360D03*
X917670Y582628D03*
X855985Y460103D03*
X982313Y555588D03*
X753318Y429260D03*
X753318Y516295D03*
D19*
X867918Y58636D02*
X867918Y57150D01*
X867918Y58636D02*
X855472Y71082D01*
X855472Y107696D01*
X810768Y152400D02*
X810768Y153670D01*
X810768Y152400D02*
X855472Y107696D01*
X829818Y69850D02*
X842518Y57150D01*
X829818Y69850D02*
X829818Y120650D01*
X817118Y133350D01*
X780288Y133350D02*
X759968Y153670D01*
X780288Y133350D02*
X817118Y133350D01*
D20*
X653034Y65786D03*
D21*
X699008Y157878D02*
X704960Y163830D01*
X675296Y68744D02*
X655992Y68744D01*
X653034Y65786D01*
X675296Y68744D02*
X699008Y92456D01*
X699008Y157878D01*
X738776Y163830D02*
X748936Y153670D01*
X759968Y153670D01*
X738776Y163830D02*
X704960Y163830D01*
D19*
X709168Y153670D02*
X709168Y153169D01*
X804672Y99135D02*
X804672Y69596D01*
X817118Y57150D01*
X804672Y99135D02*
X783411Y120396D01*
X741941Y120396D01*
X709168Y153169D01*
D22*
X745236Y32004D02*
X736268Y23036D01*
X745236Y96774D02*
X755396Y106934D01*
X767334Y106934D01*
X791718Y82550D01*
X745236Y96774D02*
X745236Y32004D01*
D23*
X40894Y105410D02*
X40894Y303912D01*
X40894Y105410D02*
X123341Y22963D01*
D20*
X870204Y543814D03*
D24*
X870204Y508000D01*
X722376Y360172D02*
X722376Y179832D01*
X727710Y174498D01*
D20*
X750824Y174498D03*
D24*
X722376Y360172D02*
X870204Y508000D01*
X750824Y174498D02*
X727710Y174498D01*
X257451Y22963D02*
X123341Y22963D01*
X335888Y101400D02*
X377293Y101400D01*
X385318Y93375D01*
X385318Y82550D01*
X335888Y101400D02*
X257451Y22963D01*
D23*
X123341Y22963D02*
X736195Y22963D01*
X736268Y23036D01*
X308625Y571643D02*
X40894Y303912D01*
X308625Y571643D02*
X320255Y571643D01*
X320129Y571517D01*
X314836Y571517D01*
D24*
X461518Y112111D02*
X461518Y82550D01*
X475313Y125905D02*
X490945Y125905D01*
D20*
X490945Y125905D03*
D24*
X475313Y125905D02*
X461518Y112111D01*
D20*
X489712Y49784D03*
D25*
X489712Y68326D01*
X489204Y68834D01*
X488950Y68580D01*
D20*
X488950Y68580D03*
X505460Y107696D03*
D25*
X505460Y153162D01*
X505968Y153670D01*
D19*
X436118Y64949D02*
X436118Y57150D01*
X436118Y64949D02*
X448564Y77395D01*
X448564Y147066D02*
X455168Y153670D01*
X448564Y147066D02*
X448564Y77395D01*
D20*
X536448Y64262D03*
D26*
X530352Y70358D01*
X536448Y63500D01*
X519938Y80010D01*
X478790Y80010D01*
X469138Y70358D01*
X449326Y70358D01*
X436118Y57150D01*
D20*
X931926Y568452D03*
D24*
X931926Y258572D01*
X858774Y185420D01*
X858774Y156464D01*
X861568Y153670D01*
D20*
X613791Y71755D03*
D24*
X634111Y71755D01*
X640588Y65278D01*
D20*
X640588Y65278D03*
X574802Y83058D03*
D24*
X588772Y83058D02*
X589026Y82804D01*
X589026Y68580D01*
X584708Y64262D01*
X584708Y63500D01*
D20*
X584708Y63500D03*
D24*
X588772Y83058D02*
X574802Y83058D01*
D20*
X703580Y63754D03*
D21*
X724154Y63754D01*
D20*
X724154Y63754D03*
X668528Y59944D03*
D21*
X656492Y59944D01*
X655758Y59210D01*
X646656Y59210D01*
X640588Y65278D01*
D27*
X861568Y153670D02*
X894080Y121158D01*
X894080Y21082D01*
X767588Y21082D01*
X767588Y20066D01*
D20*
X767588Y20066D03*
M02*
