G04 EAGLE Gerber RS-274X export*
G75*
%MOMM*%
%FSLAX34Y34*%
%LPD*%
%IN*%
%IPPOS*%
%AMOC8*
5,1,8,0,0,1.08239X$1,22.5*%
G01*
%ADD10C,0.254000*%


D10*
X0Y0D02*
X1000000Y0D01*
X1000000Y600000D01*
X0Y600000D01*
X0Y0D01*
X64363Y407953D02*
X64290Y406747D01*
X64144Y405547D01*
X63926Y404358D01*
X63637Y403184D01*
X63277Y402030D01*
X62849Y400900D01*
X62352Y399798D01*
X61791Y398728D01*
X61165Y397694D01*
X60479Y396699D01*
X59733Y395747D01*
X58932Y394843D01*
X58077Y393988D01*
X57173Y393187D01*
X56221Y392441D01*
X55226Y391755D01*
X54192Y391129D01*
X53122Y390568D01*
X52020Y390071D01*
X50890Y389643D01*
X49736Y389283D01*
X48562Y388994D01*
X47373Y388776D01*
X46173Y388630D01*
X44967Y388558D01*
X43758Y388558D01*
X42552Y388630D01*
X41352Y388776D01*
X40163Y388994D01*
X38989Y389283D01*
X37835Y389643D01*
X36705Y390071D01*
X35603Y390568D01*
X34533Y391129D01*
X33499Y391755D01*
X32504Y392441D01*
X31552Y393187D01*
X30648Y393988D01*
X29793Y394843D01*
X28992Y395747D01*
X28246Y396699D01*
X27560Y397694D01*
X26934Y398728D01*
X26373Y399798D01*
X25876Y400900D01*
X25448Y402030D01*
X25088Y403184D01*
X24799Y404358D01*
X24581Y405547D01*
X24435Y406747D01*
X24363Y407953D01*
X24363Y409162D01*
X24435Y410368D01*
X24581Y411568D01*
X24799Y412757D01*
X25088Y413931D01*
X25448Y415085D01*
X25876Y416215D01*
X26373Y417317D01*
X26934Y418387D01*
X27560Y419421D01*
X28246Y420416D01*
X28992Y421368D01*
X29793Y422272D01*
X30648Y423127D01*
X31552Y423928D01*
X32504Y424674D01*
X33499Y425360D01*
X34533Y425986D01*
X35603Y426547D01*
X36705Y427044D01*
X37835Y427472D01*
X38989Y427832D01*
X40163Y428121D01*
X41352Y428339D01*
X42552Y428485D01*
X43758Y428558D01*
X44967Y428558D01*
X46173Y428485D01*
X47373Y428339D01*
X48562Y428121D01*
X49736Y427832D01*
X50890Y427472D01*
X52020Y427044D01*
X53122Y426547D01*
X54192Y425986D01*
X55226Y425360D01*
X56221Y424674D01*
X57173Y423928D01*
X58077Y423127D01*
X58932Y422272D01*
X59733Y421368D01*
X60479Y420416D01*
X61165Y419421D01*
X61791Y418387D01*
X62352Y417317D01*
X62849Y416215D01*
X63277Y415085D01*
X63637Y413931D01*
X63926Y412757D01*
X64144Y411568D01*
X64290Y410368D01*
X64363Y409162D01*
X64363Y407953D01*
X775853Y345423D02*
X775780Y344217D01*
X775634Y343017D01*
X775416Y341828D01*
X775127Y340654D01*
X774767Y339500D01*
X774339Y338370D01*
X773842Y337268D01*
X773281Y336198D01*
X772655Y335164D01*
X771969Y334169D01*
X771223Y333217D01*
X770422Y332313D01*
X769567Y331458D01*
X768663Y330657D01*
X767711Y329911D01*
X766716Y329225D01*
X765682Y328599D01*
X764612Y328038D01*
X763510Y327541D01*
X762380Y327113D01*
X761226Y326753D01*
X760052Y326464D01*
X758863Y326246D01*
X757663Y326100D01*
X756457Y326028D01*
X755248Y326028D01*
X754042Y326100D01*
X752842Y326246D01*
X751653Y326464D01*
X750479Y326753D01*
X749325Y327113D01*
X748195Y327541D01*
X747093Y328038D01*
X746023Y328599D01*
X744989Y329225D01*
X743994Y329911D01*
X743042Y330657D01*
X742138Y331458D01*
X741283Y332313D01*
X740482Y333217D01*
X739736Y334169D01*
X739050Y335164D01*
X738424Y336198D01*
X737863Y337268D01*
X737366Y338370D01*
X736938Y339500D01*
X736578Y340654D01*
X736289Y341828D01*
X736071Y343017D01*
X735925Y344217D01*
X735853Y345423D01*
X735853Y346632D01*
X735925Y347838D01*
X736071Y349038D01*
X736289Y350227D01*
X736578Y351401D01*
X736938Y352555D01*
X737366Y353685D01*
X737863Y354787D01*
X738424Y355857D01*
X739050Y356891D01*
X739736Y357886D01*
X740482Y358838D01*
X741283Y359742D01*
X742138Y360597D01*
X743042Y361398D01*
X743994Y362144D01*
X744989Y362830D01*
X746023Y363456D01*
X747093Y364017D01*
X748195Y364514D01*
X749325Y364942D01*
X750479Y365302D01*
X751653Y365591D01*
X752842Y365809D01*
X754042Y365955D01*
X755248Y366028D01*
X756457Y366028D01*
X757663Y365955D01*
X758863Y365809D01*
X760052Y365591D01*
X761226Y365302D01*
X762380Y364942D01*
X763510Y364514D01*
X764612Y364017D01*
X765682Y363456D01*
X766716Y362830D01*
X767711Y362144D01*
X768663Y361398D01*
X769567Y360597D01*
X770422Y359742D01*
X771223Y358838D01*
X771969Y357886D01*
X772655Y356891D01*
X773281Y355857D01*
X773842Y354787D01*
X774339Y353685D01*
X774767Y352555D01*
X775127Y351401D01*
X775416Y350227D01*
X775634Y349038D01*
X775780Y347838D01*
X775853Y346632D01*
X775853Y345423D01*
X63518Y33618D02*
X63445Y32412D01*
X63299Y31212D01*
X63081Y30023D01*
X62792Y28849D01*
X62432Y27695D01*
X62004Y26565D01*
X61507Y25463D01*
X60946Y24393D01*
X60320Y23359D01*
X59634Y22364D01*
X58888Y21412D01*
X58087Y20508D01*
X57232Y19653D01*
X56328Y18852D01*
X55376Y18106D01*
X54381Y17420D01*
X53347Y16794D01*
X52277Y16233D01*
X51175Y15736D01*
X50045Y15308D01*
X48891Y14948D01*
X47717Y14659D01*
X46528Y14441D01*
X45328Y14295D01*
X44122Y14223D01*
X42913Y14223D01*
X41707Y14295D01*
X40507Y14441D01*
X39318Y14659D01*
X38144Y14948D01*
X36990Y15308D01*
X35860Y15736D01*
X34758Y16233D01*
X33688Y16794D01*
X32654Y17420D01*
X31659Y18106D01*
X30707Y18852D01*
X29803Y19653D01*
X28948Y20508D01*
X28147Y21412D01*
X27401Y22364D01*
X26715Y23359D01*
X26089Y24393D01*
X25528Y25463D01*
X25031Y26565D01*
X24603Y27695D01*
X24243Y28849D01*
X23954Y30023D01*
X23736Y31212D01*
X23590Y32412D01*
X23518Y33618D01*
X23518Y34827D01*
X23590Y36033D01*
X23736Y37233D01*
X23954Y38422D01*
X24243Y39596D01*
X24603Y40750D01*
X25031Y41880D01*
X25528Y42982D01*
X26089Y44052D01*
X26715Y45086D01*
X27401Y46081D01*
X28147Y47033D01*
X28948Y47937D01*
X29803Y48792D01*
X30707Y49593D01*
X31659Y50339D01*
X32654Y51025D01*
X33688Y51651D01*
X34758Y52212D01*
X35860Y52709D01*
X36990Y53137D01*
X38144Y53497D01*
X39318Y53786D01*
X40507Y54004D01*
X41707Y54150D01*
X42913Y54223D01*
X44122Y54223D01*
X45328Y54150D01*
X46528Y54004D01*
X47717Y53786D01*
X48891Y53497D01*
X50045Y53137D01*
X51175Y52709D01*
X52277Y52212D01*
X53347Y51651D01*
X54381Y51025D01*
X55376Y50339D01*
X56328Y49593D01*
X57232Y48792D01*
X58087Y47937D01*
X58888Y47033D01*
X59634Y46081D01*
X60320Y45086D01*
X60946Y44052D01*
X61507Y42982D01*
X62004Y41880D01*
X62432Y40750D01*
X62792Y39596D01*
X63081Y38422D01*
X63299Y37233D01*
X63445Y36033D01*
X63518Y34827D01*
X63518Y33618D01*
M02*
