G04 EAGLE Gerber RS-274X export*
G75*
%MOMM*%
%FSLAX34Y34*%
%LPD*%
%INSilkscreen Bottom*%
%IPPOS*%
%AMOC8*
5,1,8,0,0,1.08239X$1,22.5*%
G01*
%ADD10C,0.203200*%
%ADD11C,0.101600*%
%ADD12C,0.127000*%


D10*
X874268Y99060D02*
X861568Y99060D01*
X834898Y431292D02*
X822198Y431292D01*
X815848Y424942D01*
X815848Y412242D02*
X822198Y405892D01*
X860298Y431292D02*
X866648Y424942D01*
X860298Y431292D02*
X847598Y431292D01*
X841248Y424942D01*
X841248Y412242D02*
X847598Y405892D01*
X860298Y405892D01*
X866648Y412242D01*
X841248Y424942D02*
X834898Y431292D01*
X841248Y412242D02*
X834898Y405892D01*
X822198Y405892D01*
X898398Y431292D02*
X911098Y431292D01*
X898398Y431292D02*
X892048Y424942D01*
X892048Y412242D02*
X898398Y405892D01*
X892048Y424942D02*
X885698Y431292D01*
X872998Y431292D01*
X866648Y424942D01*
X866648Y412242D02*
X872998Y405892D01*
X885698Y405892D01*
X892048Y412242D01*
X917448Y412242D02*
X917448Y424942D01*
X911098Y431292D01*
X917448Y412242D02*
X911098Y405892D01*
X898398Y405892D01*
X815848Y412242D02*
X815848Y424942D01*
D11*
X915247Y434199D02*
X915247Y438150D01*
X915247Y434199D02*
X915249Y434133D01*
X915255Y434068D01*
X915264Y434003D01*
X915277Y433939D01*
X915294Y433875D01*
X915315Y433813D01*
X915339Y433752D01*
X915367Y433692D01*
X915398Y433635D01*
X915433Y433579D01*
X915470Y433525D01*
X915511Y433473D01*
X915555Y433424D01*
X915601Y433378D01*
X915650Y433334D01*
X915702Y433293D01*
X915756Y433256D01*
X915812Y433221D01*
X915869Y433190D01*
X915929Y433162D01*
X915990Y433138D01*
X916052Y433117D01*
X916116Y433100D01*
X916180Y433087D01*
X916245Y433078D01*
X916310Y433072D01*
X916376Y433070D01*
X916940Y433070D01*
X912434Y433070D02*
X910741Y433070D01*
X910675Y433072D01*
X910610Y433078D01*
X910545Y433087D01*
X910481Y433100D01*
X910417Y433117D01*
X910355Y433138D01*
X910294Y433162D01*
X910234Y433190D01*
X910177Y433221D01*
X910121Y433256D01*
X910067Y433293D01*
X910015Y433334D01*
X909966Y433378D01*
X909920Y433424D01*
X909876Y433473D01*
X909835Y433525D01*
X909798Y433579D01*
X909763Y433634D01*
X909732Y433692D01*
X909704Y433752D01*
X909680Y433813D01*
X909659Y433875D01*
X909642Y433939D01*
X909629Y434003D01*
X909620Y434068D01*
X909614Y434133D01*
X909612Y434199D01*
X909612Y434763D01*
X909614Y434829D01*
X909620Y434894D01*
X909629Y434959D01*
X909642Y435023D01*
X909659Y435087D01*
X909680Y435149D01*
X909704Y435210D01*
X909732Y435270D01*
X909763Y435328D01*
X909798Y435383D01*
X909835Y435437D01*
X909876Y435489D01*
X909920Y435538D01*
X909966Y435584D01*
X910015Y435628D01*
X910067Y435669D01*
X910121Y435706D01*
X910177Y435741D01*
X910234Y435772D01*
X910294Y435800D01*
X910355Y435824D01*
X910417Y435845D01*
X910481Y435862D01*
X910545Y435875D01*
X910610Y435884D01*
X910675Y435890D01*
X910741Y435892D01*
X912434Y435892D01*
X912434Y438150D01*
X909612Y438150D01*
D10*
X467868Y99060D02*
X455168Y99060D01*
D12*
X708536Y393717D02*
X708536Y571517D01*
X708536Y393717D02*
X313536Y393717D01*
X313536Y571517D02*
X708536Y571517D01*
X313536Y571517D02*
X313536Y393717D01*
M02*
