G04 EAGLE Gerber RS-274X export*
G75*
%MOMM*%
%FSLAX34Y34*%
%LPD*%
%INSolderpaste Top*%
%IPPOS*%
%AMOC8*
5,1,8,0,0,1.08239X$1,22.5*%
G01*
%ADD10R,1.200000X3.000000*%
%ADD11R,0.850000X2.200000*%
%ADD12R,1.000000X1.050000*%
%ADD13R,1.300000X1.600000*%
%ADD14R,1.300000X1.500000*%
%ADD15R,1.200000X1.200000*%
%ADD16R,1.100000X1.000000*%
%ADD17R,0.550000X1.200000*%
%ADD18R,1.000000X1.100000*%


D10*
X220058Y303600D03*
X240058Y303600D03*
X260058Y303600D03*
X280058Y303600D03*
X200058Y303600D03*
X180058Y303600D03*
X160058Y303600D03*
X140058Y303600D03*
X140058Y153600D03*
X160058Y153600D03*
X180058Y153600D03*
X200058Y153600D03*
X220058Y153600D03*
X240058Y153600D03*
X260058Y153600D03*
X280058Y153600D03*
D11*
X127220Y102870D03*
X154720Y102870D03*
D12*
X140970Y118120D03*
X140970Y87620D03*
D13*
X372974Y122174D03*
X353974Y122174D03*
D14*
X401218Y120650D03*
X420218Y120650D03*
D15*
X640588Y29632D03*
X640588Y50632D03*
X678942Y28616D03*
X678942Y49616D03*
X718058Y28616D03*
X718058Y49616D03*
X528828Y29632D03*
X528828Y50632D03*
X564642Y29378D03*
X564642Y50378D03*
X602234Y28870D03*
X602234Y49870D03*
X917194Y492674D03*
X917194Y513674D03*
X940308Y492166D03*
X940308Y513166D03*
D16*
X621538Y47870D03*
X621538Y30870D03*
X658368Y49004D03*
X658368Y32004D03*
X698754Y47226D03*
X698754Y30226D03*
X511302Y48750D03*
X511302Y31750D03*
X548640Y49004D03*
X548640Y32004D03*
X583438Y48750D03*
X583438Y31750D03*
X917956Y456202D03*
X917956Y473202D03*
X940562Y456202D03*
X940562Y473202D03*
D15*
X964184Y491404D03*
X964184Y512404D03*
D16*
X963422Y456456D03*
X963422Y473456D03*
D17*
X853084Y334471D03*
X862584Y334471D03*
X872084Y334471D03*
X872084Y360473D03*
X853084Y360473D03*
D18*
X818778Y334518D03*
X835778Y334518D03*
D14*
X241148Y91694D03*
X222148Y91694D03*
X221894Y117094D03*
X240894Y117094D03*
X812781Y359247D03*
X831781Y359247D03*
D18*
X847153Y380492D03*
X864153Y380492D03*
D15*
X895350Y491912D03*
X895350Y512912D03*
D16*
X895350Y455812D03*
X895350Y472812D03*
D13*
X939960Y119126D03*
X959960Y119126D03*
X941738Y153416D03*
X961738Y153416D03*
M02*
