G04 EAGLE Gerber RS-274X export*
G75*
%MOMM*%
%FSLAX34Y34*%
%LPD*%
%INSoldermask Bottom*%
%IPPOS*%
%AMOC8*
5,1,8,0,0,1.08239X$1,22.5*%
G01*
%ADD10C,4.203200*%
%ADD11C,2.082800*%
%ADD12C,1.676400*%
%ADD13R,1.311200X1.311200*%
%ADD14P,1.924489X8X22.500000*%
%ADD15C,1.778000*%
%ADD16R,2.235200X2.235200*%
%ADD17C,2.235200*%
%ADD18C,2.743200*%
%ADD19P,2.969212X8X202.500000*%
%ADD20C,0.959600*%


D10*
X44363Y408558D03*
X755853Y346028D03*
X43518Y34223D03*
D11*
X867918Y82550D03*
X867918Y57150D03*
X842518Y82550D03*
X842518Y57150D03*
X817118Y82550D03*
X817118Y57150D03*
X791718Y82550D03*
X791718Y57150D03*
X766318Y82550D03*
X766318Y57150D03*
D12*
X861568Y306070D03*
X836168Y306070D03*
X810768Y306070D03*
X785368Y306070D03*
X759968Y306070D03*
X734568Y306070D03*
X709168Y306070D03*
X683768Y306070D03*
X658368Y306070D03*
X632968Y306070D03*
X607568Y306070D03*
X582168Y306070D03*
X582168Y153670D03*
X607568Y153670D03*
X632968Y153670D03*
X658368Y153670D03*
X683768Y153670D03*
X709168Y153670D03*
X734568Y153670D03*
X759968Y153670D03*
X785368Y153670D03*
X810768Y153670D03*
X836168Y153670D03*
X886968Y306070D03*
X861568Y153670D03*
X886968Y153670D03*
X912368Y306070D03*
X912368Y153670D03*
X556768Y306070D03*
X556768Y153670D03*
X531368Y306070D03*
X505968Y306070D03*
X480568Y306070D03*
X455168Y306070D03*
X429768Y306070D03*
X404368Y306070D03*
X378968Y306070D03*
X353568Y306070D03*
X328168Y306070D03*
X328168Y153670D03*
X353568Y153670D03*
X378968Y153670D03*
X404368Y153670D03*
X429768Y153670D03*
X455168Y153670D03*
X480568Y153670D03*
X505968Y153670D03*
X531368Y153670D03*
X455168Y280670D03*
X455168Y229870D03*
X455168Y204470D03*
X455168Y255270D03*
X455168Y179070D03*
X886968Y179070D03*
X836168Y179070D03*
X810768Y179070D03*
X785368Y179070D03*
X848868Y274320D03*
X823468Y274320D03*
X798068Y274320D03*
X772668Y274320D03*
X747268Y274320D03*
D11*
X904748Y418592D03*
X879348Y418592D03*
X853948Y418592D03*
X828548Y418592D03*
X461518Y82550D03*
X461518Y57150D03*
X436118Y82550D03*
X436118Y57150D03*
X410718Y82550D03*
X410718Y57150D03*
X385318Y82550D03*
X385318Y57150D03*
X359918Y82550D03*
X359918Y57150D03*
D13*
X708536Y571517D03*
X708536Y393717D03*
X314836Y393717D03*
X314836Y571517D03*
D14*
X961898Y70612D03*
D15*
X936498Y70612D03*
D16*
X839216Y551434D03*
D17*
X804216Y551434D03*
D18*
X801583Y468380D03*
D19*
X750783Y468380D03*
D20*
X81120Y428838D03*
X102245Y424190D03*
X87458Y405178D03*
X15210Y266598D03*
X355323Y440668D03*
X355323Y482918D03*
X350253Y514605D03*
X353633Y541645D03*
X402643Y539955D03*
X401375Y511225D03*
X399685Y482918D03*
X400530Y438978D03*
X956540Y358280D03*
X956963Y337155D03*
X957808Y316030D03*
X957808Y292370D03*
X691633Y232798D03*
X705998Y232798D03*
X706420Y218010D03*
X691210Y218855D03*
X367998Y254345D03*
X392503Y254345D03*
X392503Y222235D03*
X372223Y222235D03*
X259415Y195195D03*
X158860Y192660D03*
X161395Y261950D03*
X247585Y256035D03*
X169845Y54925D03*
X209138Y53658D03*
X544603Y117033D03*
X574178Y117033D03*
X619385Y115343D03*
X654453Y117033D03*
X924853Y24083D03*
X967103Y25350D03*
X957385Y228150D03*
X676000Y364618D03*
X700083Y362928D03*
X698393Y338423D03*
X676000Y340535D03*
X892743Y362505D03*
X790498Y336310D03*
X786695Y363773D03*
X788808Y398418D03*
X830635Y393348D03*
X905840Y390390D03*
X963300Y385320D03*
X665860Y445738D03*
X690365Y486298D03*
X651918Y518830D03*
X623610Y482495D03*
X615160Y447850D03*
X653608Y474468D03*
X680225Y516718D03*
X603330Y525168D03*
X17745Y212095D03*
X13943Y152523D03*
X22815Y360815D03*
X55770Y374335D03*
X13943Y67178D03*
X94640Y107738D03*
X88725Y223503D03*
X88725Y284343D03*
X816693Y238290D03*
X839085Y241248D03*
X839085Y218433D03*
X816693Y218433D03*
X963723Y581360D03*
X917670Y582628D03*
X855985Y460103D03*
X982313Y555588D03*
X753318Y429260D03*
X753318Y516295D03*
X653034Y65786D03*
X870204Y543814D03*
X750824Y174498D03*
X490945Y125905D03*
X489712Y49784D03*
X488950Y68580D03*
X505460Y107696D03*
X536448Y64262D03*
X931926Y568452D03*
X613791Y71755D03*
X640588Y65278D03*
X574802Y83058D03*
X584708Y63500D03*
X703580Y63754D03*
X724154Y63754D03*
X668528Y59944D03*
X767588Y20066D03*
M02*
